<svg id="Layer_1" data-name="Layer 1" xmlns="http://www.w3.org/2000/svg" viewBox="0 0 199.47 136.06"><defs><style>.cls-1{fill:#e9eefb;}.cls-2{fill:#ff5a75;}.cls-3{fill:#4038a6;}</style></defs><title>algorithm-new</title><circle class="cls-1" cx="60.17" cy="72.03" r="60.17"/><circle class="cls-1" cx="147.11" cy="73.35" r="52.36"/><rect class="cls-1" x="74.15" y="56.97" width="12.08" height="4.63"/><rect class="cls-1" x="74.15" y="65.59" width="23.33" height="21.94"/><rect class="cls-1" x="86.99" y="56.97" width="12.08" height="4.63"/><rect class="cls-1" x="99.83" y="56.97" width="12.09" height="4.63"/><rect class="cls-1" x="112.67" y="56.97" width="12.08" height="4.63"/><path class="cls-2" d="M83.94,48.37H48.51A3.54,3.54,0,0,1,45,44.83V9.4a3.55,3.55,0,0,1,3.55-3.55H83.94A3.54,3.54,0,0,1,87.48,9.4V44.83A3.53,3.53,0,0,1,83.94,48.37Z" transform="translate(0 -1.6)"/><path class="cls-2" d="M148.43,95.15A3.83,3.83,0,0,1,145.72,94L124,72.34a3.81,3.81,0,0,1,0-5.41l21.68-21.69a3.83,3.83,0,0,1,5.41,0l21.69,21.69a3.81,3.81,0,0,1,0,5.41L151.13,94a3.79,3.79,0,0,1-2.7,1.13Z" transform="translate(0 -1.6)"/><path class="cls-2" d="M66.22,135.11a23,23,0,1,1,23-23A23,23,0,0,1,66.22,135.11Z" transform="translate(0 -1.6)"/><path class="cls-3" d="M87.48,52.63H45a4.26,4.26,0,0,1-4.25-4.26V5.85A4.26,4.26,0,0,1,45,1.6H87.48a4.26,4.26,0,0,1,4.26,4.25V48.37A4.26,4.26,0,0,1,87.48,52.63ZM49.22,44.12h34v-34h-34Z" transform="translate(0 -1.6)"/><path class="cls-3" d="M148.43,98a4.21,4.21,0,0,1-3-1.25L121.33,72.64a4.26,4.26,0,0,1,0-6l24.09-24.09a4.26,4.26,0,0,1,6,0l24.09,24.09a4.24,4.24,0,0,1,0,6L151.44,96.73A4.21,4.21,0,0,1,148.43,98ZM130.35,69.63l18.08,18.08,18.08-18.08L148.43,51.55Z" transform="translate(0 -1.6)"/><path class="cls-3" d="M66.22,137.67a25.52,25.52,0,1,1,25.52-25.52A25.55,25.55,0,0,1,66.22,137.67Zm0-42.52a17,17,0,1,0,17,17A17,17,0,0,0,66.22,95.15Z" transform="translate(0 -1.6)"/><path class="cls-3" d="M148.43,48.37a4.25,4.25,0,0,1-4.25-4.25V31.36H88.9a4.25,4.25,0,0,1,0-8.5h59.53a4.25,4.25,0,0,1,4.25,4.25v17A4.25,4.25,0,0,1,148.43,48.37Z" transform="translate(0 -1.6)"/><path class="cls-3" d="M148.43,116.41H88.9a4.26,4.26,0,0,1,0-8.51h55.28V95.15a4.25,4.25,0,1,1,8.5,0v17A4.25,4.25,0,0,1,148.43,116.41Z" transform="translate(0 -1.6)"/></svg>