<svg id="Layer_1" data-name="Layer 1" xmlns="http://www.w3.org/2000/svg" viewBox="0 0 199.47 135.38"><defs><style>.cls-1{fill:#e9eefb;}.cls-2{fill:#ff5a75;}.cls-3{fill:#4038a6;}</style></defs><title>antivirus-new</title><circle class="cls-1" cx="60.17" cy="71.63" r="60.17"/><circle class="cls-1" cx="147.11" cy="72.95" r="52.36"/><rect class="cls-1" x="74.15" y="56.58" width="12.08" height="4.63"/><rect class="cls-1" x="74.15" y="65.19" width="23.33" height="21.94"/><rect class="cls-1" x="86.99" y="56.58" width="12.08" height="4.63"/><rect class="cls-1" x="99.83" y="56.58" width="12.09" height="4.63"/><rect class="cls-1" x="112.67" y="56.58" width="12.08" height="4.63"/><rect class="cls-2" x="74.15" y="43.5" width="59.35" height="53.75"/><path class="cls-3" d="M161,23.15c-23.1,0-40.8-6.6-55.76-21.15-15,14.55-32.66,21.15-55.76,21.15,0,37.9-7.84,92.18,55.76,114.23C168.85,115.33,161,61.05,161,23.15ZM100.63,89.84,82.05,71.26l8.32-8.32L100.63,73.2l19.5-19.5L128.45,62Z" transform="translate(0 -2)"/></svg>