<?xml version="1.0"?>
<svg xmlns="http://www.w3.org/2000/svg" xmlns:xlink="http://www.w3.org/1999/xlink" xmlns:svgjs="http://svgjs.com/svgjs" version="1.1" width="512" height="512" x="0" y="0" viewBox="0 0 410.758 410.758" style="enable-background:new 0 0 512 512" xml:space="preserve" class=""><g>
<g xmlns="http://www.w3.org/2000/svg">
	<path d="M350.604,60.153C311.812,21.362,260.237,0,205.379,0C150.521,0,98.945,21.362,60.154,60.153S0,150.52,0,205.378   c0,54.858,21.363,106.437,60.154,145.227c38.791,38.791,90.366,60.153,145.225,60.153c54.859,0,106.434-21.362,145.225-60.153   c38.791-38.79,60.154-90.366,60.154-145.227C410.758,150.521,389.395,98.944,350.604,60.153z M91.78,169.325   c0-27.57,22.43-50,50-50c27.57,0,50,22.43,50,50c0,8.283-6.716,15-15,15c-8.284,0-15-6.717-15-15c0-11.027-8.972-20-20-20   c-11.028,0-20,8.973-20,20c0,8.283-6.716,15-15,15C98.496,184.325,91.78,177.608,91.78,169.325z M298.479,235.71   c-17.349,32.328-50.837,53.623-87.396,55.576c-1.852,0.098-3.704,0.146-5.548,0.146c-34.87,0-68.088-17.494-87.713-46.543   c-2.001-2.963-3.865-6.051-5.545-9.178c-3.918-7.299-1.177-16.393,6.123-20.311c7.297-3.918,16.392-1.179,20.311,6.123   c1.201,2.237,2.538,4.448,3.973,6.573c14.797,21.904,40.408,34.64,66.799,33.229c26.164-1.397,50.136-16.649,62.562-39.805   c3.918-7.299,13.01-10.041,20.311-6.125C299.655,219.316,302.397,228.411,298.479,235.71z M303.978,184.325   c-8.283,0-15-6.717-15-15c0-11.027-8.972-20-20-20c-11.027,0-19.999,8.973-19.999,20c0,8.283-6.717,15-15,15   c-8.285,0-15-6.717-15-15c0-27.57,22.43-50,49.999-50c27.57,0,50,22.43,50,50C318.978,177.608,312.262,184.325,303.978,184.325z" fill="#ffb93f" data-original="#000000" style="" class=""/>
</g>
<g xmlns="http://www.w3.org/2000/svg">
</g>
<g xmlns="http://www.w3.org/2000/svg">
</g>
<g xmlns="http://www.w3.org/2000/svg">
</g>
<g xmlns="http://www.w3.org/2000/svg">
</g>
<g xmlns="http://www.w3.org/2000/svg">
</g>
<g xmlns="http://www.w3.org/2000/svg">
</g>
<g xmlns="http://www.w3.org/2000/svg">
</g>
<g xmlns="http://www.w3.org/2000/svg">
</g>
<g xmlns="http://www.w3.org/2000/svg">
</g>
<g xmlns="http://www.w3.org/2000/svg">
</g>
<g xmlns="http://www.w3.org/2000/svg">
</g>
<g xmlns="http://www.w3.org/2000/svg">
</g>
<g xmlns="http://www.w3.org/2000/svg">
</g>
<g xmlns="http://www.w3.org/2000/svg">
</g>
<g xmlns="http://www.w3.org/2000/svg">
</g>
</g></svg>
