<svg id="Layer_2" data-name="Layer 2" xmlns="http://www.w3.org/2000/svg" xmlns:xlink="http://www.w3.org/1999/xlink" viewBox="0 0 349.488 275.586"><defs><style>.cls-1{fill:#fff;}.cls-2{opacity:0.5;fill:url(#linear-gradient);}.cls-3{fill:#ebeeff;}.cls-4{fill:#a9b0d8;}.cls-5{fill:#b1b9e8;}.cls-6{fill:#d0d4f9;}.cls-7{fill:#5469fa;}.cls-8{fill:#8095ff;}.cls-9{fill:#ff5a73;}.cls-10{fill:#fab234;}.cls-11{fill:#403da5;}.cls-12{fill:#ff6a4d;}.cls-13{fill:#ffc3c2;}.cls-14{fill:#211d72;}.cls-15{fill:#383097;}.cls-16{fill:#ffb4af;}.cls-17{fill:#f45540;}.cls-18{fill:#ff8271;}.cls-19{fill:url(#linear-gradient-2);}.cls-20{fill:#f79826;}.cls-21{fill:#3856e8;}.cls-22{fill:url(#linear-gradient-3);}.cls-23{fill:#28337d;}.cls-24{fill:#e84665;}.cls-25{fill:#ffca76;}</style><linearGradient id="linear-gradient" x1="178.134" y1="264.266" x2="282.957" y2="82.708" gradientUnits="userSpaceOnUse"><stop offset="0" stop-color="#a9b0d8"/><stop offset="0.12" stop-color="#b6bcde"/><stop offset="0.498" stop-color="#dadcee"/><stop offset="0.805" stop-color="#f1f1f8"/><stop offset="1" stop-color="#f9f8fc"/></linearGradient><linearGradient id="linear-gradient-2" x1="-49.145" y1="236.629" x2="-30.41" y2="236.629" gradientTransform="matrix(-1, 0, 0, 1, 308.178, 0)" gradientUnits="userSpaceOnUse"><stop offset="0" stop-color="#ea3afe"/><stop offset="0.995" stop-color="#fb67fd"/></linearGradient><linearGradient id="linear-gradient-3" x1="-59.2" y1="223.607" x2="-40.465" y2="223.607" xlink:href="#linear-gradient-2"/></defs><title>header-illustration</title><ellipse class="cls-1" cx="185.929" cy="173.24" rx="158.087" ry="102.346"/><polygon class="cls-2" points="154.429 250.58 181.794 247.626 227.426 221.952 201.108 207.479 349.488 121.12 281.284 82.518 166.987 148.508 140.13 176.445 154.429 250.58"/><path class="cls-3" d="M247.357,269.911s-22.645-12.408-28.834-16.744c-4.472-3.134-3.076-5.816-.331-14.744s8.737-25.271,8.737-25.271l-3.989-.64a44.2,44.2,0,0,1,2.69-7.2c-18.284,1.824-36.527,15.5-37.816,17.135-1.372,1.738-11.507,39.338-12.879,44.241s0.022,7.81,8.462,12.867,25.016,12.784,25.016,12.784l34.711-19.618c2.565,1.494,4.233,2.459,4.233,2.459v-5.272Z" transform="translate(-53.984 -47.034)"/><path class="cls-4" d="M208.413,292.342S185.321,279.3,179.278,275.5c-4.624-2.9-2.775-6.138-.03-15.066s8.737-25.272,8.737-25.272l-5.521-.886s-6.428,19.709-8.718,27.251-3.849,13.4,3.024,17.738c9.346,5.893,31.642,18.344,31.642,18.344v-5.272Z" transform="translate(-53.984 -47.034)"/><polygon class="cls-5" points="154.429 245.308 154.429 250.58 193.372 228.149 193.372 222.877 154.429 245.308"/><path class="cls-4" d="M268.251,87.4l-6.266-3.644a6.346,6.346,0,0,0-.952-0.554l-0.082-.048,0,0.005a6.158,6.158,0,0,0-5.684.276L131.155,155.083a9.8,9.8,0,0,0-4.9,8.486V269.6a6.79,6.79,0,0,0,3.459,5.952l-0.01.041,6.9,3.982,4.108-6.38-0.056-.034,119.068-68.742a9.8,9.8,0,0,0,4.9-8.487V88.835c0-.173-0.021-0.339-0.034-0.508Z" transform="translate(-53.984 -47.034)"/><path class="cls-6" d="M133.14,167.606V273.633a6.855,6.855,0,0,0,10.282,5.937l123.184-71.118a9.8,9.8,0,0,0,4.9-8.487V92.872a6.239,6.239,0,0,0-9.359-5.4L138.039,159.12A9.8,9.8,0,0,0,133.14,167.606Z" transform="translate(-53.984 -47.034)"/><polygon class="cls-1" points="211.064 45.795 100.525 109.682 85.613 118.301 85.613 227.259 211.064 154.75 211.064 45.795"/><path class="cls-7" d="M218.135,145.433l-1.926-1.1-0.009-.005-0.029-.016-0.006.005a0.607,0.607,0,0,0-.652.031L149.825,182.27a2.348,2.348,0,0,0-.98,1.873v68.4a0.938,0.938,0,0,0,.257.716l0,0.009,0.018,0.011a0.48,0.48,0,0,0,.07.04l2.024,1.168,1.24-2.308-0.5-.121,63.564-36.7a2.348,2.348,0,0,0,.98-1.873V146.244l0.659,0.543Z" transform="translate(-53.984 -47.034)"/><path class="cls-8" d="M218.512,214.634a2.348,2.348,0,0,1-.98,1.873l-65.689,37.925c-0.541.313-.98-0.019-0.98-0.741V185.3a2.348,2.348,0,0,1,.98-1.873L217.532,145.5c0.541-.313.98,0.019,0.98,0.741v68.4Z" transform="translate(-53.984 -47.034)"/><polygon class="cls-1" points="162.605 167.022 98.801 203.86 98.801 143.002 162.605 106.164 162.605 167.022"/><polygon class="cls-9" points="162.772 103.922 160.188 105.415 160.188 101.969 162.772 100.477 162.772 103.922"/><polygon class="cls-10" points="158.743 106.249 156.158 107.741 156.158 104.295 158.743 102.803 158.743 106.249"/><polygon class="cls-11" points="120.23 148.165 120.23 150.988 160.081 127.98 160.081 125.158 120.23 148.165"/><polygon class="cls-11" points="120.23 154.162 120.23 156.984 160.081 133.976 160.081 131.154 120.23 154.162"/><polygon class="cls-11" points="120.23 160.252 120.23 163.074 160.081 140.066 160.081 137.244 120.23 160.252"/><polygon class="cls-11" points="120.23 166.782 120.23 169.604 140.13 158.115 140.13 155.293 120.23 166.782"/><polygon class="cls-11" points="120.23 172.779 120.23 175.601 140.13 164.112 140.13 161.29 120.23 172.779"/><polygon class="cls-11" points="140.13 167.379 101.45 189.712 101.45 192.534 140.13 170.202 140.13 167.379"/><polygon class="cls-11" points="140.13 173.623 101.45 195.955 101.45 198.777 140.13 176.445 140.13 173.623"/><polygon class="cls-9" points="101.45 158.919 101.45 186.2 116.813 177.306 116.813 150.026 101.45 158.919"/><polygon class="cls-7" points="143.455 153.399 143.455 174.551 160.081 164.926 160.081 143.774 143.455 153.399"/><path class="cls-9" d="M165.556,195.555v-1.007l0.308-.216a0.577,0.577,0,0,0,.271-0.5v-5.779l-0.532.27v-1.056l2.247-1.3v1.007l-0.308.214a0.608,0.608,0,0,0-.271.554v5.543l1.549-.894a0.5,0.5,0,0,0,.214-0.52V191l0.951-.461V193Z" transform="translate(-53.984 -47.034)"/><path class="cls-9" d="M170.578,192.654v-1.007l0.309-.216a0.575,0.575,0,0,0,.27-0.5v-5.779l-0.532.27v-1.055L174.9,181.9v2.061l-0.951.637v-0.5c0-.237-0.018-0.375-0.27-0.229l-1.38.8v2.126l2.153-1.243v1.267L172.3,188.06v2.323l1.5-.866a0.513,0.513,0,0,0,.261-0.548v-0.622l0.95-.463V190.1Z" transform="translate(-53.984 -47.034)"/><path class="cls-9" d="M178.744,185.629c0-.782-0.532-0.7-1.185-0.559-0.924.2-1.781,0.2-1.781-1.395a4.337,4.337,0,0,1,2.164-3.685,3.219,3.219,0,0,1,1.753-.5v1.865l-0.951.637v-0.722c0-.237-0.028-0.318-0.2-0.3a2.046,2.046,0,0,0-.606.249,1.849,1.849,0,0,0-.979,1.636c0,0.77.541,0.668,1.24,0.551,0.848-.129,1.743-0.136,1.743,1.466a4.519,4.519,0,0,1-2.257,3.839,3.435,3.435,0,0,1-1.883.578v-1.965l0.951-.635v0.758c0,0.235.027,0.32,0.2,0.3a2.155,2.155,0,0,0,.67-0.276A2.022,2.022,0,0,0,178.744,185.629Z" transform="translate(-53.984 -47.034)"/><path class="cls-9" d="M183.607,182.821c0-.783-0.532-0.7-1.184-0.56-0.924.2-1.781,0.2-1.781-1.395a4.336,4.336,0,0,1,2.164-3.685,3.213,3.213,0,0,1,1.753-.5v1.864l-0.951.637v-0.72c0-.237-0.028-0.319-0.2-0.3a2,2,0,0,0-.606.249,1.85,1.85,0,0,0-.98,1.636c0,0.77.541,0.668,1.24,0.551,0.848-.129,1.744-0.138,1.744,1.465a4.517,4.517,0,0,1-2.256,3.839,3.417,3.417,0,0,1-1.884.578v-1.964l0.951-.635v0.758c0,0.234.027,0.319,0.2,0.3a2.224,2.224,0,0,0,.671-0.276A2.022,2.022,0,0,0,183.607,182.821Z" transform="translate(-53.984 -47.034)"/><path class="cls-9" d="M188.182,182.654c-1.661.959-2.7,0.118-2.7-2.714,0-3.182,1.5-5.168,2.806-5.92,1.389-.8,2.639-0.38,2.639,2.777C190.923,179.643,189.814,181.711,188.182,182.654Zm0.064-1.293c1.185-.685,1.52-2.37,1.52-3.86,0-1.269-.252-2.912-1.538-2.169-1.194.689-1.586,2.394-1.586,3.872C186.643,180.621,186.9,182.135,188.247,181.361Z" transform="translate(-53.984 -47.034)"/><path class="cls-9" d="M191.59,179.517l0.336-.231a0.515,0.515,0,0,0,.243-0.488v-5.779l-0.532.27v-1.055l1.679-.971,2.639,4.182,0.019-.012v-4.611l-0.615.317v-1.055l2.274-1.314v1.007l-0.335.231a0.565,0.565,0,0,0-.225.514v6.837l-1.09.629-2.7-4.236-0.018.012v4.7l0.606-.313v1.056l-2.284,1.318v-1.007Z" transform="translate(-53.984 -47.034)"/><path class="cls-9" d="M200.273,174.554l1.855-4.19a5.012,5.012,0,0,0,.654-2.156c0-.721-0.345-0.869-0.784-0.616a2.449,2.449,0,0,0-.56.422,0.642,0.642,0,0,0-.186.542v0.881l-0.951.463v-1.988a7.282,7.282,0,0,1,1.884-1.672c1.147-.662,1.771-0.129,1.771,1.19a7.063,7.063,0,0,1-.793,2.819l-1.5,3.23,2.332-1.347v1.23l-3.721,2.148v-0.957Z" transform="translate(-53.984 -47.034)"/><path class="cls-7" d="M252.592,114.081l-1.926-1.1-0.009-.005-0.028-.016-0.006.005a0.607,0.607,0,0,0-.652.031l-65.689,37.925a2.348,2.348,0,0,0-.981,1.873v68.395a0.938,0.938,0,0,0,.257.716l0,0.009,0.018,0.011a0.5,0.5,0,0,0,.07.04l2.024,1.168,1.24-2.308-0.5-.121L249.97,184a2.348,2.348,0,0,0,.98-1.873V114.892l0.659,0.543Z" transform="translate(-53.984 -47.034)"/><path class="cls-8" d="M252.969,183.282a2.348,2.348,0,0,1-.98,1.873L186.3,223.08c-0.541.313-.98-0.019-0.98-0.741V153.944a2.348,2.348,0,0,1,.98-1.873l65.689-37.925c0.541-.313.98,0.019,0.98,0.741v68.4Z" transform="translate(-53.984 -47.034)"/><polygon class="cls-1" points="197.062 135.67 133.257 172.508 133.257 111.65 197.062 74.812 197.062 135.67"/><polygon class="cls-9" points="197.229 72.57 194.645 74.062 194.645 70.616 197.229 69.124 197.229 72.57"/><polygon class="cls-10" points="193.2 74.897 190.615 76.389 190.615 72.943 193.2 71.45 193.2 74.897"/><polygon class="cls-11" points="150.971 118.958 150.971 121.781 194.537 96.628 194.537 93.805 150.971 118.958"/><polygon class="cls-11" points="150.971 124.955 150.971 127.777 194.537 102.624 194.537 99.802 150.971 124.955"/><polygon class="cls-11" points="150.971 131.045 150.971 133.867 194.537 108.714 194.537 105.892 150.971 131.045"/><polygon class="cls-11" points="174.587 123.941 135.906 146.273 135.906 149.095 174.587 126.763 174.587 123.941"/><polygon class="cls-11" points="174.587 129.937 135.906 152.269 135.906 155.092 174.587 132.759 174.587 129.937"/><polygon class="cls-11" points="174.587 136.027 135.906 158.359 135.906 161.181 174.587 138.849 174.587 136.027"/><polygon class="cls-11" points="174.587 142.27 135.906 164.602 135.906 167.425 174.587 145.092 174.587 142.27"/><polygon class="cls-10" points="135.906 127.654 135.906 142.47 147.552 135.728 147.552 120.913 135.906 127.654"/><polygon class="cls-12" points="177.912 122.047 177.912 143.198 194.537 133.574 194.537 112.422 177.912 122.047"/><path class="cls-9" d="M199.884,164.37v-1.007l0.308-.214a0.579,0.579,0,0,0,.271-0.5v-5.779l-0.532.27v-1.056l2.247-1.3v1.007L201.87,156a0.6,0.6,0,0,0-.271.553V162.1l1.549-.894a0.506,0.506,0,0,0,.214-0.521v-0.869l0.951-.463v2.461Z" transform="translate(-53.984 -47.034)"/><path class="cls-9" d="M204.906,161.472v-1.007l0.309-.216a0.576,0.576,0,0,0,.27-0.5v-5.779l-0.532.27v-1.058l4.271-2.466v2.064l-0.951.635v-0.5c0-.237-0.018-0.375-0.27-0.229l-1.38.8v2.126l2.153-1.243v1.267l-2.153,1.243V159.2l1.5-.867a0.509,0.509,0,0,0,.261-0.547v-0.622l0.951-.462v2.211Z" transform="translate(-53.984 -47.034)"/><path class="cls-9" d="M213.072,154.446c0-.785-0.532-0.7-1.184-0.56-0.924.2-1.782,0.195-1.782-1.4a4.337,4.337,0,0,1,2.164-3.685,3.227,3.227,0,0,1,1.753-.5v1.865l-0.95.635v-0.719c0-.237-0.029-0.321-0.2-0.3a2.052,2.052,0,0,0-.606.25,1.845,1.845,0,0,0-.979,1.634c0,0.77.541,0.67,1.24,0.551,0.848-.129,1.744-0.136,1.744,1.467a4.52,4.52,0,0,1-2.258,3.839,3.417,3.417,0,0,1-1.882.577v-1.962l0.951-.637v0.758c0,0.235.027,0.319,0.2,0.3a2.241,2.241,0,0,0,.67-0.277A2.018,2.018,0,0,0,213.072,154.446Z" transform="translate(-53.984 -47.034)"/><path class="cls-9" d="M217.935,151.637c0-.784-0.532-0.7-1.184-0.559-0.924.2-1.781,0.195-1.781-1.4A4.337,4.337,0,0,1,217.134,146a3.228,3.228,0,0,1,1.753-.5v1.866l-0.951.635v-0.721c0-.237-0.028-0.319-0.2-0.3a2.086,2.086,0,0,0-.606.25,1.848,1.848,0,0,0-.98,1.634c0,0.77.541,0.67,1.24,0.551,0.849-.129,1.744-0.135,1.744,1.468a4.52,4.52,0,0,1-2.256,3.838A3.429,3.429,0,0,1,215,155.3v-1.964l0.951-.637v0.758c0,0.237.027,0.321,0.2,0.3a2.162,2.162,0,0,0,.671-0.277A2.018,2.018,0,0,0,217.935,151.637Z" transform="translate(-53.984 -47.034)"/><path class="cls-9" d="M222.51,151.469c-1.661.959-2.7,0.118-2.7-2.714,0-3.182,1.5-5.167,2.806-5.922,1.389-.8,2.639-0.38,2.639,2.777C225.251,148.457,224.142,150.527,222.51,151.469Zm0.064-1.293c1.185-.683,1.52-2.37,1.52-3.86,0-1.269-.252-2.912-1.538-2.169-1.194.689-1.586,2.394-1.586,3.873C220.971,149.437,221.232,150.953,222.575,150.177Z" transform="translate(-53.984 -47.034)"/><path class="cls-9" d="M225.918,148.334l0.335-.232a0.513,0.513,0,0,0,.243-0.487v-5.779l-0.532.27v-1.058l1.678-.968,2.639,4.179,0.019-.009V139.64l-0.615.317V138.9l2.274-1.312v1.007l-0.335.231a0.564,0.564,0,0,0-.225.515v6.834l-1.091.631-2.695-4.235-0.018.009v4.7l0.606-.312v1.056l-2.284,1.32v-1.007Z" transform="translate(-53.984 -47.034)"/><path class="cls-9" d="M235.963,137.151l-1.09,1.375-0.411-.721,1.7-2.382,0.914-.529v6.885l0.969-.5v1.055l-3.245,1.874v-1.018l0.895-.592a0.573,0.573,0,0,0,.27-0.566v-4.885Z" transform="translate(-53.984 -47.034)"/><path class="cls-13" d="M307.211,145.412c-6.169.354-8.029,3.179-10.978,5.855-2.432,2.208-4.148,2.755-6.765,4.243-6.006-.451-12.084.5-16.434,1.055-3.54.454-9.219,1.258-11.432,1.673-1.785.335-1.45,1.6,0.223,1.468s3.792-.409,4.015,0,1.246,2.8,3.031,3.466,4.507-1.282,5.557-1.282c2.119,0,6.692-.112,9.7,0s5.284,0.888,6.8.531c4.4-1.034,11.86-4.747,14.465-5.987C309.618,153.376,307.211,145.412,307.211,145.412Z" transform="translate(-53.984 -47.034)"/><path class="cls-14" d="M355.635,104.457V98.851a7.189,7.189,0,0,1,3-.625,3.893,3.893,0,0,1,2.383,1,30.544,30.544,0,0,1,3.607-.425c1.163,0,4.384,1.115,5.123,2.144a1.122,1.122,0,0,1-.865,1.892c-1.964.209-6.665,2.606-6.611,2.633Z" transform="translate(-53.984 -47.034)"/><path class="cls-14" d="M375.447,109.192a31.491,31.491,0,0,1,2.851-4.473c1.015-1.06,5,.74,5.421,2.011a10.13,10.13,0,0,0-.623,1.229,13.383,13.383,0,0,1,3.92,2.872,6.023,6.023,0,0,1,1.3,6.136c-0.555,1.671-2.493.157-4.617-.945s-5.331-2.909-5.331-2.909Z" transform="translate(-53.984 -47.034)"/><path class="cls-15" d="M327.879,138.731a28.076,28.076,0,0,1,4.751-6.108c2.048-1.883,3.639-3.509,7.062-3.975,2.926-.4,10.538-2.568,12.651-4.113,0.991-6.823,2.883-18.87,2.974-20.727,2.747-1.944,7.018.182,8.084,1.07,0,3.245-1.025,11.3-1.558,15.609-0.41,3.313-.516,5.226-1,7.784-0.293,1.544-1.564,2.255-3.129,3.526-3.674,2.983-5.314,5.547-8.238,7.248s-9.228,4.948-9.228,4.948Z" transform="translate(-53.984 -47.034)"/><path class="cls-11" d="M344.553,133c1.586-.862,4.48-0.255,6.071.3a77.745,77.745,0,0,0,13.882-4.429,34.719,34.719,0,0,1,4.4-10.492c1.986-3.114,4.781-7.287,6.4-9.758,3.429,0.376,5.485,1.161,6.741,4.84-0.244.56-9.861,20.713-11.6,23.188a9.1,9.1,0,0,1-2.74,2.209,111.818,111.818,0,0,1-12.992,7.659c-7.524,3.617-12.538,5.573-12.538,5.573l-8.854-9.8A35.473,35.473,0,0,1,344.553,133Z" transform="translate(-53.984 -47.034)"/><path class="cls-12" d="M303.432,147.762c1.77-1.573,2.839-2.664,9.124-4.6,2.658-.817,8.141-2.385,11.422-4.393,3.832-2.344,6.7-4.813,8.651-6.15a18.455,18.455,0,0,1,13.856,6.624c1.949,2.374,2.623,7.529,2.71,10.251-1,.418-6.107,2.376-7.186,2.832-8.081,3.415-12.353,10.843-20.844,11.914-6.8.857-17.971-3.622-18.843-8.438S301.837,149.18,303.432,147.762Z" transform="translate(-53.984 -47.034)"/><path class="cls-16" d="M312.489,153.071s3.312,1,3.92,1.291-0.135,1.764-.473,3.395-0.473,3.81-.743,4.478a2.158,2.158,0,0,1-2.7,1c-1.352-.464-3.447-1-4.461-2.019s-0.689-5.915-.689-5.915S310.867,153.04,312.489,153.071Z" transform="translate(-53.984 -47.034)"/><path class="cls-13" d="M314.312,148.757c1.339,1.708,1.755,5.987-.09,9-1.639,2.676-5.379,4.19-7.04,4.457-2.967.479-6.167-7.715-2.78-12.727A6.027,6.027,0,0,1,314.312,148.757Z" transform="translate(-53.984 -47.034)"/><path class="cls-14" d="M311.462,145.13a6.012,6.012,0,0,1,3.9,2.59c3.023,0.644,2.714,5,1.964,6.642-1.449,3.176-3.105,3.395-3.105,3.395a5.01,5.01,0,0,0,.05-2.487c-0.327-.644-1.356-0.756-1.7.39a2.64,2.64,0,0,1-.84.083l0.348-2.289a4.1,4.1,0,0,1-3.725-.26,3.75,3.75,0,0,0-4.26.159,4.507,4.507,0,0,1-.3-2.335c-1.176-.824-2.293-1.563-2.123-2.123a3.411,3.411,0,0,0,2.813-.265,6.7,6.7,0,0,1-1.535-1.751C305.014,147.143,309.473,144.8,311.462,145.13Z" transform="translate(-53.984 -47.034)"/><path class="cls-17" d="M343.782,147.875a9.062,9.062,0,0,0-2.163-5.407,12.857,12.857,0,0,0-3.785-2.884s2.557,2.753,3.4,3.9S343.782,147.875,343.782,147.875Z" transform="translate(-53.984 -47.034)"/><path class="cls-17" d="M339.366,143.009a7.416,7.416,0,0,1,1.892,3.481,7.128,7.128,0,0,1,0,3.458,20.336,20.336,0,0,0-.846-3.545C339.817,144.721,339.366,143.009,339.366,143.009Z" transform="translate(-53.984 -47.034)"/><path class="cls-13" d="M321.97,154.362c-2.792,1.785-3.55,3.983-3.158,6.98s2.647,3.611,6.719,3.007a25.868,25.868,0,0,0,6.1-1.5l7.737-.019s-2.788,5.736-3.578,7.3-3.3,2-6.454,1.248a4.087,4.087,0,0,0,3.99,4.62c3.208,0,4.089-2.023,5.651-3.6s7.067-4.8,9.179-12.436c0.787-2.845-.39-2.856-4.373-4.635-3.655-1.633-9.178-1.609-13.257-2.252S325.531,152.085,321.97,154.362Z" transform="translate(-53.984 -47.034)"/><polygon class="cls-17" points="273.121 112.694 270.345 122.062 276.922 123.476 280.015 114.506 273.121 112.694"/><polygon class="cls-12" points="273.386 113.01 270.609 122.378 277.187 123.792 280.28 114.822 273.386 113.01"/><polygon class="cls-18" points="270.609 122.378 270.345 122.062 273.121 112.694 273.386 113.01 270.609 122.378"/><path class="cls-7" d="M339.366,162.827l-8.386-2.277-3.1,10.462,1.729,0.433a8.266,8.266,0,0,0,5.469-.235c1.5-.8,2.249-2.533,2.849-4.253Z" transform="translate(-53.984 -47.034)"/><polygon class="cls-8" points="276.996 113.516 275.794 112.825 272.693 123.287 273.895 123.978 276.996 113.516"/><polygon class="cls-1" points="276.76 113.366 276.029 112.946 272.99 123.056 273.721 123.476 276.76 113.366"/><polygon class="cls-7" points="285.382 115.793 284.18 115.102 275.794 112.825 276.996 113.516 285.382 115.793"/><polygon class="cls-1" points="278.292 114.66 277.733 114.517 275.026 123.65 275.52 123.755 278.292 114.66"/><path class="cls-1" d="M339.147,163.511l-6.083-1.565-2.707,9.133,2.967,0.649a3.169,3.169,0,0,0,2.5-1.044,8.8,8.8,0,0,0,2.013-3.471Z" transform="translate(-53.984 -47.034)"/><polygon class="cls-6" points="276.029 112.946 284.402 115.23 285.163 115.667 276.76 113.366 276.029 112.946"/><path class="cls-16" d="M289.652,214.467s4.492-3.6,7.689-2.168c3.286,1.477,10.441,3.739,11.958,5.4,0.761,0.831,1.434.515,2.1,2.084,0.437,1.024-.691,1.947-1.086,4.054-0.474,2.53-4.738,7.658-4.738,7.658l-5.233-2.427Z" transform="translate(-53.984 -47.034)"/><path class="cls-13" d="M347.563,232.245s0.18-1.49.35-2.667c0.14-.968.462-4.371,0.73-6.484a1.209,1.209,0,0,0,.447.343c2.178,0.95,5.9.761,7.209,1.234s4,0.962,4.222,3.037c-0.806-.3-1.608-0.638-2.34-0.877-2.083-.681-4.072-0.928-4.406,0s-0.324,6.363-.324,6.363Z" transform="translate(-53.984 -47.034)"/><path class="cls-15" d="M306.34,234.66l5.942-2.06s2.293-.539,6.681,1.292c3.307,1.38,4.407,3.389,6.359,5.456,0.991,1.049,5.089,1.647,10.19,3.493a58.139,58.139,0,0,1,10.358,5.313s0.5-3.227,1.353-12.444c0.3-3.261.549-5.431,0.813-7.148,2.124,1.532,3.59,2.079,5.476,1.016,0.123,2.574.544,8.266,0.572,10.528,0.061,4.963.213,9.348-.07,13.294a8.2,8.2,0,0,1-2.462,5.739c-0.888.935-3.4,1.383-6.713,0.912A90.531,90.531,0,0,1,331.1,256.2a147.625,147.625,0,0,1-18.816-8.241c-3.977-2.152-14.087-10.478-14.087-10.478Z" transform="translate(-53.984 -47.034)"/><path class="cls-13" d="M337.508,245.267s0.18-1.491.35-2.667c0.14-.969.462-4.371,0.73-6.484a1.208,1.208,0,0,0,.447.343c2.178,0.95,5.9.761,7.209,1.234s4,0.962,4.222,3.037c-0.806-.3-1.609-0.638-2.34-0.877-2.083-.681-4.072-0.929-4.406,0s-0.324,6.363-.324,6.363Z" transform="translate(-53.984 -47.034)"/><path class="cls-10" d="M338.751,234.968a15.357,15.357,0,0,1,.289-2.167c-0.057.431,1.085,1.368,3.049,1.649,1.988,0.284,4.7.71,5.866,0.994s3.721,1.989,5.639,4.126a5.612,5.612,0,0,0,2.353,1.753,4.605,4.605,0,0,1-.719.261c-1.285.349-3.273-.308-4.762-0.855-0.217-2.075-2.916-2.564-4.222-3.037s-5.031-.284-7.209-1.234a1.208,1.208,0,0,1-.447-0.343C338.646,235.663,338.7,235.266,338.751,234.968Z" transform="translate(-53.984 -47.034)"/><path class="cls-19" d="M353.594,239.57c-1.918-2.137-4.474-3.842-5.639-4.126s-3.878-.71-5.866-0.994c-1.964-.281-3.106-1.218-3.049-1.649a1.39,1.39,0,0,1,1.132-.79c1.61-.379,3.03.757,4.261,1.136s2.526,0.1,5.556.673a9.7,9.7,0,0,1,6.685,4.062c1.325,1.871.386,2.925-.727,3.441A5.612,5.612,0,0,1,353.594,239.57Z" transform="translate(-53.984 -47.034)"/><path class="cls-20" d="M353.594,239.57a15.082,15.082,0,0,0-5.414-3.454,24.293,24.293,0,0,0-6.091-1.666c-1.964-.281-3.106-1.218-3.049-1.649a1.39,1.39,0,0,1,1.132-.79c1.61-.379,3.03.757,4.261,1.136s2.526,0.1,5.556.673a9.7,9.7,0,0,1,6.685,4.062c1.325,1.871.386,2.925-.727,3.441A5.612,5.612,0,0,1,353.594,239.57Z" transform="translate(-53.984 -47.034)"/><path class="cls-11" d="M300.346,235.276c5.13-3.125,6.7-4.166,6.7-4.166s3.977,1.042,9.185,5.4c2.128,1.78,3.9,6.437,4.261,7.859,0.83,3.287,4.269,4.888,9,9.032a38.19,38.19,0,0,1,7.173,8.3,51.988,51.988,0,0,1,.142-10.44,98.327,98.327,0,0,1,1.207-9.933,7.909,7.909,0,0,0,5.452,1.131c0.329,2.56.727,8.233,1.224,12.708,0.677,6.1.639,9.232-.071,13a5.569,5.569,0,0,1-2.983,3.551,7.319,7.319,0,0,1-4.125.568c-4.545-.284-15.65-6.6-22.2-12S300.346,246.5,300.346,246.5,295.215,238.4,300.346,235.276Z" transform="translate(-53.984 -47.034)"/><polygon class="cls-8" points="244.634 170.587 251.166 165.777 257.651 172.869 252.127 177.152 244.634 170.587"/><polygon class="cls-7" points="244.117 171.73 250.649 166.92 257.135 174.012 251.61 178.295 244.117 171.73"/><polygon class="cls-21" points="250.649 166.92 251.166 165.777 257.651 172.869 257.135 174.012 250.649 166.92"/><polygon class="cls-1" points="251.284 166.294 251.066 166.938 257.275 173.701 257.537 173.121 251.284 166.294"/><polygon class="cls-8" points="244.951 172.397 252.33 169.027 257.225 177.297 250.94 180.357 244.951 172.397"/><polygon class="cls-7" points="244.211 173.41 251.59 170.04 256.484 178.31 250.199 181.37 244.211 173.41"/><polygon class="cls-21" points="251.59 170.04 252.33 169.027 257.225 177.297 256.484 178.31 251.59 170.04"/><polygon class="cls-1" points="252.339 169.557 251.994 170.143 256.686 178.035 257.061 177.521 252.339 169.557"/><path class="cls-10" d="M284.094,218.374l-4.779,1.008a11.527,11.527,0,0,0,1.98,5.911,3.909,3.909,0,0,1,.252,4.709s1.834,4.226,3.879,5.138c1.249,0.557,3.83.859,5.361,1.605,2.895,1.41,3.181,2.429,5.274,4.591,1.656,1.71,4.283,5.161,4.283,5.161a23.058,23.058,0,0,1,7.175-9.8c3.886-2.85,9.829-3.292,9.829-3.292s-4.211-1.867-7.556-3.827a27.53,27.53,0,0,1-6.439-6.141c-4.31-5.8-4.4-6.652-8.238-8.561S284.094,218.374,284.094,218.374Z" transform="translate(-53.984 -47.034)"/><path class="cls-13" d="M281.191,204.573c-1.969,1.157-3.181,2.462-3.052,6.942,0.13,4.52,1.317,5.243,2.228,5.623a11.447,11.447,0,0,0,1.737.411s0.546,4.389,1.271,5.4c0.444,0.62,2.45.688,4.581-.19s2.1-1.646,2.1-1.646a17.985,17.985,0,0,1-1.006-5.718c0.173-3.081,1.006-4.8.366-7.722C288.722,204.49,284.639,202.545,281.191,204.573Z" transform="translate(-53.984 -47.034)"/><path class="cls-13" d="M280.223,220.866c-2.856-1.89-9.3-2.51-12.337-3.938a109.831,109.831,0,0,1-12.613-13.061,4.793,4.793,0,0,1-1.08-4.5c0.081-.521,1.66-2.065-0.094-1.745-1.233.224-2.079,2.725-2.079,2.725a17.4,17.4,0,0,1-2.178-1.976c-0.85-.975-2.3-2.34-3.186-2.1-0.617.169-.893,1.035-0.807,2.178,0.1,1.319.771,3.075,3.388,5.646,1.1,1.085,2.66,1.919,3.769,3.525,3.476,5.03,5.811,9.751,10.536,13.739l0,0.016c0.1,0.091.225,0.173,0.331,0.263,0.176,0.144.33,0.295,0.513,0.437l0.008-.024a21.121,21.121,0,0,0,2.707,1.863c6.167,3.51,14.287,7.291,14.287,7.291,2.017,0.568,3.549.313,3.6-.947A11.97,11.97,0,0,0,280.223,220.866Z" transform="translate(-53.984 -47.034)"/><path class="cls-12" d="M278.129,206.426c0.075,1.616,2.094,2.774,2,3.991a4.251,4.251,0,0,0,.832,3.361c2.056,2.5.593,4.763-.169,5.195a3.658,3.658,0,0,1-2.935.189,3.041,3.041,0,0,0,2.367,1.7,6.047,6.047,0,0,0,2.273-.332s-1.652,2.189-.9,3.6,3.466,1.6,4.166,2.32a2.755,2.755,0,0,1,.71,3.125,7.431,7.431,0,0,0,2.13-2.415,3.669,3.669,0,0,0-.237-2.651s1.539,1.44,2.7,1.278c1.7-.237,1.988-0.8,1.988-0.8s-2.388-.144-2.922-1.852c-0.149-.476.625-1.167,1.609-0.777,2.685,1.063,2.718-.03,3.49.451a3.073,3.073,0,0,1,.8,1.8,3.447,3.447,0,0,0,.568-2.273c-0.237-1.752-3.125-2.888-3.125-2.888s1.885,0.628,2.651-.521c0.663-.994.138-1.708,0.521-2.465,0.995-1.971,3.693.758,3.693,0.758a3.83,3.83,0,0,0-2.954-3.387c-0.919-.3-2.159.265-3.059-0.249-2.974-1.7-.839-5.959-2.509-8.766a5.225,5.225,0,0,0-5.35-2.415,5.661,5.661,0,0,0-3.323-.994C279.75,201.644,278.013,203.916,278.129,206.426Z" transform="translate(-53.984 -47.034)"/><path class="cls-10" d="M348.806,221.946a15.367,15.367,0,0,1,.289-2.167c-0.057.431,1.085,1.368,3.049,1.648,1.988,0.284,4.7.71,5.867,0.994s3.721,1.988,5.639,4.126A5.609,5.609,0,0,0,366,228.3a4.6,4.6,0,0,1-.719.262c-1.285.349-3.272-.308-4.762-0.855-0.217-2.075-2.916-2.563-4.222-3.037s-5.031-.284-7.209-1.234a1.209,1.209,0,0,1-.447-0.343C348.7,222.641,348.756,222.244,348.806,221.946Z" transform="translate(-53.984 -47.034)"/><path class="cls-22" d="M363.649,226.548c-1.918-2.137-4.474-3.842-5.639-4.126s-3.878-.71-5.867-0.994c-1.964-.28-3.106-1.217-3.049-1.648a1.39,1.39,0,0,1,1.132-.79c1.61-.379,3.03.757,4.261,1.136s2.526,0.1,5.556.673a9.7,9.7,0,0,1,6.685,4.062c1.325,1.871.386,2.925-.727,3.441A5.609,5.609,0,0,1,363.649,226.548Z" transform="translate(-53.984 -47.034)"/><path class="cls-20" d="M363.649,226.548a15.082,15.082,0,0,0-5.414-3.454,24.3,24.3,0,0,0-6.091-1.666c-1.964-.28-3.106-1.217-3.049-1.648a1.39,1.39,0,0,1,1.132-.79c1.61-.379,3.03.757,4.261,1.136s2.526,0.1,5.556.673a9.7,9.7,0,0,1,6.685,4.062c1.325,1.871.386,2.925-.727,3.441A5.609,5.609,0,0,1,363.649,226.548Z" transform="translate(-53.984 -47.034)"/><path class="cls-20" d="M304.02,233.352s-2.414,2.245-4.068,3.9a8.766,8.766,0,0,1-2.949,2.1,10.4,10.4,0,0,1,2.263-3.072C302.008,233.705,304.02,233.352,304.02,233.352Z" transform="translate(-53.984 -47.034)"/><path class="cls-20" d="M300.511,233.352A24.581,24.581,0,0,1,297,235.023a7.853,7.853,0,0,1-2.832.452A22.711,22.711,0,0,1,297,234.21,26.789,26.789,0,0,1,300.511,233.352Z" transform="translate(-53.984 -47.034)"/><path class="cls-15" d="M277.695,210.84a9.087,9.087,0,0,0,2.529,4.832,2.429,2.429,0,0,0,3.694-2.183,6.93,6.93,0,0,0-2.893-5.528C279.426,207.038,277.684,208.709,277.695,210.84Z" transform="translate(-53.984 -47.034)"/><path class="cls-11" d="M277.695,210.84a6.058,6.058,0,0,0,2.529,4.832c1.4,0.8,2.529-.049,2.529-1.912a6.057,6.057,0,0,0-2.529-4.832C278.827,208.121,277.685,208.977,277.695,210.84Z" transform="translate(-53.984 -47.034)"/><path class="cls-8" d="M277.856,211.463a4.42,4.42,0,0,0,1.845,3.526c1.021,0.585,1.845-.036,1.845-1.395a4.419,4.419,0,0,0-1.845-3.525C278.682,209.48,277.849,210.1,277.856,211.463Z" transform="translate(-53.984 -47.034)"/><path class="cls-11" d="M284.586,202.612c-1.512,1.132-2.2,1.711-3.04,1.316a0.86,0.86,0,0,1-.489-0.571c-1.61,2.078-1.536,5.934-1.536,5.934l2.025,1.349a25.03,25.03,0,0,1,.607-4.8c0.461-1.25,1.84-2.328,3.783-3.015a4.759,4.759,0,0,1,3.715,0,2.984,2.984,0,0,0-.481-0.752A5.175,5.175,0,0,0,284.586,202.612Z" transform="translate(-53.984 -47.034)"/><path class="cls-8" d="M288.4,201.4c-1.328-.84-4.738-0.43-6.858,1.425a3.777,3.777,0,0,0-.489.535,0.86,0.86,0,0,0,.489.571c0.837,0.395,1.528-.184,3.04-1.316a5.175,5.175,0,0,1,4.584-.542A3.265,3.265,0,0,0,288.4,201.4Z" transform="translate(-53.984 -47.034)"/><path class="cls-16" d="M95.89,212.749a38.007,38.007,0,0,0-6.235,7.98c-2.062,3.952-3.361,6.208-4.554,8.334a5.63,5.63,0,0,0-.344,3.866c0.511,2.078,2.03,2.888,3.452,4.3,1.968,1.949,8.459,5.289,8.459,5.289l3.379-4-9.191-7.3s7.437-5.147,8.879-9.942S98.945,212.083,95.89,212.749Z" transform="translate(-53.984 -47.034)"/><path class="cls-23" d="M64.688,288.758c-0.843,1.111.822,2.723,3.46,4.76s4.006,2.062,4.847,1.142,0.535-3.692-1.894-5.588S65.952,287.092,64.688,288.758Z" transform="translate(-53.984 -47.034)"/><path class="cls-23" d="M79.479,299.366c-0.843,1.111.822,2.723,3.459,4.76s4.006,2.062,4.847,1.142,0.535-3.692-1.894-5.587S80.743,297.7,79.479,299.366Z" transform="translate(-53.984 -47.034)"/><path class="cls-14" d="M68.55,287.943c-1.127-.314-2.727,1.848-4.366,3.671-1.122,1.249-.641,2.436.034,3.541l0.494,0.809a17.013,17.013,0,0,0-2.351,4.842c-0.705,2.586-.661,4.226.625,5.929,0.866,1.147,2.735.843,3.837-.955,1.479-2.414,5.883-12.191,5.883-12.191S74.675,289.649,68.55,287.943Z" transform="translate(-53.984 -47.034)"/><path class="cls-14" d="M82.92,299.106c-1.127-.314-2.727,1.848-4.366,3.671-1.122,1.249-.641,2.436.034,3.541l0.494,0.809a17.014,17.014,0,0,0-2.351,4.842c-0.705,2.586-.661,4.226.625,5.929,0.866,1.147,2.736.843,3.838-.955,1.479-2.414,5.883-12.191,5.883-12.191S89.045,300.813,82.92,299.106Z" transform="translate(-53.984 -47.034)"/><path class="cls-4" d="M103.57,214.108s-1.619-2.357-3.763-2.815c-3.722-.8-5.6,1.257-7.334,3.943S88.21,221.5,88.21,221.5s2.132,5.143,6.639,5.13C98.62,226.053,103.57,214.108,103.57,214.108Z" transform="translate(-53.984 -47.034)"/><path class="cls-15" d="M90.407,242.514a39.729,39.729,0,0,0-3.8,6.766c-1.228,2.7-1.81,7.938-3.959,12.667-1.644,3.616-2.731,7.118-5.162,9.707a88.317,88.317,0,0,0-8.162,10.576c-2.958,4.235-4.637,6.528-4.637,6.528s3.77-.166,5.57,1.216a9.368,9.368,0,0,1,2.736,4.686s7.508-8.185,10.69-12.072c1.571-1.919,4.419-5.369,6.042-7.467a36.578,36.578,0,0,0,4.651-7.683c2.721-6.12,6.141-15.4,6.141-15.4Z" transform="translate(-53.984 -47.034)"/><path class="cls-11" d="M93.008,248.473s-1.718,1.888-1.874,6.216a15.254,15.254,0,0,0,1.726,7.267s1.087,8.606.017,13.8c-2.623,3.7-3.6,3.515-7.121,10.328-3.259,6.3-6.277,13.281-6.277,13.281s3.69,0.5,5.159,1.39a8.752,8.752,0,0,1,3.244,4.442s10.6-15.507,12.672-19.311c4.37-8.022,5.745-8.807,6.8-15.579,1.651-10.627,3.775-18.094,3.941-21.38S93.008,248.473,93.008,248.473Z" transform="translate(-53.984 -47.034)"/><path class="cls-6" d="M100.953,212.185s-3.083-.038-4.245.973c-2.449,2.13-3.438,5.95-3.946,9.976s-0.083,7.981-.1,11.711-2.875,7.45-4.447,10.561c-0.037,5.243,6.85,7.481,10.762,8.629,5.507,1.615,11.545.38,13.086-2.2-0.054-2.679-.361-7.91.06-11a85.948,85.948,0,0,0,1.253-11.1c0.032-3.831.609-8.186-1.963-10.6a13.394,13.394,0,0,0-4.186-2.44A20.181,20.181,0,0,1,100.953,212.185Z" transform="translate(-53.984 -47.034)"/><path class="cls-16" d="M100.195,207.531s0.35,5.2-.629,6.335-0.012,2.212,2.395,2.608c2.762,0.455,4.777.874,6.078,0.06-0.375-.823-0.78-6.385-0.78-6.385Z" transform="translate(-53.984 -47.034)"/><path class="cls-13" d="M97.9,200.758a6.22,6.22,0,0,1,10.145-1.492c4.537,4.286,2.694,12.855-.668,13.428a9.572,9.572,0,0,1-7.364-2.893C97.477,207.183,96.934,202.779,97.9,200.758Z" transform="translate(-53.984 -47.034)"/><path class="cls-14" d="M110.629,198.272a7.432,7.432,0,0,1-4.035,4.75,3.414,3.414,0,0,0,.444,2.957,1.228,1.228,0,0,1-.684.556c-0.745-1.071-2.144-1.675-2.669-.484-0.473,1.074.175,1.85,1.106,2.982,0.678,3.184-3.807,5.083-3.807,5.083a50.17,50.17,0,0,0-3.938-5.274c-1.892-2.1-2.523-6.685.3-8.77a5.236,5.236,0,0,1,7.133-4.016c1.485,0.574,2.341,1.171,3.344,1.6A6.839,6.839,0,0,0,110.629,198.272Z" transform="translate(-53.984 -47.034)"/><path class="cls-13" d="M115.827,218.408s8.377-3.284,10.954-4.018,10.564-6.659,13.274-8.315c2.642-1.614,2.366-2.757,3.673-3.89,1.418-1.229,1.933-1.5,1.546-.318-0.36,1.1-.962,2.425,0,2.08s1.777-1.376,4.831-1.5,2.346,3.119-.208,4.791c-2.995,1.961-5.383,1.368-6.543,1.5s-6.91,6.791-10.648,9.678-15.207,6.334-15.207,6.334Z" transform="translate(-53.984 -47.034)"/><path class="cls-4" d="M120.66,225.254c1.047-3.314.639-6.949-1.869-9.15-7.062.777-11.38,1.8-12.5,4.64-1.368,3.46-.821,8.122,4.455,7.891C113.368,228.52,118.786,226.306,120.66,225.254Z" transform="translate(-53.984 -47.034)"/><path class="cls-4" d="M109.694,245.156a19.377,19.377,0,0,1-5.092.8c-2.154-.083-4.479-0.436-4.479-0.436a5.772,5.772,0,0,0,4.472,1.771A8.664,8.664,0,0,0,109.694,245.156Z" transform="translate(-53.984 -47.034)"/><path class="cls-4" d="M101.606,241.749a12.915,12.915,0,0,0,3.884,1.438,28.233,28.233,0,0,0,4.213.494,12.694,12.694,0,0,0-4.043-1.91A8.746,8.746,0,0,0,101.606,241.749Z" transform="translate(-53.984 -47.034)"/><path class="cls-4" d="M100.037,212.713a4.347,4.347,0,0,0-1.393,2.136c-0.332,1.312,1.792,2.945,4.292,3.175a50.624,50.624,0,0,0,6.789-.139,3.063,3.063,0,0,0-2.869-2.439c-2.593-.333-4.971-0.289-5.994-1.04A1.765,1.765,0,0,1,100.037,212.713Z" transform="translate(-53.984 -47.034)"/><path class="cls-14" d="M104.713,124.426c-0.566-1.866-2.061-3.065-3.339-2.677l-0.571.178,0.046,0.1a4.1,4.1,0,0,0,1.976,6.537l0.053,0.1,0.714-.242C104.745,127.931,105.252,126.2,104.713,124.426Z" transform="translate(-53.984 -47.034)"/><ellipse class="cls-9" cx="101.94" cy="125.267" rx="2.419" ry="3.531" transform="translate(-85.936 -12.081) rotate(-16.861)"/><ellipse class="cls-8" cx="101.578" cy="125.776" rx="2.991" ry="4.365" transform="matrix(0.957, -0.29, 0.29, 0.957, -86.099, -12.164)"/><path class="cls-13" d="M62.846,197.169a13.265,13.265,0,0,0-1.178,1.6c-0.575.92-.464,3.519,0.863,5.818s1.437,3.622.058,4.2c-0.773.322-2.242,0.632-3.967-1.9s-2.357-4.542-3.162-5.692-1.61-2.394.46-3.957a16.6,16.6,0,0,0,3.162-3.057Z" transform="translate(-53.984 -47.034)"/><path class="cls-13" d="M124.025,136.844c1.829-.358,4.142-1.99,5.662-2.793a9.432,9.432,0,0,1,2.841-1.109c0.529-.09.463,0.967,0,1.363s-1.388.315-1.718,0.983,0.727,0.47,1.388.4,2.181-.991,4.361-0.4c1.665,0.448,2.643,1.132,1.784,2.056-0.72.775-1.322,1.586-4.229,1.784a54.455,54.455,0,0,0-6.938.789c-0.583.137-4.093,1.043-4.093,1.043S122.064,139.119,124.025,136.844Z" transform="translate(-53.984 -47.034)"/><path class="cls-20" d="M91.826,127.2s-4.193-2.282-7.137.441c-2.2,2.032-6.079,1.762-6.784-.881s-3.612-2.467-3.612-2.467a3.582,3.582,0,0,1,1.674,3.084c-0.264,4.587.636,7.7,5.041,7.7,3.554,0,4.2-3.97,5.9-5.262,2.819-2.136,4.915-.925,4.915-0.925V127.2Z" transform="translate(-53.984 -47.034)"/><path class="cls-24" d="M97.542,131.971c1.171-.1,3.847,1.831,7.069,3.625a23.9,23.9,0,0,0,6,2.632c1.024,0.219,9.424-.9,13.413-1.384a3.383,3.383,0,0,0,1.1,3.607c-4.421.969-10.529,3.361-12.783,3.855-2.213.485-5.345-.176-7.9-0.969s-9.633-3.7-9.633-3.7S91.639,132.5,97.542,131.971Z" transform="translate(-53.984 -47.034)"/><path class="cls-14" d="M55.61,197.49s0.08,0.736.082,1.531a4.284,4.284,0,0,0,.482,2.109c0.668,0.979,3.055,4.077,4.191,4.434,1.859,0.585,2.353-.643,2.353-0.643a14.432,14.432,0,0,1,1.68,3.569c0.51,1.609-2.6,2.117-4.371.507s-2.528-3.845-3.13-5.07-1.675-1.764-2.088-2.339-1.273-2.133-.536-2.881A15.785,15.785,0,0,1,55.61,197.49Z" transform="translate(-53.984 -47.034)"/><path class="cls-13" d="M79.759,193.754a13.253,13.253,0,0,0-.971,1.733c-0.456.984-.025,3.549,1.577,5.667s1.875,3.416.577,4.158c-0.727.415-2.147,0.905-4.171-1.391s-2.9-4.215-3.843-5.256-1.894-2.176-.034-3.983a16.6,16.6,0,0,0,2.759-3.425Z" transform="translate(-53.984 -47.034)"/><path class="cls-14" d="M72.619,194.967s0.171,0.721.271,1.51a4.284,4.284,0,0,0,.74,2.033c0.784,0.889,3.537,3.667,4.708,3.881,1.917,0.35,2.255-.929,2.255-0.929a14.436,14.436,0,0,1,2.109,3.333c0.706,1.534-2.317,2.422-4.275,1.045s-2.985-3.5-3.734-4.643-1.88-1.543-2.362-2.062-1.527-1.959-.888-2.792A15.8,15.8,0,0,1,72.619,194.967Z" transform="translate(-53.984 -47.034)"/><path class="cls-15" d="M74.766,192.428c1.435-2.336,4.759-7.684,6.6-10.086,2.272-2.972,6.986-5.329,6.986-5.329s-0.923-1.561-1.15-1.97c-1.721-3.094-6.01-6.373-7.525-11.947a15.844,15.844,0,0,1,0-8.192l11.535-.812a76.432,76.432,0,0,0,3.141,9.761c2.525,6.763,3.181,11.927,3.06,15.248-0.055,1.5-2.087,2.742-2.489,3.029-1.538,1.1-4.345,3.346-7.16,5.445a97.218,97.218,0,0,0-8.5,7.112C77.7,195.57,75.092,193.971,74.766,192.428Z" transform="translate(-53.984 -47.034)"/><path class="cls-16" d="M96.518,131.7a6.158,6.158,0,0,0,.2,3.28c0.587,2.1,1.734,2.739-.26,5.066s-9.109,3-9.637.119c-0.26-1.417-1.037-5.583.155-6.114a6.474,6.474,0,0,0,4-4.066C92.554,125.849,96.518,131.7,96.518,131.7Z" transform="translate(-53.984 -47.034)"/><path class="cls-11" d="M62.078,198.085c-1.252.725-3.987-.79-3.587-3.357,1.42-1.386,5.934-8.206,13.319-11.3,1.2-.5,2.87-0.689,3.85-1.088-0.182-.794-0.934-3.58-1.115-4.468-2.31-11.3-3.114-13.907,1.936-21.4,2.632-3.9,11.506,0,11.506,2.841,0,3.345-.14,9.09-2.5,9.407-0.143,3.053-.241,6.525-0.1,8.779a30.986,30.986,0,0,1-.554,8.635c-0.49,1.964-3.638,3.068-4.574,3.394C77.188,190.6,69.158,192.709,62.078,198.085Z" transform="translate(-53.984 -47.034)"/><path class="cls-9" d="M88.9,132.942c3.062,2.905,3.564,6.518,6.031,6.253,2.218-.238.607-4.963,0.607-4.963s1.892-.48,2.05.392c0.619,3.426,1.1,4.132,1.749,6.862,0.969,4.053-1.383,5.22-2.467,5.927-2.56,1.67-2.549,2.491-3.458,5a22.367,22.367,0,0,0-.526,7.333c-1.978,4.026-13.817,5.146-17.712-2.707,1.293-2.606,3.727-4.822,5.214-6.657a8.488,8.488,0,0,0,2.253-6.162c-0.286-5.58.416-7,1.63-8.194A25.358,25.358,0,0,1,88.9,132.942Z" transform="translate(-53.984 -47.034)"/><path class="cls-13" d="M92.789,121.538a5.543,5.543,0,0,1,8.792,2.492c2.123,5.141-2.276,11.93-4.86,10.95-1.447-.549-4.379-1.893-5.36-4.606C90.257,127.319,91.266,122.828,92.789,121.538Z" transform="translate(-53.984 -47.034)"/><path class="cls-10" d="M97.843,125.27s-3.327,3.849-6.866,4.714c-1.667-3.759-1.993-4.8-1.2-7.175a3.978,3.978,0,0,1,3.771-2.687s2.883-3.217,6.959-.287c5.919,4.256,1.389,9.283,1.389,9.283S101.691,126.634,97.843,125.27Z" transform="translate(-53.984 -47.034)"/><path class="cls-13" d="M93.96,129.443a4.62,4.62,0,0,0-.825-0.892c-0.367-.282-1.067-0.365-1.267.7a1.789,1.789,0,0,0,.889,2Z" transform="translate(-53.984 -47.034)"/><path class="cls-24" d="M81.625,136.024a9.229,9.229,0,0,1,5.353-1.973c1.908,0,2.388,5.937.686,8.563-0.6.92-2.76,2.151-5.227,3.939a11.159,11.159,0,0,0-2.454,2.05,21.261,21.261,0,0,0,1.818,2.575,13.52,13.52,0,0,0,4.858,3.433c-1.063.268-1.367,1.761-.752,3.534-2.209-.341-2.165-0.688-7.63-2.166a12.285,12.285,0,0,1-5.749-2.874,8.441,8.441,0,0,1-1.476-2.456c-0.758-1.761-.078-2.982,3.316-7.225S79.532,137.552,81.625,136.024Z" transform="translate(-53.984 -47.034)"/><ellipse class="cls-8" cx="93.071" cy="128.669" rx="2.991" ry="4.365" transform="translate(-87.304 -14.507) rotate(-16.861)"/><ellipse class="cls-1" cx="92.411" cy="128.815" rx="2.673" ry="3.901" transform="matrix(0.957, -0.29, 0.29, 0.957, -87.376, -14.69)"/><path class="cls-14" d="M94.46,128.248c-0.566-1.866-2.061-3.065-3.339-2.677l-0.571.178,0.046,0.1a4.1,4.1,0,0,0,1.976,6.537l0.052,0.1,0.714-.242C94.491,131.753,95,130.026,94.46,128.248Z" transform="translate(-53.984 -47.034)"/><ellipse class="cls-9" cx="91.686" cy="129.089" rx="2.419" ry="3.531" transform="translate(-87.485 -14.891) rotate(-16.861)"/><path class="cls-8" d="M101.68,119.31c-0.367-1.438-1.767-1.978-4.768-1.69-2.806.269-5.746,1.972-5.831,3.045-0.061.758,0.025,2.868,0.077,4.156a5.564,5.564,0,0,1,2.948.446,23.319,23.319,0,0,1-.372-4.178c0.127-.962,2.065-1.4,3.412-1.651,1.8-.338,2.345-0.14,2.6.1a19.649,19.649,0,0,1,2.307,1.669S101.884,120.107,101.68,119.31Z" transform="translate(-53.984 -47.034)"/><polygon class="cls-20" points="34.298 93.874 41.451 100.531 36.505 105.091 29.282 98.938 34.298 93.874"/><polygon class="cls-10" points="34.231 94.281 41.384 100.938 36.438 105.499 29.215 99.345 34.231 94.281"/><polygon class="cls-25" points="41.384 100.938 41.451 100.531 34.298 93.874 34.231 94.281 41.384 100.938"/><path class="cls-7" d="M79.3,149.808l6.064-6.223,7.988,7.434-1.269,1.251a8.266,8.266,0,0,1-4.829,2.576c-1.7.072-3.224-1.038-4.615-2.215Z" transform="translate(-53.984 -47.034)"/><polygon class="cls-8" points="31.379 96.551 32.063 95.345 40.051 102.779 39.367 103.985 31.379 96.551"/><polygon class="cls-1" points="31.506 96.302 31.922 95.569 39.678 102.731 39.261 103.465 31.506 96.302"/><polygon class="cls-7" points="25.315 102.774 25.998 101.569 32.063 95.345 31.379 96.551 25.315 102.774"/><polygon class="cls-1" points="30.845 98.195 31.253 97.788 38.227 104.278 37.854 104.619 30.845 98.195"/><path class="cls-1" d="M79.835,150.286l4.443-4.439,6.973,6.49L89.026,154.4a3.169,3.169,0,0,1-2.681.37,8.8,8.8,0,0,1-3.5-1.967Z" transform="translate(-53.984 -47.034)"/><polygon class="cls-6" points="31.922 95.569 25.872 101.792 25.439 102.555 31.506 96.302 31.922 95.569"/><path class="cls-13" d="M85.363,158.145s2.5,1.35,4.6,0c1.993-1.278,1.781-2.578,1.285-3.663l-0.5-1.085s-1.863,1.385-2.98,1.3a16.914,16.914,0,0,0-1.869-.052,2.2,2.2,0,0,0-.751,1.856A5.131,5.131,0,0,0,85.363,158.145Z" transform="translate(-53.984 -47.034)"/><path class="cls-13" d="M183.165,93.069c5.31,0.3,9.661,2.686,11.972,3.465a37.03,37.03,0,0,1,6.975,2.89,11.521,11.521,0,0,1,4.208,4.408,62.3,62.3,0,0,1,3.666,7.521,14,14,0,0,1,1.075,5.618c0.138,3.374-1.52,5.2-3.339,4.7-2.223-.617-1.674-7.145-1.994-9.356s-5.062-5.616-6.443-7.372c-3.134-.885-11.546-1.107-15.138-2.817C180.517,99.491,183.165,93.069,183.165,93.069Z" transform="translate(-53.984 -47.034)"/><path class="cls-14" d="M138.251,53.1V47.642a6.993,6.993,0,0,0-2.915-.608,3.787,3.787,0,0,0-2.318.968,29.712,29.712,0,0,0-3.509-.413c-1.131,0-4.264,1.085-4.983,2.086a1.091,1.091,0,0,0,.841,1.841c1.91,0.2,6.483,2.535,6.431,2.561Z" transform="translate(-53.984 -47.034)"/><path class="cls-14" d="M118.979,57.7a30.627,30.627,0,0,0-2.773-4.351c-0.987-1.031-4.865.719-5.273,1.957a9.855,9.855,0,0,1,.606,1.2,13.019,13.019,0,0,0-3.813,2.794,5.859,5.859,0,0,0-1.263,5.968c0.54,1.625,2.424.153,4.491-.919s5.185-2.83,5.185-2.83Z" transform="translate(-53.984 -47.034)"/><path class="cls-15" d="M165.249,86.434a27.309,27.309,0,0,0-4.621-5.941c-1.992-1.831-3.54-3.413-6.87-3.867-2.846-.387-10.25-2.5-12.305-4-0.964-6.637-2.8-18.356-2.893-20.161-2.672-1.891-6.827.177-7.864,1.041,0,3.157,1,10.993,1.515,15.183,0.4,3.222.5,5.084,0.974,7.572,0.285,1.5,1.522,2.194,3.044,3.43,3.574,2.9,5.169,5.4,8.013,7.05s8.976,4.813,8.976,4.813Z" transform="translate(-53.984 -47.034)"/><path class="cls-11" d="M149.031,80.857c-1.542-.838-4.358-0.248-5.905.289a75.629,75.629,0,0,1-13.5-4.308,33.767,33.767,0,0,0-4.279-10.206c-1.932-3.029-4.651-7.088-6.23-9.492-3.336.366-5.335,1.13-6.558,4.708C112.793,62.393,122.147,82,123.841,84.4a8.853,8.853,0,0,0,2.665,2.149A108.8,108.8,0,0,0,139.144,94c7.319,3.519,12.2,5.421,12.2,5.421l8.612-9.531A34.5,34.5,0,0,0,149.031,80.857Z" transform="translate(-53.984 -47.034)"/><path class="cls-9" d="M189.029,95.219c-1.722-1.53-2.761-2.591-8.875-4.47-2.586-.795-7.919-2.32-11.111-4.273-3.727-2.28-6.519-4.682-8.415-5.983a17.951,17.951,0,0,0-13.477,6.443c-1.9,2.309-2.551,7.324-2.636,9.971,0.977,0.407,5.94,2.311,6.99,2.754,7.86,3.322,12.016,10.548,20.275,11.589,6.613,0.834,17.481-3.524,18.329-8.207S190.581,96.6,189.029,95.219Z" transform="translate(-53.984 -47.034)"/><path class="cls-16" d="M180.22,100.382s-3.221.969-3.813,1.256,0.132,1.716.46,3.3,0.46,3.706.723,4.355a2.1,2.1,0,0,0,2.63.97c1.315-.452,3.353-0.978,4.339-1.964s0.67-5.754.67-5.754S181.8,100.352,180.22,100.382Z" transform="translate(-53.984 -47.034)"/><path class="cls-13" d="M162.549,103.829c-1.395,4.933.775,8.418,2.128,13.349,0.871,3.173.573,4.609,2.478,5.966,3.605,2.568,14.327,5.264,16.954,6.631s4.33-1.225,8.076-.041,5.608-.383,5.158-1.517c-0.651-1.639-3.935-5.481-6.791-4.5s-4.754,1.377-6.256.821c-1.353-.5-8.349-4.4-11.176-6.048-0.788-1.95-.017-11.816-1.446-14.6C169.372,99.424,163.906,99.027,162.549,103.829Z" transform="translate(-53.984 -47.034)"/><path class="cls-24" d="M149.78,95.328a8.816,8.816,0,0,1,2.1-5.259,12.5,12.5,0,0,1,3.682-2.8s-2.487,2.677-3.3,3.793S149.78,95.328,149.78,95.328Z" transform="translate(-53.984 -47.034)"/><path class="cls-24" d="M154.076,90.595a7.214,7.214,0,0,0-1.841,3.386,6.935,6.935,0,0,0,0,3.364,19.783,19.783,0,0,1,.823-3.448C153.637,92.26,154.076,90.595,154.076,90.595Z" transform="translate(-53.984 -47.034)"/><path class="cls-14" d="M192.021,99.831c-0.546-1.8-1.99-2.959-3.224-2.585l-0.551.172,0.045,0.1a3.955,3.955,0,0,0,1.908,6.312l0.051,0.1,0.689-.233C192.052,103.215,192.541,101.547,192.021,99.831Z" transform="translate(-53.984 -47.034)"/><ellipse class="cls-9" cx="189.343" cy="100.642" rx="2.336" ry="3.409" transform="translate(-75.036 12.21) rotate(-16.861)"/><ellipse class="cls-8" cx="188.994" cy="101.134" rx="2.888" ry="4.215" transform="translate(-75.194 12.134) rotate(-16.862)"/><path class="cls-13" d="M190.426,99c0.459,1.981,1.046,3.706-.468,6.965-1.642,3.534-3.486,4.532-6.044,3.39-2.134-.953-3.12-2.509-4.14-4.533a9.829,9.829,0,0,1-.425-7.882C180.457,93.779,188.911,92.462,190.426,99Z" transform="translate(-53.984 -47.034)"/><path class="cls-14" d="M186.622,94.122a3.7,3.7,0,0,1,2.338.647,1.992,1.992,0,0,1,.76,1.279,1.627,1.627,0,0,1,1.925.144,1.684,1.684,0,0,1-.036,1.551s1.229,1.132.224,1.955a1.876,1.876,0,0,1-1.76.131,0.9,0.9,0,0,1-.442,1.162,1.937,1.937,0,0,1-2-.173,1.117,1.117,0,0,1-.743,1.339,2.222,2.222,0,0,1-1.669-.327,2.3,2.3,0,0,1-.464,1.827,5.993,5.993,0,0,1-1.775,1.6l-4.674-1.21s-1.417-2.137-1.356-3.051a1.751,1.751,0,0,1,.491-1.254s-0.5-.138-0.493-1.238a1.519,1.519,0,0,1,.783-1.148,1.559,1.559,0,0,1-.194-1.674,1.677,1.677,0,0,1,1.435-.957,2.144,2.144,0,0,1,.86-1.674,1.3,1.3,0,0,1,1.508.072s0.239-1.243,2.152-.98a3.057,3.057,0,0,1,1.542,1.267Z" transform="translate(-53.984 -47.034)"/><ellipse class="cls-8" cx="181.07" cy="103.206" rx="2.888" ry="4.215" transform="translate(-76.135 9.923) rotate(-16.861)"/><ellipse class="cls-1" cx="180.432" cy="103.347" rx="2.581" ry="3.766" transform="translate(-76.203 9.742) rotate(-16.861)"/><path class="cls-14" d="M182.41,102.8c-0.546-1.8-1.99-2.959-3.224-2.585l-0.551.172,0.045,0.1a3.955,3.955,0,0,0,1.908,6.312l0.051,0.1,0.689-.233C182.441,106.184,182.931,104.516,182.41,102.8Z" transform="translate(-53.984 -47.034)"/><ellipse class="cls-9" cx="179.733" cy="103.611" rx="2.336" ry="3.409" transform="translate(-76.311 9.556) rotate(-16.862)"/><path class="cls-8" d="M189.382,94.169c-0.355-1.389-1.706-1.91-4.6-1.632-2.709.26-5.548,1.9-5.631,2.94-0.058.731,0.024,2.769,0.074,4.013a5.372,5.372,0,0,1,2.846.431,22.524,22.524,0,0,1-.359-4.034c0.123-.929,1.993-1.349,3.295-1.594,1.737-.327,2.264-0.135,2.511.1,1.333,0.26,1.889.639,2.117,1.32A9.862,9.862,0,0,0,189.382,94.169Z" transform="translate(-53.984 -47.034)"/></svg>