<svg xmlns="http://www.w3.org/2000/svg" viewBox="0 0 340.14 233.28"><defs><style>.cls-1{isolation:isolate;}.cls-13,.cls-15,.cls-17,.cls-2{fill:#fff;}.cls-3{fill:#d1ebff;}.cls-4{fill:#92b4d1;opacity:0.2;}.cls-5{fill:#a8cff0;}.cls-6{fill:#72b5e8;}.cls-7{fill:#084c94;}.cls-8{fill:#001a46;}.cls-9{fill:#2672ab;}.cls-10{fill:#03336e;}.cls-11,.cls-16{fill:#3f92d1;}.cls-12{fill:#4f9fdb;}.cls-13{mix-blend-mode:screen;}.cls-14,.cls-15{mix-blend-mode:color-dodge;}.cls-16{opacity:0.5;}.cls-17{opacity:0.3;}.cls-18{fill:#022652;}.cls-19{fill:#0fbab8;}.cls-20{fill:#eb4680;}</style></defs><title>header-illustration-1</title><g class="cls-1"><g id="Layer_2" data-name="Layer 2"><ellipse class="cls-2" cx="170.07" cy="123.18" rx="170.07" ry="110.1"/><path class="cls-3" d="M176.16,235.32c-37,0-71.9-8.36-98.19-23.54S37,176.2,37,154.57c0-21.43,14.34-41.52,40.4-56.56,25.89-15,60.37-23.19,97.07-23.19,37,0,71.9,8.36,98.19,23.54,26.44,15.27,41,35.59,41,57.21,0,21.43-14.35,41.52-40.4,56.56C247.34,227.08,212.86,235.32,176.16,235.32Zm-1.72-158.7c-36.39,0-70.55,8.15-96.17,22.95s-39.5,34.24-39.5,55c0,21,14.24,40.72,40.1,55.65,26,15,60.58,23.3,97.29,23.3,36.39,0,70.55-8.15,96.18-23,25.47-14.7,39.5-34.24,39.5-55,0-21-14.25-40.72-40.11-55.65C245.71,84.9,211.16,76.62,174.44,76.62Z" transform="translate(-2.86 -40.06)"/><polygon class="cls-2" points="229.66 66.6 239.26 45.67 275.51 40.13 302.14 55.51 292.54 76.43 256.3 81.98 229.66 66.6"/><path class="cls-3" d="M259,123,231.36,107l10.15-22.11,37-5.67,27.62,16L296,117.31Zm-25.3-16.68,25.65,14.81,35.45-5.42,9.06-19.74L278.19,81.13l-35.45,5.42Z" transform="translate(-2.86 -40.06)"/><polygon class="cls-2" points="43.31 174.19 52.92 153.26 89.16 147.72 115.8 163.09 106.19 184.02 69.95 189.56 43.31 174.19"/><path class="cls-3" d="M72.63,230.56,45,214.62l10.15-22.11,37-5.67,27.62,15.95L109.66,224.9Zm-25.3-16.68L73,228.69l35.45-5.43,9.06-19.74L91.84,188.71l-35.45,5.43Z" transform="translate(-2.86 -40.06)"/><polygon class="cls-2" points="272.33 104.19 304.79 93.41 337.37 104.3 337.49 125.98 305.02 136.77 272.45 125.87 272.33 104.19"/><path class="cls-3" d="M307.88,177.77l-33.47-11.19-.13-23,33.37-11.08,33.47,11.2.13,23ZM276.2,165.28l31.68,10.6,31.56-10.48L339.33,145l-31.68-10.6L276.09,144.9Z" transform="translate(-2.86 -40.06)"/><polygon class="cls-2" points="7.97 103.71 40.43 92.93 73.01 103.83 73.13 125.51 40.66 136.29 8.08 125.39 7.97 103.71"/><path class="cls-3" d="M43.52,177.3,10.05,166.1l-.13-23L43.29,132l33.47,11.2.13,23ZM11.84,164.8l31.68,10.6,31.56-10.48L75,144.54l-31.68-10.6L11.73,144.42Z" transform="translate(-2.86 -40.06)"/><polygon class="cls-2" points="88.8 81.67 52.5 76 42.67 55.04 69.14 39.76 105.44 45.43 115.27 66.39 88.8 81.67"/><path class="cls-3" d="M91.83,122.67l-37.09-5.8L44.36,94.73,71.82,78.88l37.09,5.8,10.38,22.14ZM56,115.24l35.51,5.56L117,106.09l-9.28-19.78L72.17,80.75,46.69,95.46Z" transform="translate(-2.86 -40.06)"/><polygon class="cls-2" points="276.32 189.94 240.02 184.26 230.18 163.3 256.65 148.02 292.95 153.7 302.79 174.66 276.32 189.94"/><path class="cls-3" d="M279.35,230.94l-37.09-5.8L231.88,203l27.46-15.86,37.08,5.8,10.39,22.14Zm-35.87-7.43L279,229.06l25.48-14.71-9.28-19.78L259.69,189l-25.48,14.71Z" transform="translate(-2.86 -40.06)"/><polygon class="cls-2" points="153.64 57.27 134.76 38.46 153.44 19.72 190.99 19.79 209.87 38.6 191.19 57.34 153.64 57.27"/><path class="cls-3" d="M194.42,98.3l-38.3-.07-19.77-19.7,19.57-19.65,38.3.07L214,78.66Zm-37.55-1.86,36.81.06,17.77-17.84-18-17.91-36.8-.07L138.89,78.52Z" transform="translate(-2.86 -40.06)"/><polygon class="cls-2" points="154.47 209.9 135.59 191.09 154.26 172.35 191.81 172.42 210.69 191.23 192.02 209.97 154.47 209.9"/><path class="cls-3" d="M195.25,250.93l-38.3-.07-19.77-19.7,19.57-19.65,38.3.07,19.77,19.71Zm-37.55-1.87,36.8.07,17.78-17.84-18-17.91-36.81-.07-17.77,17.84Z" transform="translate(-2.86 -40.06)"/><path class="cls-4" d="M321.65,161.14c-3.63,2.91-16.09,4.57-16.09,4.57s-1.1-8.33,2.52-11.24,6.85-1.13,10.6.71S325.27,158.23,321.65,161.14Z" transform="translate(-2.86 -40.06)"/><path class="cls-5" d="M322.51,132.47c-6.07-3.43-12-9.28-17-16.74l-.07,0c-5,1.72-10.89.73-17-2.84l-.23-.14.32,11.33c1.15,17.56,7.14,25.2,16.78,41.52l.23.14c9.64-5.2,15.63-5.92,16.78-22.15l.33-11Z" transform="translate(-2.86 -40.06)"/><path class="cls-3" d="M325.93,129.86c-6.07-3.43-12-9.28-17-16.73l-.07,0c-5,1.72-10.89.72-16.95-2.85l-.24-.13-3.35,2.64.17.1c6.06,3.57,12,4.56,17,2.84l.07,0c5,7.46,10.89,13.31,17,16.74l.23.13-.33,11c-.75,10.59-3.56,14.58-8.11,17.51,5.68-3.35,10.69-8.21,11.53-20.12l.33-10.95Z" transform="translate(-2.86 -40.06)"/><path class="cls-3" d="M326.16,130l-.23-.13c-6.07-3.43-12-9.28-17-16.73l-.07,0-3.42,2.6.07,0c5,7.46,10.89,13.31,17,16.74l.23.13Z" transform="translate(-2.86 -40.06)"/><path class="cls-6" d="M322.74,132.6l-.33,11c-.75,10.59-3.56,14.58-8.11,17.51,5.68-3.35,10.69-8.21,11.53-20.12l.33-10.95Z" transform="translate(-2.86 -40.06)"/><path class="cls-7" d="M304.41,157.2c-6.92-11.47-10.4-17.24-11.23-29.84l-.2-6.6a20.72,20.72,0,0,0,12.54,1.88,55.82,55.82,0,0,0,12.53,12.59l-.19,6.38c-.84,11.63-4.32,13.38-11.24,16.87l-1.1.56Z" transform="translate(-2.86 -40.06)"/><path class="cls-8" d="M307.19,158l-1.11.56c-.37-.63-.74-1.24-1.1-1.84-6.92-11.47-10.4-17.24-11.24-29.84l-.17-5.85-.59-.25.2,6.6c.83,12.6,4.31,18.37,11.23,29.84l1.11,1.84,1.1-.56a28.59,28.59,0,0,0,6.81-4.19A33,33,0,0,1,307.19,158Z" transform="translate(-2.86 -40.06)"/><path class="cls-2" d="M322.72,132.25c-6.06-3.43-12-9.28-17-16.73l-.07,0c-5,1.72-10.89.72-17-2.85l-.22.24c6.05,3.55,12,4.54,16.93,2.82l.06,0c5,7.46,10.9,13.31,17,16.74l.23.13-.33,11c-.62,8.79-2.66,13-5.93,15.9,3.42-2.87,5.55-7.11,6.19-16.12l.32-11Z" transform="translate(-2.86 -40.06)"/><path class="cls-4" d="M87.42,219.37l-21-12.07c-2.18-1.26-1.91-3.46.61-4.92h0c2.52-1.45,10.86-1.46,13-.2l18.6,10.73c3.35,2,0,4.69-2.76,6.11h0C93.42,220.47,89.61,220.63,87.42,219.37Z" transform="translate(-2.86 -40.06)"/><path class="cls-5" d="M95.6,194,65.28,182.71V205.2a2,2,0,0,0,1.19,2L87,219a7.67,7.67,0,0,0,6.93-.29h0a2.91,2.91,0,0,0,1.7-2.18h0Z" transform="translate(-2.86 -40.06)"/><path class="cls-3" d="M87,196.44l-20.5-11.88c-1.78-1-1.56-2.81.5-4h0a7.73,7.73,0,0,1,6.93-.29l20.5,11.88c1.78,1,1.55,2.82-.5,4h0A7.73,7.73,0,0,1,87,196.44Z" transform="translate(-2.86 -40.06)"/><path class="cls-2" d="M93.89,195.87a7.7,7.7,0,0,1-6.93.28l-20.5-11.87a2.14,2.14,0,0,1-1.19-1.59,2,2,0,0,0,1.19,1.93L87,196.5a7.7,7.7,0,0,0,6.93-.29c1.2-.69,1.77-1.58,1.69-2.41A3.06,3.06,0,0,1,93.89,195.87Z" transform="translate(-2.86 -40.06)"/><path class="cls-7" d="M82.46,166.47h0a8.59,8.59,0,0,0-12.88,7.45v9.31h0v0c0,.91,1.26,1.65,2.82,1.65s2.82-.74,2.82-1.65v0h0v-8.1A3.64,3.64,0,0,1,80.7,172h0a9.07,9.07,0,0,1,4.55,7.87v12.43h0c0,.89,1.28,1.61,2.82,1.61s2.8-.73,2.82-1.63h0V181.12A16.92,16.92,0,0,0,82.46,166.47Z" transform="translate(-2.86 -40.06)"/><path class="cls-9" d="M82.29,170.78a5.28,5.28,0,0,0-.53-.27,9.9,9.9,0,0,1,4.37,8.19v14.58a3.4,3.4,0,0,0,1.1.4V179.33A9.88,9.88,0,0,0,82.29,170.78Z" transform="translate(-2.86 -40.06)"/><path class="cls-10" d="M76.56,169.28A4.62,4.62,0,0,0,72,173.9v9.73l0,1a4.06,4.06,0,0,0,1.62-.2l0-1V173.7a4.63,4.63,0,0,1,3.27-4.41Z" transform="translate(-2.86 -40.06)"/><path class="cls-9" d="M79.33,167.29a8.9,8.9,0,0,1,4.2,1.05,18.28,18.28,0,0,0-1.56-1,7.52,7.52,0,0,0-3.79-1,7.65,7.65,0,0,0-7.63,7.64v0A9.2,9.2,0,0,1,79.33,167.29Z" transform="translate(-2.86 -40.06)"/><path class="cls-10" d="M88.74,182.82v10.9a3.45,3.45,0,0,0,1.41-.49.86.86,0,0,0,.1-.38V181.73C90.25,176.92,88.74,177.92,88.74,182.82Z" transform="translate(-2.86 -40.06)"/><path class="cls-7" d="M80.64,200.42a6.13,6.13,0,0,0-2.78-4.8c-1.54-.88-2.78-.17-2.78,1.59a6,6,0,0,0,1.41,3.58v5.58L79.23,208v-5.58C80.07,202.31,80.64,201.61,80.64,200.42Z" transform="translate(-2.86 -40.06)"/><path class="cls-8" d="M77,206.17v-5.59A6,6,0,0,1,75.56,197a2,2,0,0,1,.73-1.73c-.73.16-1.21.84-1.21,1.94a6,6,0,0,0,1.41,3.58v5.58L79.23,208v-.48Z" transform="translate(-2.86 -40.06)"/><path class="cls-4" d="M179.68,89.94l-21-12.07c-2.18-1.26-1.91-3.46.61-4.92h0c2.52-1.45,10.86-1.46,13-.2L191,83.48c3.35,2,0,4.69-2.75,6.11h0C185.68,91,181.86,91.2,179.68,89.94Z" transform="translate(-2.86 -40.06)"/><path class="cls-6" d="M195.13,71.39a12.63,12.63,0,0,0-5.72-9.87,5.45,5.45,0,0,0-2.33-.77.76.76,0,0,0,0-.15c0-7-5-15.58-11.08-19.11-3.44-2-6.43-1.72-8.54-.31l-3.53,2c-2-1-3.79-1-5-.16l-4.76,2.85a5.37,5.37,0,0,1,4.83.7,9.42,9.42,0,0,1,1.16.78c1.45-4.26,5.61-5.54,10.54-2.7,6.12,3.54,11.08,12.09,11.08,19.12,0,0,0,.09,0,.14a5.51,5.51,0,0,1,2.32.77,12.61,12.61,0,0,1,5.73,9.88,4.31,4.31,0,0,1-1.23,3.35l4.71-2.74h0C194.41,74.63,195.13,73.31,195.13,71.39Z" transform="translate(-2.86 -40.06)"/><path class="cls-2" d="M184.48,64.51a5.28,5.28,0,0,0-2.32-.77c0-.05,0-.1,0-.15,0-7-5-15.58-11.09-19.11-2.93-1.7-5.59-1.93-7.57-.94,1.93-.76,4.42-.46,7.16,1.12,6.12,3.54,11.08,12.09,11.08,19.12,0,0,0,.09,0,.14a5.51,5.51,0,0,1,2.32.77,12.61,12.61,0,0,1,5.73,9.88c0,1.83-.66,3.11-1.72,3.69,1.3-.45,2.14-1.81,2.14-3.88A12.61,12.61,0,0,0,184.48,64.51Z" transform="translate(-2.86 -40.06)"/><path class="cls-2" d="M159,46.58a9.42,9.42,0,0,1,1.16.78l.14-.39a9.52,9.52,0,0,0-.88-.58c-2-1.13-3.73-1.27-5-.59A5.5,5.5,0,0,1,159,46.58Z" transform="translate(-2.86 -40.06)"/><path class="cls-3" d="M184.06,64.69a5.51,5.51,0,0,0-2.32-.77c0-.05,0-.09,0-.14,0-7-5-15.58-11.08-19.12-4.93-2.84-9.09-1.56-10.54,2.7a9.42,9.42,0,0,0-1.16-.78c-4-2.33-7.3-.47-7.3,4.16A16.12,16.12,0,0,0,159,63.35l25.09,14.48c3.17,1.83,5.73.37,5.73-3.26A12.61,12.61,0,0,0,184.06,64.69Z" transform="translate(-2.86 -40.06)"/><path class="cls-11" d="M186.63,76.77a3.32,3.32,0,0,1-1.64-.54L159.9,61.75a14.31,14.31,0,0,1-6.39-11c0-1,.21-3.32,2.18-3.32a5,5,0,0,1,2.36.75,8.83,8.83,0,0,1,1,.66l2.05,1.55.82-2.43a3.91,3.91,0,0,1,3.82-3,8.38,8.38,0,0,1,4,1.27c5.51,3.18,10.16,11.2,10.16,17.52v.12l0,1.75,1.74.11a3.75,3.75,0,0,1,1.52.53,10.75,10.75,0,0,1,4.8,8.28,3,3,0,0,1-.47,1.83,1,1,0,0,1-.84.37Z" transform="translate(-2.86 -40.06)"/><path class="cls-9" d="M161.67,49.92l.82-2.43a4.91,4.91,0,0,1,1.21-2A4.45,4.45,0,0,0,161.88,48l-.57,1.69Z" transform="translate(-2.86 -40.06)"/><path class="cls-9" d="M187.25,76.31a3.31,3.31,0,0,1-1.65-.54L160.51,61.29a14.3,14.3,0,0,1-6.38-11,4.41,4.41,0,0,1,.75-2.69c-1.21.54-1.37,2.31-1.37,3.15a14.31,14.31,0,0,0,6.39,11L185,76.23a3.32,3.32,0,0,0,1.64.54,1,1,0,0,0,.84-.37,1.25,1.25,0,0,0,.08-.12A1.39,1.39,0,0,1,187.25,76.31Z" transform="translate(-2.86 -40.06)"/><path class="cls-4" d="M190.25,243l-27.17-15.26c-1.49-.86-1.3-2.36.42-3.35h0c1.71-1,7.39-1,8.88-.13l25.54,14.34c2.29,1.34,0,3.19-1.87,4.16h0A6.45,6.45,0,0,1,190.25,243Z" transform="translate(-2.86 -40.06)"/><path class="cls-5" d="M191,243.72l-29.95-17.31A7.43,7.43,0,0,1,158,220.5V200.93c0-2.27,1.39-3.32,3.09-2.33L191,215.91a7.4,7.4,0,0,1,3.09,5.91v19.57C194.12,243.66,192.74,244.71,191,243.72Z" transform="translate(-2.86 -40.06)"/><path class="cls-7" d="M191.43,228.28l-29.48-17a5.25,5.25,0,0,1-2.22-4.4v-5.08a.55.55,0,0,1,.83-.48l.09.06,29.51,17.06a4.76,4.76,0,0,1,2.22,4.41v5a.59.59,0,0,1-.88.52Z" transform="translate(-2.86 -40.06)"/><path class="cls-7" d="M191.43,241.22l-29.48-17a5.25,5.25,0,0,1-2.22-4.4v-5.09a.55.55,0,0,1,.83-.47l.09.06,29.51,17.06a4.76,4.76,0,0,1,2.22,4.41v5a.59.59,0,0,1-.88.51Z" transform="translate(-2.86 -40.06)"/><path class="cls-8" d="M192,227.92l-.07,0-29.47-17a5.24,5.24,0,0,1-2.23-4.4v-5.09a.68.68,0,0,1,0-.14.55.55,0,0,0-.51.55v5.08a5.25,5.25,0,0,0,2.22,4.4l29.48,17,.07.05a.59.59,0,0,0,.85-.34A.6.6,0,0,1,192,227.92Z" transform="translate(-2.86 -40.06)"/><path class="cls-8" d="M192,240.86l-.07,0-29.47-17a5.26,5.26,0,0,1-2.23-4.4v-5.09a.59.59,0,0,1,0-.14.55.55,0,0,0-.51.54v5.09a5.25,5.25,0,0,0,2.22,4.4l29.48,17,.07,0a.58.58,0,0,0,.85-.33A.6.6,0,0,1,192,240.86Z" transform="translate(-2.86 -40.06)"/><path class="cls-11" d="M192.48,215.17l-29.94-17.31a2.08,2.08,0,0,0-1.81-.27l-1.56.79h0a2,2,0,0,1,1.92.21L191,215.91a7.4,7.4,0,0,1,3.09,5.91v19.57c0,1.42-.54,2.36-1.36,2.62a.44.44,0,0,0,.27-.09l1.59-.85a2.86,2.86,0,0,0,1-2.43V221.08A7.41,7.41,0,0,0,192.48,215.17Z" transform="translate(-2.86 -40.06)"/><path class="cls-12" d="M192.48,215.17l-29.94-17.31a2.08,2.08,0,0,0-1.81-.27l-1.56.79h0a2,2,0,0,1,1.92.21L191,215.91Z" transform="translate(-2.86 -40.06)"/><path class="cls-13" d="M191.18,215.84l-30-17.32a2,2,0,0,0-1.86-.23,2.24,2.24,0,0,1,1.49.35L190.81,216a7.43,7.43,0,0,1,3.09,5.91v19.56a2.63,2.63,0,0,1-1.23,2.58c1-.15,1.6-1.13,1.6-2.69V221.74A7.41,7.41,0,0,0,191.18,215.84Z" transform="translate(-2.86 -40.06)"/><path class="cls-8" d="M184.11,232.27a4.12,4.12,0,0,0,1.86,3.22c1,.59,1.87.12,1.87-1.06a4.12,4.12,0,0,0-1.87-3.22C184.94,230.62,184.11,231.09,184.11,232.27Z" transform="translate(-2.86 -40.06)"/><path class="cls-8" d="M179.3,229.48a4.13,4.13,0,0,0,1.87,3.22c1,.59,1.86.11,1.86-1.07a4.09,4.09,0,0,0-1.86-3.21C180.14,227.83,179.3,228.3,179.3,229.48Z" transform="translate(-2.86 -40.06)"/><path class="cls-8" d="M174.5,226.69a4.09,4.09,0,0,0,1.86,3.21c1,.6,1.86.12,1.86-1.06a4.09,4.09,0,0,0-1.86-3.21C175.33,225,174.5,225.51,174.5,226.69Z" transform="translate(-2.86 -40.06)"/><path class="cls-8" d="M169.69,223.9a4.09,4.09,0,0,0,1.86,3.21c1,.6,1.87.12,1.87-1.06a4.1,4.1,0,0,0-1.87-3.21C170.52,222.24,169.69,222.72,169.69,223.9Z" transform="translate(-2.86 -40.06)"/><path class="cls-8" d="M164.88,221.11a4.1,4.1,0,0,0,1.87,3.21c1,.59,1.86.12,1.86-1.06a4.12,4.12,0,0,0-1.86-3.22C165.72,219.45,164.88,219.93,164.88,221.11Z" transform="translate(-2.86 -40.06)"/><path class="cls-5" d="M183.53,232.31a4.13,4.13,0,0,0,1.87,3.22c1,.59,1.86.12,1.86-1.07a4.11,4.11,0,0,0-1.86-3.21C184.37,230.66,183.53,231.13,183.53,232.31Z" transform="translate(-2.86 -40.06)"/><path class="cls-5" d="M178.73,229.52a4.09,4.09,0,0,0,1.86,3.21c1,.6,1.86.12,1.86-1.06a4.09,4.09,0,0,0-1.86-3.21C179.56,227.86,178.73,228.34,178.73,229.52Z" transform="translate(-2.86 -40.06)"/><path class="cls-5" d="M173.92,226.73a4.09,4.09,0,0,0,1.86,3.21c1,.6,1.87.12,1.87-1.06a4.1,4.1,0,0,0-1.87-3.21C174.75,225.07,173.92,225.55,173.92,226.73Z" transform="translate(-2.86 -40.06)"/><path class="cls-5" d="M169.11,223.94a4.1,4.1,0,0,0,1.87,3.21c1,.6,1.86.12,1.86-1.06a4.12,4.12,0,0,0-1.86-3.22C170,222.28,169.11,222.76,169.11,223.94Z" transform="translate(-2.86 -40.06)"/><path class="cls-5" d="M164.31,221.15a4.1,4.1,0,0,0,1.86,3.21c1,.59,1.86.12,1.86-1.06a4.12,4.12,0,0,0-1.86-3.22C165.14,219.49,164.31,220,164.31,221.15Z" transform="translate(-2.86 -40.06)"/><path class="cls-8" d="M184.11,219a4.09,4.09,0,0,0,1.86,3.21c1,.6,1.87.12,1.87-1.06A4.1,4.1,0,0,0,186,218C184.94,217.35,184.11,217.83,184.11,219Z" transform="translate(-2.86 -40.06)"/><path class="cls-8" d="M179.3,216.22a4.1,4.1,0,0,0,1.87,3.21c1,.6,1.86.12,1.86-1.06a4.09,4.09,0,0,0-1.86-3.21C180.14,214.56,179.3,215,179.3,216.22Z" transform="translate(-2.86 -40.06)"/><path class="cls-8" d="M174.5,213.43a4.09,4.09,0,0,0,1.86,3.21c1,.59,1.86.12,1.86-1.06a4.12,4.12,0,0,0-1.86-3.22C175.33,211.77,174.5,212.25,174.5,213.43Z" transform="translate(-2.86 -40.06)"/><path class="cls-8" d="M169.69,210.63a4.11,4.11,0,0,0,1.86,3.22c1,.59,1.87.12,1.87-1.06a4.13,4.13,0,0,0-1.87-3.22C170.52,209,169.69,209.45,169.69,210.63Z" transform="translate(-2.86 -40.06)"/><path class="cls-8" d="M164.88,207.84a4.13,4.13,0,0,0,1.87,3.22c1,.59,1.86.12,1.86-1.07a4.09,4.09,0,0,0-1.86-3.21C165.72,206.19,164.88,206.66,164.88,207.84Z" transform="translate(-2.86 -40.06)"/><path class="cls-5" d="M183.53,219.05a4.1,4.1,0,0,0,1.87,3.21c1,.6,1.86.12,1.86-1.06A4.11,4.11,0,0,0,185.4,218C184.37,217.39,183.53,217.87,183.53,219.05Z" transform="translate(-2.86 -40.06)"/><path class="cls-5" d="M178.73,216.26a4.09,4.09,0,0,0,1.86,3.21c1,.6,1.86.12,1.86-1.06a4.12,4.12,0,0,0-1.86-3.22C179.56,214.6,178.73,215.08,178.73,216.26Z" transform="translate(-2.86 -40.06)"/><path class="cls-5" d="M173.92,213.47a4.1,4.1,0,0,0,1.86,3.21c1,.59,1.87.12,1.87-1.06a4.13,4.13,0,0,0-1.87-3.22C174.75,211.81,173.92,212.28,173.92,213.47Z" transform="translate(-2.86 -40.06)"/><path class="cls-5" d="M169.11,210.67a4.13,4.13,0,0,0,1.87,3.22c1,.59,1.86.12,1.86-1.07a4.09,4.09,0,0,0-1.86-3.21C170,209,169.11,209.49,169.11,210.67Z" transform="translate(-2.86 -40.06)"/><path class="cls-5" d="M164.31,207.88a4.12,4.12,0,0,0,1.86,3.22c1,.59,1.86.11,1.86-1.07a4.09,4.09,0,0,0-1.86-3.21C165.14,206.22,164.31,206.7,164.31,207.88Z" transform="translate(-2.86 -40.06)"/><path class="cls-4" d="M42.8,162.66l-12-6.54c-2-1.16-1.75-3.17.56-4.5h0c2.3-1.34,9.94-1.34,11.94-.19l9.79,5.31c3.07,1.81,0,4.3-2.52,5.6h0C48.29,163.67,44.8,163.81,42.8,162.66Z" transform="translate(-2.86 -40.06)"/><path class="cls-6" d="M41.42,149.67c-5.57-3.22-10.09-11-10.09-17.42a8,8,0,0,1,1.7-5.42c-3.06.22-5.14,2.78-5.14,7.1,0,6.4,4.53,14.2,10.1,17.42,3.5,2,6.58,1.74,8.39-.32A8.87,8.87,0,0,1,41.42,149.67Z" transform="translate(-2.86 -40.06)"/><path class="cls-7" d="M40.61,150.12c-5.58-3.22-10.1-11-10.1-17.42s4.52-9,10.1-5.75S50.7,138,50.7,144.36,46.18,153.34,40.61,150.12Z" transform="translate(-2.86 -40.06)"/><path class="cls-5" d="M51.24,147.56a20.6,20.6,0,0,0-.17-2.45l4.08-.52a37.76,37.76,0,0,0-1.85-6.17L48.65,137a33.09,33.09,0,0,0-2.9-5l1.12-4.7a37.56,37.56,0,0,0-4.46-4.69l-2.5,3.24a18.87,18.87,0,0,0-2-1.38,14.54,14.54,0,0,0-2-1l-2.51-6.13a12.27,12.27,0,0,0-4.45-.45l1.11,6a6.4,6.4,0,0,0-2.89,1.65l-4.65-4a12,12,0,0,0-1.85,4l4.08,5.23a15.69,15.69,0,0,0-.17,2.24,20.6,20.6,0,0,0,.17,2.45l-4.08.52a36.27,36.27,0,0,0,1.85,6.18l4.65,1.4a33.63,33.63,0,0,0,2.89,5l-1.11,4.69A37.5,37.5,0,0,0,33.31,157l2.51-3.24a19.78,19.78,0,0,0,2,1.38,15.29,15.29,0,0,0,2,1l2.5,6.12a12.32,12.32,0,0,0,4.46.45l-1.12-6a6.34,6.34,0,0,0,2.9-1.65l4.65,4A12.39,12.39,0,0,0,55.15,155l-4.08-5.22A15.94,15.94,0,0,0,51.24,147.56ZM38,151.35c-5.57-3.22-10.09-11-10.09-17.42s4.52-9,10.09-5.75,10.1,11,10.1,17.41S43.57,154.57,38,151.35Z" transform="translate(-2.86 -40.06)"/><polygon class="cls-6" points="36.87 81.2 34.37 75.07 30.46 77.32 32.96 83.45 36.87 81.2"/><path class="cls-3" d="M35.82,123.51a14.54,14.54,0,0,1,2,1,18.87,18.87,0,0,1,2,1.38l2.5-3.24h0l-.64-.39a15.74,15.74,0,0,0-2-1Z" transform="translate(-2.86 -40.06)"/><path class="cls-3" d="M37.22,115.13a12.27,12.27,0,0,0-4.45-.45l-3.91,2.25a12.27,12.27,0,0,1,4.45.45Z" transform="translate(-2.86 -40.06)"/><path class="cls-3" d="M50.78,125.08a37.66,37.66,0,0,0-4.46-4.7l-3.91,2.25a37.56,37.56,0,0,1,4.46,4.69Z" transform="translate(-2.86 -40.06)"/><polygon class="cls-6" points="44.01 87.26 42.89 91.96 46.8 89.71 47.92 85.02 44.01 87.26"/><path class="cls-6" d="M45.75,132a33.09,33.09,0,0,1,2.9,5l3.91-2.25a32.27,32.27,0,0,0-2.9-5Z" transform="translate(-2.86 -40.06)"/><polygon class="cls-3" points="45.79 96.95 50.44 98.36 54.35 96.11 49.7 94.7 45.79 96.95"/><path class="cls-6" d="M53.3,138.42a37.76,37.76,0,0,1,1.85,6.17l3.91-2.24a37.87,37.87,0,0,0-1.85-6.18Z" transform="translate(-2.86 -40.06)"/><path class="cls-6" d="M30,122.91l-.32-1.74-3.31-2.82-3.91,2.24,4.65,4A6.4,6.4,0,0,1,30,122.91Z" transform="translate(-2.86 -40.06)"/><path class="cls-6" d="M55.15,155a12.39,12.39,0,0,1-1.85,4.05l3.91-2.25a12.43,12.43,0,0,0,1.85-4Z" transform="translate(-2.86 -40.06)"/><path class="cls-6" d="M55,147.56a15.94,15.94,0,0,0,.17-2.25c0-.23,0-.47,0-.71l-4,.51a20.6,20.6,0,0,1,.17,2.45,15.94,15.94,0,0,1-.17,2.25Z" transform="translate(-2.86 -40.06)"/><polygon class="cls-3" points="48.21 109.75 52.29 114.97 56.2 112.73 52.12 107.5 48.21 109.75"/><path class="cls-6" d="M48.65,155.11a6.34,6.34,0,0,1-2.9,1.65l1.12,6,3.91-2.24L50,156.26Z" transform="translate(-2.86 -40.06)"/><path class="cls-3" d="M24.51,132.77l-3.93,2.31,4.08-.52C24.59,134,24.54,133.36,24.51,132.77Z" transform="translate(-2.86 -40.06)"/><path class="cls-6" d="M35.82,153.8,33.31,157l3.94-2.24C36.77,154.49,36.29,154.16,35.82,153.8Z" transform="translate(-2.86 -40.06)"/><g class="cls-14"><path class="cls-2" d="M29.5,123.18v-.06a4.41,4.41,0,0,0-.54.24C29.13,123.3,29.31,123.23,29.5,123.18Z" transform="translate(-2.86 -40.06)"/><path class="cls-2" d="M24.16,134.63l-3.38.43c0,.07,0,.13,0,.2l3.36-.43A1.36,1.36,0,0,0,24.16,134.63Z" transform="translate(-2.86 -40.06)"/><path class="cls-2" d="M46.65,127.58l-1.12,4.69a32.74,32.74,0,0,1,2.9,5l4.65,1.41a36.46,36.46,0,0,1,1.8,6l.46-.07a35.73,35.73,0,0,0-1.85-6.18L48.84,137A32.21,32.21,0,0,0,46,132l1.11-4.69a37.59,37.59,0,0,0-4.45-4.7l-.15.52A37.81,37.81,0,0,1,46.65,127.58Z" transform="translate(-2.86 -40.06)"/><path class="cls-2" d="M38,151.27c-5.58-3.22-10.1-11-10.1-17.41,0-2.83.89-4.9,2.35-6.06-1.69,1.09-2.73,3.27-2.73,6.33,0,6.4,4.52,14.2,10.09,17.42,2.82,1.62,5.36,1.77,7.19.69l-.42.1C42.67,153,40.45,152.67,38,151.27Z" transform="translate(-2.86 -40.06)"/><path class="cls-2" d="M46.5,156.56a6.17,6.17,0,0,0,1.84-1l-.17-.15A6.25,6.25,0,0,1,46.5,156.56Z" transform="translate(-2.86 -40.06)"/><path class="cls-2" d="M26.93,124.66c-.17,0,0-.13.17-.27l-4.47-3.81c-.13.17-.25.36,0,.39Z" transform="translate(-2.86 -40.06)"/><path class="cls-15" d="M45.64,157l1.07,5.73c-.13,0,.12,0,.35,0L46,156.81C45.74,156.89,45.51,157,45.64,157Z" transform="translate(-2.86 -40.06)"/><path class="cls-2" d="M51.43,147.54a19.17,19.17,0,0,0-.15-2.25l-.4,0a20.6,20.6,0,0,1,.17,2.45,15.94,15.94,0,0,1-.17,2.25L55,155.25a12.71,12.71,0,0,1-1.49,3.49l0,.32a12,12,0,0,0,1.85-4l-4.08-5.23A15.94,15.94,0,0,0,51.43,147.54Z" transform="translate(-2.86 -40.06)"/><path class="cls-2" d="M33.14,117.54l2.51,6.13a16.39,16.39,0,0,1,2,1A20.43,20.43,0,0,1,39.74,126l.08-.39c-.58-.42-1.16-.82-1.76-1.17a16.5,16.5,0,0,0-2.05-1l-2.5-6.13a12.29,12.29,0,0,0-4.45-.45l0,.26A14.63,14.63,0,0,1,33.14,117.54Z" transform="translate(-2.86 -40.06)"/><path class="cls-2" d="M35.34,154.07l-2.09,2.71c.09.08.17.17.26.24l2.12-2.74Z" transform="translate(-2.86 -40.06)"/></g><path class="cls-12" d="M41,133.75a3.1,3.1,0,0,0-3-.33s-2.39,1.4-2.42,1.46a2.92,2.92,0,0,1,3.28.16,9.55,9.55,0,0,1,4.33,7.47,3,3,0,0,1-1.32,2.81,1,1,0,0,0,.21-.1L44.14,144a3,3,0,0,0,1.21-2.75A9.54,9.54,0,0,0,41,133.75Z" transform="translate(-2.86 -40.06)"/><path class="cls-5" d="M38.86,135c-2.39-1.38-4.33-.27-4.33,2.47A9.54,9.54,0,0,0,38.86,145c2.39,1.38,4.33.27,4.33-2.47A9.55,9.55,0,0,0,38.86,135Z" transform="translate(-2.86 -40.06)"/><path class="cls-2" d="M38.86,135a3.06,3.06,0,0,0-3.11-.28,3.24,3.24,0,0,1,2.8.44,9.53,9.53,0,0,1,4.33,7.46,3,3,0,0,1-1.22,2.75,2.85,2.85,0,0,0,1.53-2.9A9.55,9.55,0,0,0,38.86,135Z" transform="translate(-2.86 -40.06)"/><path class="cls-4" d="M92.24,113.2,65.08,98c-1.49-.86-1.3-2.36.41-3.35h0c1.72-1,7.4-1,8.88-.14L99.92,108.8c2.28,1.35,0,3.2-1.88,4.16h0A6.44,6.44,0,0,1,92.24,113.2Z" transform="translate(-2.86 -40.06)"/><path class="cls-5" d="M91.76,113,67.26,98.76a7.4,7.4,0,0,1-3.09-5.91v-32c0-2.28,1.38-3.32,3.09-2.34l24.5,14.29a7.37,7.37,0,0,1,3.09,5.9v32C94.85,113,93.47,114,91.76,113Z" transform="translate(-2.86 -40.06)"/><path class="cls-7" d="M92.16,111.25l-24-14a5.26,5.26,0,0,1-2.23-4.41V61.7a.55.55,0,0,1,.83-.47l.1.05,24.07,14a4.75,4.75,0,0,1,2.22,4.4v31.06a.6.6,0,0,1-.89.52Z" transform="translate(-2.86 -40.06)"/><path class="cls-8" d="M92.73,110.89l-.07,0-24-14a5.26,5.26,0,0,1-2.22-4.4V61.29a.59.59,0,0,1,0-.13.54.54,0,0,0-.52.54V92.84a5.26,5.26,0,0,0,2.23,4.41l24,14,.07,0a.6.6,0,0,0,.86-.34A.52.52,0,0,1,92.73,110.89Z" transform="translate(-2.86 -40.06)"/><path class="cls-11" d="M93.22,72.08,68.71,57.8a2.1,2.1,0,0,0-1.8-.27l-1.57.8h0a2,2,0,0,1,1.92.21l24.5,14.29a7.37,7.37,0,0,1,3.09,5.9v32c0,1.42-.54,2.36-1.36,2.63a.58.58,0,0,0,.28-.09l1.59-.85a2.89,2.89,0,0,0,1-2.43V78A7.4,7.4,0,0,0,93.22,72.08Z" transform="translate(-2.86 -40.06)"/><path class="cls-12" d="M93.22,72.08,68.71,57.8a2.1,2.1,0,0,0-1.8-.27l-1.57.8h0a2,2,0,0,1,1.92.21l24.5,14.29Z" transform="translate(-2.86 -40.06)"/><path class="cls-13" d="M91.91,72.75,67.41,58.47a2,2,0,0,0-1.86-.24,2.3,2.3,0,0,1,1.49.35l24.5,14.28a7.4,7.4,0,0,1,3.09,5.91v32a2.58,2.58,0,0,1-1.23,2.57c1-.15,1.6-1.13,1.6-2.68v-32A7.4,7.4,0,0,0,91.91,72.75Z" transform="translate(-2.86 -40.06)"/><path class="cls-5" d="M79.77,94l-.12,0a.54.54,0,0,1-.41-.64,41.59,41.59,0,0,0,1-9.1V84a.54.54,0,0,1,.54-.54.54.54,0,0,1,.54.54v.22a43.19,43.19,0,0,1-1,9.34A.54.54,0,0,1,79.77,94Z" transform="translate(-2.86 -40.06)"/><path class="cls-5" d="M75.92,97.65l-.13,0A.53.53,0,0,1,75.4,97,72.09,72.09,0,0,0,77,82.18a2.81,2.81,0,0,1,.9-2.25.54.54,0,0,1,.68.84,1.78,1.78,0,0,0-.5,1.41,73.37,73.37,0,0,1-1.63,15A.54.54,0,0,1,75.92,97.65Z" transform="translate(-2.86 -40.06)"/><path class="cls-5" d="M83.65,86.24a.54.54,0,0,1-.54-.54,6.24,6.24,0,0,0-2.79-4.8.54.54,0,0,1-.19-.73.53.53,0,0,1,.73-.2,7.2,7.2,0,0,1,3.33,5.73A.54.54,0,0,1,83.65,86.24Z" transform="translate(-2.86 -40.06)"/><path class="cls-5" d="M81.45,101.65h-.13a.54.54,0,0,1-.4-.65,106.64,106.64,0,0,0,1.9-11,.54.54,0,1,1,1.07.12A108.51,108.51,0,0,1,82,101.23.54.54,0,0,1,81.45,101.65Z" transform="translate(-2.86 -40.06)"/><path class="cls-5" d="M87.92,102.67a.34.34,0,0,1-.14,0,.53.53,0,0,1-.38-.66,49.74,49.74,0,0,0,1.54-12.71v-.21c0-5.45-3.87-12.11-8.62-14.86-2.2-1.27-4.25-1.49-5.76-.62s-2.31,2.71-2.31,5.22a52,52,0,0,1-1.17,11.32.54.54,0,0,1-1-.23,51.17,51.17,0,0,0,1.14-11.09c0-2.91,1-5.1,2.85-6.16s4.29-.85,6.84.63c5,2.91,9.16,10,9.16,15.79v.21a50.59,50.59,0,0,1-1.58,13A.53.53,0,0,1,87.92,102.67Z" transform="translate(-2.86 -40.06)"/><path class="cls-5" d="M73.06,94.35a.34.34,0,0,1-.14,0,.52.52,0,0,1-.38-.65,49.36,49.36,0,0,0,1-5.12.57.57,0,0,1,.61-.46.54.54,0,0,1,.46.61,46.71,46.71,0,0,1-1,5.24A.53.53,0,0,1,73.06,94.35Z" transform="translate(-2.86 -40.06)"/><path class="cls-5" d="M74.27,87.61h-.06a.53.53,0,0,1-.47-.6,59.54,59.54,0,0,0,.35-6.52A5.69,5.69,0,0,1,75,77.22a.54.54,0,0,1,.76-.12.53.53,0,0,1,.12.75,4.61,4.61,0,0,0-.69,2.64,59.26,59.26,0,0,1-.36,6.64A.53.53,0,0,1,74.27,87.61Z" transform="translate(-2.86 -40.06)"/><path class="cls-5" d="M85.74,84a.55.55,0,0,1-.51-.35,12.52,12.52,0,0,0-4.91-6.07,4.21,4.21,0,0,0-3.1-.66.55.55,0,0,1-.66-.39.53.53,0,0,1,.39-.65,5.22,5.22,0,0,1,3.91.76,13.47,13.47,0,0,1,5.38,6.62.55.55,0,0,1-.3.7A.79.79,0,0,1,85.74,84Z" transform="translate(-2.86 -40.06)"/><path class="cls-5" d="M84.36,102.65a.47.47,0,0,1-.17,0,.53.53,0,0,1-.34-.68l.11-.36A44.32,44.32,0,0,0,86,87.6v-.21a.54.54,0,0,1,1.08,0v.21A45.57,45.57,0,0,1,85,101.92l-.12.36A.54.54,0,0,1,84.36,102.65Z" transform="translate(-2.86 -40.06)"/><path class="cls-4" d="M278,104.84l-10.64-6a3,3,0,0,0,1.46-2.34c0-2.38-4.07-4.31-9.08-4.31s-9.07,1.93-9.07,4.31,4.06,4.31,9.07,4.31a18.74,18.74,0,0,0,3-.24L274.13,107a3.22,3.22,0,0,0,2.89-.12C278,106.43,279.09,105.51,278,104.84Z" transform="translate(-2.86 -40.06)"/><path class="cls-10" d="M265.76,69.94a.51.51,0,0,0-.7-.19l-1.4.8a2.36,2.36,0,0,1-2.27-.28l-.45-.26c0-.44,0-.89,0-1.36l-8.23-4.76c0,.47,0,.94.05,1.41a7.72,7.72,0,0,1-2.54-2.7l-1.4-2.42a.51.51,0,1,0-.89.51l1.41,2.43a8.55,8.55,0,0,0,3,3.11l.57.33c.05.43.11.85.18,1.28l-2.42-1.4a.51.51,0,0,0-.51.89l3.2,1.85c.08.34.17.68.26,1a3,3,0,0,0-1.5.07,2.53,2.53,0,0,0-1.52,1.53l-.55,1.35a.51.51,0,0,0,.29.67.58.58,0,0,0,.19,0,.51.51,0,0,0,.47-.32l.55-1.35a1.54,1.54,0,0,1,.91-.94,2.3,2.3,0,0,1,1.54.14c.74,2.09,1.75,3.7,2.87,4.34s2.08.23,2.82-.94a8.77,8.77,0,0,1,2.47,4l.55,2a.51.51,0,0,0,.49.37.32.32,0,0,0,.14,0,.51.51,0,0,0,.36-.63l-.54-2a9.64,9.64,0,0,0-3-4.71,4.53,4.53,0,0,0,.21-.59l2.69,1.55a.59.59,0,0,0,.26.07.52.52,0,0,0,.44-.26.51.51,0,0,0-.19-.7l-2.93-1.69c.07-.34.13-.7.18-1.07l.05,0a4.16,4.16,0,0,0,2,.6,2.6,2.6,0,0,0,1.27-.32l1.4-.8A.51.51,0,0,0,265.76,69.94Z" transform="translate(-2.86 -40.06)"/><path class="cls-10" d="M253,58.23a4.14,4.14,0,0,1,1.89,2.68l.09.44c-.95.17-1.59,1-1.59,2.45l7,4a7.58,7.58,0,0,0-1.71-4.43l.2-.74a.68.68,0,0,1,.37-.49,1.22,1.22,0,0,1,1,.25.52.52,0,0,0,.71-.15.52.52,0,0,0-.15-.71,2.15,2.15,0,0,0-1.95-.35,1.69,1.69,0,0,0-1,1.18l0,.12a6.48,6.48,0,0,0-1-.73,4.58,4.58,0,0,0-.85-.36l-.15-.73a5.16,5.16,0,0,0-2.44-3.4.52.52,0,0,0-.69.23A.51.51,0,0,0,253,58.23Z" transform="translate(-2.86 -40.06)"/><path class="cls-7" d="M265,70.17a.51.51,0,0,0-.7-.19l-1.4.8a2.36,2.36,0,0,1-2.27-.28l-.45-.26c0-.44,0-.89,0-1.36L252,64.13c0,.46,0,.93.05,1.4a7.61,7.61,0,0,1-2.53-2.7l-1.41-2.42a.51.51,0,1,0-.89.51l1.41,2.43a8.47,8.47,0,0,0,3,3.11l.57.33c.05.43.11.86.18,1.28l-2.42-1.4a.51.51,0,1,0-.51.89l3.2,1.85c.08.34.17.68.26,1a3,3,0,0,0-1.5.07A2.53,2.53,0,0,0,249.83,72l-.55,1.35a.52.52,0,0,0,.29.67.58.58,0,0,0,.19,0,.51.51,0,0,0,.47-.32l.55-1.35a1.5,1.5,0,0,1,.91-.93,2.18,2.18,0,0,1,1.54.14c.74,2.08,1.75,3.69,2.87,4.33s2.08.23,2.82-.94a8.87,8.87,0,0,1,2.48,4l.54,2a.52.52,0,0,0,.5.37.3.3,0,0,0,.13,0,.5.5,0,0,0,.36-.63l-.54-2a9.64,9.64,0,0,0-3-4.71c.08-.18.15-.38.22-.59L262.29,75a.48.48,0,0,0,.26.07.5.5,0,0,0,.44-.26.51.51,0,0,0-.19-.7l-2.93-1.69c.08-.34.14-.7.19-1.07l.05,0a4.09,4.09,0,0,0,2,.6,2.5,2.5,0,0,0,1.27-.32l1.4-.8A.5.5,0,0,0,265,70.17Z" transform="translate(-2.86 -40.06)"/><path class="cls-7" d="M252.2,58.46a4.17,4.17,0,0,1,1.89,2.68l.09.45c-1,.16-1.59,1-1.59,2.44l7,4a7.56,7.56,0,0,0-1.7-4.43l.19-.74a.68.68,0,0,1,.37-.49,1.22,1.22,0,0,1,1,.25.51.51,0,0,0,.71-.15.52.52,0,0,0-.15-.71,2.15,2.15,0,0,0-1.95-.35,1.69,1.69,0,0,0-1,1.18l0,.12a5.41,5.41,0,0,0-1-.72,4.06,4.06,0,0,0-.85-.37l-.15-.73a5.16,5.16,0,0,0-2.44-3.4.52.52,0,0,0-.69.23A.51.51,0,0,0,252.2,58.46Z" transform="translate(-2.86 -40.06)"/><path class="cls-8" d="M277.91,103.67a2.43,2.43,0,1,1-3.3-1A2.42,2.42,0,0,1,277.91,103.67Z" transform="translate(-2.86 -40.06)"/><path class="cls-7" d="M270.21,88.35l-5.28,2.84,7.87,14.51h0v0c.46.85,2,.9,3.46.12s2.27-2.11,1.81-3v0h0Z" transform="translate(-2.86 -40.06)"/><path class="cls-9" d="M270.21,88.36c.46.85-.35,2.17-1.81,3s-3,.73-3.46-.12.35-2.17,1.81-3S269.76,87.51,270.21,88.36Z" transform="translate(-2.86 -40.06)"/><path class="cls-8" d="M266.75,84.5l-3.13,1.69,2.23,4.14h0c.28.51,1.2.54,2.06.07s1.35-1.25,1.08-1.76h0Z" transform="translate(-2.86 -40.06)"/><path class="cls-6" d="M257.9,51.23c-3.91-2.26-7.45-2.51-10-1.11-.07,0-3.79,2.11-3.91,2.29,2.64-2,6.54-2,10.9.56,7.94,4.58,14.38,15.69,14.38,24.8,0,4.65-1.68,7.88-4.37,9.33a4.21,4.21,0,0,0,.7-.31l2.68-1.63c2.5-1.52,4-4.68,4-9.13C272.28,66.92,265.84,55.81,257.9,51.23Z" transform="translate(-2.86 -40.06)"/><path class="cls-3" d="M254.85,53c-7.94-4.59-14.38-.92-14.38,8.2s6.44,20.21,14.38,24.8,14.38.91,14.38-8.2S262.79,57.55,254.85,53Zm-.22,30.82c-6.74-3.89-12.2-13.31-12.2-21s5.46-10.85,12.2-7,12.21,13.31,12.21,21.05S261.37,87.68,254.63,83.79Z" transform="translate(-2.86 -40.06)"/><path class="cls-6" d="M257.16,82.38c-6.74-3.89-12.2-13.31-12.2-21,0-3.16.91-5.54,2.44-7-3,.81-5,3.78-5,8.41,0,7.73,5.46,17.15,12.2,21,4,2.31,7.54,2.15,9.76,0C262.37,84.38,259.87,84,257.16,82.38Z" transform="translate(-2.86 -40.06)"/><path class="cls-13" d="M255.54,52.62c-3.81-2.19-7.27-2.49-9.84-1.2A12.51,12.51,0,0,1,254.85,53c7.94,4.58,14.38,15.69,14.38,24.8,0,4.75-2.3,8.15-5.09,9.55,3.51-1,5.78-4.48,5.78-9.89C269.92,68.31,263.48,57.21,255.54,52.62Z" transform="translate(-2.86 -40.06)"/><path class="cls-4" d="M283.42,216.48c-4.9,2.82-12.87,2.81-17.8,0s-5-7.44-.06-10.27,12.87-2.82,17.8,0S288.31,213.65,283.42,216.48Z" transform="translate(-2.86 -40.06)"/><ellipse class="cls-7" cx="270.8" cy="196.81" rx="12.49" ry="21.64" transform="translate(-65.17 123.51) rotate(-30.31)"/><ellipse class="cls-9" cx="270.18" cy="197.15" rx="12.49" ry="21.64" transform="translate(-65.42 123.25) rotate(-30.31)"/><path class="cls-6" d="M283.92,206.05c0,4.56-1.57,7.79-4.13,9.35l-3,1.85c-2.66,1.49-1-1.88-5-4.22-8.13-4.69-14.73-16.06-14.73-25.39,0-4.62-4.26-4.65-1.65-6.19.07,0,3.45-1.89,3.52-1.93,2.66-1.44,6.28-1.17,10.28,1.14C277.33,185.35,283.92,196.72,283.92,206.05Z" transform="translate(-2.86 -40.06)"/><ellipse class="cls-3" cx="265.81" cy="199.52" rx="11.98" ry="20.76" transform="translate(-67.22 121.37) rotate(-30.31)"/><path class="cls-15" d="M266.41,182.34c-3.9-2.25-7.44-2.55-10.08-1.23l.09,0c2.54-1,5.81-.52,9.37,1.53,8.13,4.7,14.72,16.07,14.72,25.4,0,4.82-1.76,8.14-4.57,9.59,3.17-1.26,5.19-4.71,5.19-9.87C281.13,198.41,274.54,187,266.41,182.34Z" transform="translate(-2.86 -40.06)"/><path class="cls-7" d="M272.72,190.5l-1.35,1.57.43.56,1.32-1.61c-.11-.14-.22-.29-.34-.43Z" transform="translate(-2.86 -40.06)"/><path class="cls-7" d="M271.87,189.43l-.33-.37-.09-.1-1.13,1.85.05.06.4.44Z" transform="translate(-2.86 -40.06)"/><path class="cls-7" d="M271.63,217.73h.22l-1.15-3.28h-.36l1.18,3.28Z" transform="translate(-2.86 -40.06)"/><path class="cls-7" d="M270.54,188l-.38-.39-.05,0-.89,2.11.08.08.37.38Z" transform="translate(-2.86 -40.06)"/><path class="cls-7" d="M274.27,217.28l-1.6-3.23-.31.1,1.63,3.22A2.29,2.29,0,0,0,274.27,217.28Z" transform="translate(-2.86 -40.06)"/><path class="cls-7" d="M272.86,217.64l.24,0-1.38-3.28-.33,0,1.41,3.27Z" transform="translate(-2.86 -40.06)"/><path class="cls-7" d="M273.91,192.15l-1.56,1.27.4.6,1.53-1.31c-.12-.19-.24-.37-.37-.55Z" transform="translate(-2.86 -40.06)"/><path class="cls-7" d="M270.26,217.62l.26,0-.9-3.25-.38-.06.93,3.25Z" transform="translate(-2.86 -40.06)"/><path class="cls-7" d="M276.77,206.82c0,.17,0,.33,0,.49l2.5,1.58c0-.15,0-.3,0-.46Z" transform="translate(-2.86 -40.06)"/><path class="cls-7" d="M265.86,216.08l.41.21-.12-2.94-.43-.22Z" transform="translate(-2.86 -40.06)"/><path class="cls-7" d="M265.86,184.1l-.15,2.77.45.28.11-2.78Z" transform="translate(-2.86 -40.06)"/><path class="cls-7" d="M269.14,217.4l-.64-3.18-.4-.11.66,3.18Z" transform="translate(-2.86 -40.06)"/><path class="cls-7" d="M268.73,186.24l-.66,2.35.46.4.63-2.38Z" transform="translate(-2.86 -40.06)"/><path class="cls-7" d="M273.27,194.85l.36.62,1.72-1c-.12-.2-.23-.4-.35-.59Z" transform="translate(-2.86 -40.06)"/><path class="cls-7" d="M267.71,216.94l-.38-3.08-.41-.17.4,3.09Z" transform="translate(-2.86 -40.06)"/><path class="cls-7" d="M267.3,185.09l-.4,2.57.46.35.37-2.6C267.59,185.3,267.45,185.19,267.3,185.09Z" transform="translate(-2.86 -40.06)"/><path class="cls-7" d="M276.35,202.48c0,.19.08.39.11.59l2.39.62c0-.18-.07-.37-.11-.55Z" transform="translate(-2.86 -40.06)"/><path class="cls-7" d="M275.35,216.76l-1.81-3.14-.27.15,1.83,3.13Z" transform="translate(-2.86 -40.06)"/><path class="cls-7" d="M278.78,211.9l.09-.37-2.44-2.17c0,.13-.07.26-.1.39Z" transform="translate(-2.86 -40.06)"/><path class="cls-7" d="M278.44,212.89l-2.37-2.42-.14.35,2.39,2.4.09-.25Z" transform="translate(-2.86 -40.06)"/><path class="cls-7" d="M276.78,206l2.49,1.27,0-.49-2.48-1.31C276.77,205.61,276.77,205.78,276.78,206Z" transform="translate(-2.86 -40.06)"/><path class="cls-7" d="M279.07,205l-2.45-1c0,.17,0,.35.06.56l2.45,1Z" transform="translate(-2.86 -40.06)"/><path class="cls-7" d="M276.6,208.58l2.49,1.87.06-.41-2.49-1.9C276.64,208.3,276.62,208.44,276.6,208.58Z" transform="translate(-2.86 -40.06)"/><path class="cls-7" d="M278.26,201.27l-2.3-.33.15.57v.05l2.3.29v0Z" transform="translate(-2.86 -40.06)"/><path class="cls-7" d="M276.31,216.05l-2-3a2.12,2.12,0,0,1-.24.2l2,3Z" transform="translate(-2.86 -40.06)"/><path class="cls-7" d="M276,195.67l-1.91.66c.11.21.21.42.32.64l1.89-.69h0Z" transform="translate(-2.86 -40.06)"/><path class="cls-7" d="M277.11,215.22l0-.05L275,212.31a2.65,2.65,0,0,1-.21.26l2.17,2.84Z" transform="translate(-2.86 -40.06)"/><path class="cls-7" d="M276.89,197.52l-2.07.33.27.64,2.05-.36,0-.1Z" transform="translate(-2.86 -40.06)"/><path class="cls-7" d="M277.64,199.39h-2.19c.07.19.13.38.19.58l0,.06,2.19,0s0-.09-.05-.13S277.7,199.55,277.64,199.39Z" transform="translate(-2.86 -40.06)"/><path class="cls-7" d="M277.71,214.4a1.14,1.14,0,0,0,.1-.19l.06-.1-2.27-2.66a3.14,3.14,0,0,1-.18.31Z" transform="translate(-2.86 -40.06)"/><path class="cls-7" d="M254.32,197.09c0-.2-.08-.39-.11-.59l-2.39-.63c0,.19.07.37.12.56Z" transform="translate(-2.86 -40.06)"/><path class="cls-7" d="M253,200.17h2.2c-.07-.19-.13-.37-.19-.56l0-.08-2.18,0a.88.88,0,0,0,0,.15A4,4,0,0,0,253,200.17Z" transform="translate(-2.86 -40.06)"/><path class="cls-7" d="M252.81,185.46l2.26,2.65.18-.31L253,185.17a1.62,1.62,0,0,1-.1.18Z" transform="translate(-2.86 -40.06)"/><path class="cls-7" d="M253.57,184.34l0,.06,2.14,2.85.21-.25-2.16-2.84A.86.86,0,0,0,253.57,184.34Z" transform="translate(-2.86 -40.06)"/><path class="cls-7" d="M254.36,183.51l2,3,.24-.21-2-3Z" transform="translate(-2.86 -40.06)"/><path class="cls-7" d="M256.58,203.24c-.11-.21-.21-.43-.32-.64l-1.89.69.3.6Z" transform="translate(-2.86 -40.06)"/><path class="cls-7" d="M252.41,198.29l2.3.34-.15-.57V198l-2.29-.3v0Z" transform="translate(-2.86 -40.06)"/><path class="cls-7" d="M253.79,202.05l2.06-.33-.27-.65-2,.37.05.12C253.65,201.72,253.72,201.89,253.79,202.05Z" transform="translate(-2.86 -40.06)"/><path class="cls-7" d="M264.82,215.47l.14-2.78a4.92,4.92,0,0,1-.45-.28l-.11,2.79Z" transform="translate(-2.86 -40.06)"/><path class="cls-7" d="M253.9,192.74c0-.16,0-.32,0-.48l-2.5-1.58c0,.15,0,.3,0,.45Z" transform="translate(-2.86 -40.06)"/><path class="cls-7" d="M251.43,192.83l2.49,1.3c0-.17,0-.35,0-.52l-2.49-1.27C251.41,192.5,251.42,192.67,251.43,192.83Z" transform="translate(-2.86 -40.06)"/><path class="cls-7" d="M251.61,194.6l2.45,1c0-.19-.05-.38-.07-.56l-2.45-1C251.56,194.25,251.58,194.42,251.61,194.6Z" transform="translate(-2.86 -40.06)"/><path class="cls-7" d="M254.07,191l-2.49-1.88c0,.14,0,.28-.05.42l2.48,1.9Z" transform="translate(-2.86 -40.06)"/><path class="cls-7" d="M252.23,186.67l2.37,2.43a3.65,3.65,0,0,1,.14-.35l-2.38-2.41a2.77,2.77,0,0,0-.1.26Z" transform="translate(-2.86 -40.06)"/><path class="cls-7" d="M255.33,182.81l1.8,3.14.28-.16-1.83-3.13A2.07,2.07,0,0,0,255.33,182.81Z" transform="translate(-2.86 -40.06)"/><path class="cls-7" d="M251.9,187.66c0,.13-.07.25-.1.38l2.44,2.17c0-.13.07-.27.11-.4Z" transform="translate(-2.86 -40.06)"/><path class="cls-7" d="M260.42,181.94l-.27,0,.9,3.25a2.5,2.5,0,0,1,.38.06l-.92-3.25Z" transform="translate(-2.86 -40.06)"/><path class="cls-7" d="M262,213.33l.65-2.36-.46-.4-.62,2.38C261.66,213.08,261.8,213.21,262,213.33Z" transform="translate(-2.86 -40.06)"/><path class="cls-7" d="M260.13,211.61l.38.38.05,0,.9-2.12-.07-.06-.39-.39Z" transform="translate(-2.86 -40.06)"/><path class="cls-7" d="M261.54,182.17l.64,3.18.4.11-.67-3.18Z" transform="translate(-2.86 -40.06)"/><path class="cls-7" d="M263,182.63l.38,3.07.42.17-.41-3.08Z" transform="translate(-2.86 -40.06)"/><path class="cls-7" d="M257.41,204.72q-.2-.32-.36-.63l-1.72,1,.34.59Z" transform="translate(-2.86 -40.06)"/><path class="cls-7" d="M263.37,214.48l.4-2.58-.45-.34-.38,2.59C263.08,214.27,263.23,214.37,263.37,214.48Z" transform="translate(-2.86 -40.06)"/><path class="cls-7" d="M264.4,183.28l.12,2.94.43.22-.14-2.95Z" transform="translate(-2.86 -40.06)"/><path class="cls-7" d="M256.77,207.42l1.55-1.28-.4-.59-1.53,1.31c.12.18.25.36.37.55Z" transform="translate(-2.86 -40.06)"/><path class="cls-7" d="M256.4,182.28l1.61,3.24.3-.11-1.63-3.22Z" transform="translate(-2.86 -40.06)"/><path class="cls-7" d="M257.8,181.92l-.23,0,1.39,3.28a1.64,1.64,0,0,1,.32-.05l-1.4-3.27Z" transform="translate(-2.86 -40.06)"/><path class="cls-7" d="M258.8,210.13c.11.13.22.26.34.38l.09.1,1.12-1.85,0,0c-.14-.16-.28-.31-.41-.47Z" transform="translate(-2.86 -40.06)"/><path class="cls-7" d="M259,181.83h-.21l1.14,3.29h.36l-1.17-3.27Z" transform="translate(-2.86 -40.06)"/><path class="cls-7" d="M258,209.06l1.34-1.57-.42-.55-1.33,1.6.33.43Z" transform="translate(-2.86 -40.06)"/><path class="cls-5" d="M272.9,205.69c0,2.72-.94,4.64-2.46,5.58-.05,0-5.54,1.43-5.58,1.46-1.43.76-.52-1-2.69-2.17-4.36-2.41-7.9-8.25-7.9-13,0-2.36-2.29-2.38-.89-3.17l4.56-4.46c1.63-.88,3.79-.72,6.18.65C269,193.34,272.9,200.12,272.9,205.69Z" transform="translate(-2.86 -40.06)"/><ellipse class="cls-3" cx="258.97" cy="203.62" rx="6.35" ry="10.79" transform="translate(-71.78 131.71) rotate(-32.63)"/><path class="cls-15" d="M259.32,194.75c-2.1-1.16-4-1.32-5.43-.64a6.48,6.48,0,0,1,4.75.89c4.38,2.42,7.94,8.29,7.94,13.11,0,2.5-1,4.23-2.51,5,1.94-.52,3.2-2.37,3.2-5.23C267.27,203,263.71,197.17,259.32,194.75Z" transform="translate(-2.86 -40.06)"/><polygon class="cls-10" points="263.7 152.51 269.17 148.87 266.32 155.3 263.7 152.51"/><path class="cls-4" d="M177.55,201.75l-64.39-37.17c-2.54-1.47-2.22-4,.71-5.73l36.55-21.1c2.93-1.7,7.38-1.88,9.92-.41l64.39,37.17c2.54,1.47,2.22,4-.71,5.73l-36.55,21.1C184.54,203,180.1,203.22,177.55,201.75Z" transform="translate(-2.86 -40.06)"/><path class="cls-9" d="M177.55,198.12,113.16,161a3,3,0,0,1-1.71-2.45v-3.19c0-1.11.84.82,2.42-.09l36.55-21.1c2.93-1.7,7.38-1.88,9.92-.41l64.39,37.18c.85.49,1.46-1.59,1.68-.93.08.22,0,3.13,0,3.36,0,1.14-.8,2.35-2.43,3.29l-36.55,21.1C184.54,199.41,180.1,199.59,177.55,198.12Z" transform="translate(-2.86 -40.06)"/><path class="cls-3" d="M177.55,195l-64.39-37.17c-2.54-1.47-2.22-4,.71-5.73L150.42,131c2.93-1.7,7.38-1.88,9.92-.41l64.39,37.17c2.54,1.47,2.22,4-.71,5.73l-36.55,21.1C184.54,196.28,180.1,196.46,177.55,195Z" transform="translate(-2.86 -40.06)"/><path class="cls-16" d="M177.55,198.12c2.55,1.47,7,1.29,9.92-.41v-3.13c-2.93,1.7-7.37,1.88-9.92.41Z" transform="translate(-2.86 -40.06)"/><path class="cls-11" d="M177.55,195l-64.39-37.17a2.87,2.87,0,0,1-1.7-2.68.86.86,0,0,0,0,.17v3.19a3,3,0,0,0,1.71,2.45l64.39,37.17Z" transform="translate(-2.86 -40.06)"/><path class="cls-2" d="M224,173l-36.55,21.1c-2.93,1.69-7.37,1.88-9.92.41l-64.39-37.18a3.05,3.05,0,0,1-1.7-2.25,2.86,2.86,0,0,0,1.7,2.79L177.55,195c2.55,1.47,7,1.29,9.92-.41L224,173.48c1.72-1,2.53-2.28,2.41-3.47A4.36,4.36,0,0,1,224,173Z" transform="translate(-2.86 -40.06)"/><path class="cls-17" d="M162.9,182,140,168.77c-.46-.26-.4-.72.13-1l8.6-5a2,2,0,0,1,1.79-.07l22.92,13.23c.46.26.4.73-.13,1l-8.6,5A2,2,0,0,1,162.9,182Z" transform="translate(-2.86 -40.06)"/><path class="cls-5" d="M140.11,168.28l8.6-5a2,2,0,0,1,1.79-.08l22.92,13.23a.78.78,0,0,1,.21.19.48.48,0,0,0-.21-.73L150.5,162.7a2,2,0,0,0-1.79.07l-8.6,5c-.42.24-.54.58-.34.85A.94.94,0,0,1,140.11,168.28Z" transform="translate(-2.86 -40.06)"/><path class="cls-6" d="M156.15,135.36l3.95,2.28a2,2,0,0,0,1.81,0c.5-.29.5-.76,0-1l-4-2.28a2,2,0,0,0-1.81,0C155.64,134.6,155.64,135.07,156.15,135.36Zm6.76,3.9,1.87,1.08a2,2,0,0,0,1.81,0,.55.55,0,0,0,0-1l-1.87-1.08a2,2,0,0,0-1.82,0C162.4,138.5,162.41,139,162.91,139.26Zm4.68,2.7,1.87,1.08a2,2,0,0,0,1.82,0c.5-.29.49-.76,0-1.05l-1.87-1.08a2,2,0,0,0-1.81,0C167.09,141.2,167.09,141.67,167.59,142Zm4.69,2.71,1.87,1.08a2,2,0,0,0,1.81,0c.5-.29.5-.76,0-1.05l-1.87-1.08a2,2,0,0,0-1.81,0C171.77,143.91,171.77,144.38,172.28,144.67Zm4.68,2.7,1.87,1.08a2,2,0,0,0,1.81,0c.5-.28.5-.75,0-1l-1.87-1.08a2,2,0,0,0-1.82,0C176.45,146.61,176.46,147.08,177,147.37Zm4.68,2.71,1.87,1.08a2,2,0,0,0,1.82,0c.5-.29.49-.76,0-1L183.45,149a2,2,0,0,0-1.81,0A.55.55,0,0,0,181.64,150.08Zm4.69,2.7,1.87,1.08a2,2,0,0,0,1.81,0c.5-.29.5-.75,0-1l-1.87-1.08a2,2,0,0,0-1.81,0C185.82,152,185.82,152.49,186.33,152.78Zm4.68,2.7,1.87,1.08a2,2,0,0,0,1.81,0,.56.56,0,0,0,0-1l-1.87-1.08a2,2,0,0,0-1.82,0C190.5,154.72,190.51,155.19,191,155.48Zm4.68,2.71,1.87,1.08a2,2,0,0,0,1.82,0c.5-.29.49-.76,0-1.05l-1.87-1.08a2,2,0,0,0-1.81,0A.56.56,0,0,0,195.69,158.19Zm4.69,2.7,1.87,1.08a2,2,0,0,0,1.81,0c.5-.28.5-.75,0-1l-1.87-1.08a2,2,0,0,0-1.81,0C199.87,160.13,199.87,160.6,200.38,160.89Zm4.68,2.71,1.87,1.08a2,2,0,0,0,1.81,0,.55.55,0,0,0,0-1.05l-1.87-1.08a2,2,0,0,0-1.82,0C204.55,162.84,204.56,163.31,205.06,163.6Zm4.68,2.7,1.87,1.08a2,2,0,0,0,1.82,0c.5-.29.49-.75,0-1l-1.87-1.08a2,2,0,0,0-1.81,0A.55.55,0,0,0,209.74,166.3Zm4.78,2.76,1.87,1.08a2,2,0,0,0,1.82,0c.5-.29.49-.75,0-1L216.33,168a2,2,0,0,0-1.81,0A.56.56,0,0,0,214.52,169.06Zm-62.59-31.13,1.62.94a2.29,2.29,0,0,0,2.07,0l1.61-.93a.63.63,0,0,0,0-1.19l-1.62-.93a2.27,2.27,0,0,0-2.06,0l-1.61.93A.63.63,0,0,0,151.93,137.93Zm8.37,3.65,1.61-.93a.63.63,0,0,0,0-1.2l-1.62-.93a2.27,2.27,0,0,0-2.06,0l-1.61.92a.63.63,0,0,0,0,1.2l1.62.93A2.3,2.3,0,0,0,160.3,141.58Zm1,1.76,1.62.94a2.27,2.27,0,0,0,2.06,0l1.61-.93a.63.63,0,0,0,0-1.19l-1.62-.94a2.29,2.29,0,0,0-2.07,0l-1.61.93A.63.63,0,0,0,161.3,143.34ZM166,146l1.62.94a2.29,2.29,0,0,0,2.07,0l1.61-.93c.57-.32.56-.86,0-1.19l-1.62-.93a2.3,2.3,0,0,0-2.06,0l-1.61.93A.63.63,0,0,0,166,146Zm10,1.53-1.62-.94a2.27,2.27,0,0,0-2.06,0l-1.61.93c-.57.32-.56.86,0,1.19l1.62.93a2.27,2.27,0,0,0,2.06,0l1.61-.93C176.53,148.43,176.53,147.9,176,147.57Zm4.69,2.7-1.62-.93a2.29,2.29,0,0,0-2.07,0l-1.61.93a.63.63,0,0,0,0,1.19l1.62.94a2.27,2.27,0,0,0,2.06,0l1.61-.93A.63.63,0,0,0,180.64,150.27Zm4.68,2.7L183.7,152a2.27,2.27,0,0,0-2.06,0L180,153a.63.63,0,0,0,0,1.2l1.62.93a2.32,2.32,0,0,0,2.07,0l1.61-.93A.63.63,0,0,0,185.32,153Zm4.68,2.71-1.62-.94a2.27,2.27,0,0,0-2.06,0l-1.61.93c-.57.33-.56.86,0,1.19l1.62.94a2.27,2.27,0,0,0,2.06,0l1.61-.93C190.58,156.54,190.58,156,190,155.68Zm4.69,2.7-1.62-.93a2.32,2.32,0,0,0-2.07,0l-1.6.93a.63.63,0,0,0,0,1.19l1.62.94a2.27,2.27,0,0,0,2.06,0l1.61-.93A.63.63,0,0,0,194.69,158.38Zm4.68,2.71-1.62-.94a2.27,2.27,0,0,0-2.06,0l-1.61.93c-.57.32-.57.86,0,1.19l1.61.93a2.32,2.32,0,0,0,2.07,0l1.61-.93C200,162,199.94,161.42,199.37,161.09Zm-.6,3.88,1.62.94a2.27,2.27,0,0,0,2.06,0l1.61-.93c.57-.33.57-.86,0-1.19l-1.61-.93a2.29,2.29,0,0,0-2.07,0l-1.61.93C198.19,164.11,198.2,164.64,198.77,165Zm10,1.52-1.62-.93a2.27,2.27,0,0,0-2.06,0l-1.61.92a.63.63,0,0,0,0,1.2l1.62.93a2.32,2.32,0,0,0,2.07,0l1.6-.93A.63.63,0,0,0,208.74,166.49Zm6.86,4-3.7-2.13a2.27,2.27,0,0,0-2.06,0l-1.61.93a.63.63,0,0,0,0,1.19l3.7,2.13a2.3,2.3,0,0,0,2.06,0l1.61-.93A.63.63,0,0,0,215.6,170.45Zm-68-30,3.69,2.13a2.32,2.32,0,0,0,2.07,0l1.61-.93c.57-.33.56-.86,0-1.19l-3.7-2.14a2.27,2.27,0,0,0-2.06,0l-1.61.93C147,139.57,147,140.11,147.6,140.44Zm6.76,3.9,1.62.94a2.27,2.27,0,0,0,2.06,0l1.61-.93c.57-.33.57-.86,0-1.19l-1.62-.94a2.27,2.27,0,0,0-2.06,0l-1.61.93C153.78,143.48,153.79,144,154.36,144.34Zm6.3,3.64a2.27,2.27,0,0,0,2.06,0l1.61-.93a.63.63,0,0,0,0-1.19l-1.62-.93a2.32,2.32,0,0,0-2.07,0l-1.6.93a.63.63,0,0,0,0,1.19Zm4.68,2.7a2.29,2.29,0,0,0,2.07,0l1.61-.93c.57-.33.56-.86,0-1.19l-1.62-.94a2.27,2.27,0,0,0-2.06,0l-1.61.93c-.57.33-.57.86,0,1.19Zm4.67-.35-1.61.93c-.57.33-.56.86,0,1.19l1.62.94a2.27,2.27,0,0,0,2.06,0l1.61-.93c.57-.33.57-.86,0-1.19l-1.61-.93A2.29,2.29,0,0,0,170,150.33Zm4.78,2.65-1.8,1a.57.57,0,0,0,0,1.08l1.82,1.05a2.06,2.06,0,0,0,1.87,0l1.8-1a.57.57,0,0,0,0-1.08L176.66,153A2.06,2.06,0,0,0,174.79,153Zm4.69,2.7-1.81,1a.56.56,0,0,0,0,1.07l1.81,1a2.09,2.09,0,0,0,1.87,0l1.81-1.05a.56.56,0,0,0,0-1.07l-1.82-1.05A2.07,2.07,0,0,0,179.48,155.68Zm4.68,2.71-1.81,1a.57.57,0,0,0,0,1.08l1.82,1.05a2,2,0,0,0,1.86,0l1.81-1a.57.57,0,0,0,0-1.08L186,158.39A2.06,2.06,0,0,0,184.16,158.39Zm4.68,2.7-1.8,1a.57.57,0,0,0,0,1.08l1.82,1a2.06,2.06,0,0,0,1.87,0l1.8-1a.57.57,0,0,0,0-1.08l-1.82-1A2.09,2.09,0,0,0,188.84,161.09Zm4.69,2.71-1.81,1c-.51.29-.51.78,0,1.08l1.82,1.05a2.07,2.07,0,0,0,1.86,0l1.81-1a.57.57,0,0,0,0-1.08l-1.82-1A2,2,0,0,0,193.53,163.8Zm6.56,5.87,1.81-1a.57.57,0,0,0,0-1.08l-1.82-1.05a2.06,2.06,0,0,0-1.87,0l-1.81,1a.57.57,0,0,0,0,1.08l1.82,1A2,2,0,0,0,200.09,169.67Zm4.69,2.71,1.8-1a.56.56,0,0,0,0-1.07l-1.82-1a2.09,2.09,0,0,0-1.87,0l-1.8,1.05c-.52.29-.51.77,0,1.07l1.82,1.05A2.09,2.09,0,0,0,204.78,172.38Zm6.58.64L209.54,172a2.07,2.07,0,0,0-1.86,0l-1.81,1a.56.56,0,0,0,0,1.07l1.82,1a2.09,2.09,0,0,0,1.87,0l1.81-1C211.88,173.8,211.88,173.32,211.36,173Zm-68.2-30.14,5.87,3.39a2.09,2.09,0,0,0,1.87,0l1.8-1.05c.52-.29.51-.77,0-1.07l-5.87-3.39a2.09,2.09,0,0,0-1.87,0l-1.81,1.05A.56.56,0,0,0,143.16,142.88Zm8.74,5.05,1.81,1a2.06,2.06,0,0,0,1.87,0l1.81-1a.57.57,0,0,0,0-1.08l-1.82-1.05a2,2,0,0,0-1.86,0l-1.81,1A.57.57,0,0,0,151.9,147.93Zm4.68,2.7,1.82,1.05a2.07,2.07,0,0,0,1.86,0l1.81-1.05a.56.56,0,0,0,0-1.07l-1.81-1a2.09,2.09,0,0,0-1.87,0l-1.81,1.05C156.06,149.85,156.06,150.33,156.58,150.63Zm4.68,2.71,1.82,1a2.09,2.09,0,0,0,1.87,0l1.8-1a.57.57,0,0,0,0-1.08l-1.82-1.05a2.06,2.06,0,0,0-1.87,0l-1.8,1A.57.57,0,0,0,161.26,153.34Zm8.37,3.75,1.81-1a.57.57,0,0,0,0-1.08l-1.82-1.05a2,2,0,0,0-1.86,0l-1.81,1a.57.57,0,0,0,0,1.08l1.81,1.05A2.06,2.06,0,0,0,169.63,157.09Zm4.68,2.71,1.81-1.05c.51-.29.51-.77,0-1.07l-1.81-1.05a2.09,2.09,0,0,0-1.87,0l-1.81,1a.56.56,0,0,0,0,1.07l1.82,1A2.07,2.07,0,0,0,174.31,159.8Zm4.69,2.7,1.8-1a.57.57,0,0,0,0-1.08l-1.82-1a2.06,2.06,0,0,0-1.87,0l-1.8,1a.57.57,0,0,0,0,1.08l1.82,1.05A2.06,2.06,0,0,0,179,162.5Zm4.68,2.71,1.81-1.05a.56.56,0,0,0,0-1.07L183.66,162a2.07,2.07,0,0,0-1.86,0L180,163.08c-.51.29-.51.77,0,1.07l1.81,1A2.09,2.09,0,0,0,183.68,165.21Zm4.68,2.7,1.81-1a.57.57,0,0,0,0-1.08l-1.82-1a2.06,2.06,0,0,0-1.87,0l-1.81,1a.57.57,0,0,0,0,1.08l1.82,1A2.07,2.07,0,0,0,188.36,167.91Zm4.69,2.7,1.8-1a.57.57,0,0,0,0-1.08L193,167.44a2.06,2.06,0,0,0-1.87,0l-1.8,1a.57.57,0,0,0,0,1.08l1.82,1.05A2.06,2.06,0,0,0,193.05,170.61Zm1,1.65,1.82,1.05a2.07,2.07,0,0,0,1.86,0l1.81-1c.51-.29.51-.77,0-1.07l-1.82-1a2.07,2.07,0,0,0-1.86,0L194,171.19A.56.56,0,0,0,194.05,172.26Zm13,3.26-4.62-2.67a2.06,2.06,0,0,0-1.87,0l-1.81,1a.57.57,0,0,0,0,1.08l4.62,2.67a2.06,2.06,0,0,0,1.87,0l1.81-1A.57.57,0,0,0,207,175.52Zm-68.18-30,8.33,4.81a2.31,2.31,0,0,0,2.11,0l1.56-.9a.65.65,0,0,0,0-1.22l-8.33-4.81a2.31,2.31,0,0,0-2.11,0l-1.57.9C138.25,144.64,138.26,145.18,138.84,145.52Zm11.44,6.6,1.57.91a2.34,2.34,0,0,0,2.11,0l1.57-.91c.58-.33.57-.88,0-1.21l-1.58-.91a2.32,2.32,0,0,0-2.1,0l-1.57.91A.64.64,0,0,0,150.28,152.12Zm4.68,2.71,1.58.91a2.35,2.35,0,0,0,2.1,0l1.57-.9c.58-.34.58-.88,0-1.22l-1.57-.91a2.31,2.31,0,0,0-2.11,0l-1.57.9C154.37,153.94,154.38,154.49,155,154.83Zm4.68,2.7,1.58.91a2.31,2.31,0,0,0,2.11,0l1.56-.9a.65.65,0,0,0,0-1.22l-1.58-.91a2.34,2.34,0,0,0-2.11,0l-1.56.9A.65.65,0,0,0,159.64,157.53Zm4.69,2.7,1.57.91a2.34,2.34,0,0,0,2.11,0l1.57-.91c.58-.33.57-.88,0-1.21l-1.58-.91a2.32,2.32,0,0,0-2.1,0l-1.57.91A.64.64,0,0,0,164.33,160.23Zm4.68,2.71,1.58.91a2.29,2.29,0,0,0,2.1,0l1.57-.9c.58-.34.58-.88,0-1.22l-1.57-.91a2.31,2.31,0,0,0-2.11,0l-1.56.9A.65.65,0,0,0,169,162.94Zm4.69,2.7,1.57.91a2.34,2.34,0,0,0,2.11,0l1.56-.91a.64.64,0,0,0,0-1.21l-1.58-.91a2.34,2.34,0,0,0-2.11,0l-1.56.91A.64.64,0,0,0,173.7,165.64Zm4.68,2.71,1.57.91a2.37,2.37,0,0,0,2.11,0l1.57-.9c.58-.34.57-.88,0-1.22l-1.57-.91a2.31,2.31,0,0,0-2.11,0l-1.57.9C177.79,167.46,177.79,168,178.38,168.35Zm4.68,2.7,1.58.91a2.29,2.29,0,0,0,2.1,0l1.57-.9c.58-.34.58-.88,0-1.22l-1.57-.91a2.34,2.34,0,0,0-2.11,0l-1.56.9A.65.65,0,0,0,183.06,171.05Zm4.69,2.7,1.57.91a2.34,2.34,0,0,0,2.11,0l1.56-.91a.64.64,0,0,0,0-1.21l-1.58-.91a2.32,2.32,0,0,0-2.1,0l-1.57.91A.64.64,0,0,0,187.75,173.75Zm4.68,2.71,1.58.91a2.29,2.29,0,0,0,2.1,0l1.57-.9c.58-.34.58-.88,0-1.22l-1.57-.91a2.31,2.31,0,0,0-2.11,0l-1.57.9C191.84,175.58,191.85,176.12,192.43,176.46Zm10,1.56-1.58-.91a2.32,2.32,0,0,0-2.1,0l-1.57.91a.64.64,0,0,0,0,1.21l1.57.91a2.34,2.34,0,0,0,2.11,0l1.57-.91C203.05,178.9,203,178.35,202.46,178Zm-60.64-30-3.65-2.11a2.34,2.34,0,0,0-2.11,0l-1.57.91c-.58.33-.57.88,0,1.21l3.66,2.11a2.32,2.32,0,0,0,2.1,0l1.57-.91A.64.64,0,0,0,141.82,148Zm4.69,2.7-1.58-.91a2.31,2.31,0,0,0-2.11,0l-1.56.9a.65.65,0,0,0,0,1.22l1.58.91a2.34,2.34,0,0,0,2.11,0l1.56-.9A.65.65,0,0,0,146.51,150.72Zm4.68,2.7-1.58-.91a2.32,2.32,0,0,0-2.1,0l-1.57.9c-.58.34-.58.88,0,1.22l1.57.91a2.31,2.31,0,0,0,2.11,0l1.57-.9C151.78,154.31,151.77,153.76,151.19,153.42ZM184,172.35,154.3,155.22a2.34,2.34,0,0,0-2.11,0l-1.57.91c-.58.33-.57.88,0,1.21l29.68,17.14a2.29,2.29,0,0,0,2.1,0l1.57-.9C184.56,173.23,184.56,172.69,184,172.35Zm4.69,2.71-1.58-.91a2.34,2.34,0,0,0-2.11,0l-1.56.91a.64.64,0,0,0,0,1.21l1.58.91a2.34,2.34,0,0,0,2.11,0l1.56-.91A.64.64,0,0,0,188.66,175.06Zm4.68,2.7-1.58-.91a2.29,2.29,0,0,0-2.1,0l-1.57.9c-.58.33-.58.88,0,1.22l1.57.91a2.34,2.34,0,0,0,2.11,0l1.57-.9C193.93,178.64,193.92,178.1,193.34,177.76Zm4.78,2.76-1.58-.91a2.29,2.29,0,0,0-2.1,0l-1.57.9c-.58.34-.58.88,0,1.22l1.57.91a2.34,2.34,0,0,0,2.11,0l1.57-.9C198.71,181.4,198.7,180.86,198.12,180.52Z" transform="translate(-2.86 -40.06)"/><path class="cls-5" d="M156.15,134.92l3.95,2.28a2,2,0,0,0,1.81,0c.5-.29.5-.75,0-1l-4-2.28a2,2,0,0,0-1.81,0C155.64,134.16,155.64,134.63,156.15,134.92Zm6.76,3.9,1.87,1.08a2,2,0,0,0,1.81,0,.55.55,0,0,0,0-1l-1.87-1.08a2,2,0,0,0-1.82,0C162.4,138.06,162.41,138.53,162.91,138.82Zm4.68,2.71,1.87,1.08a2,2,0,0,0,1.82,0c.5-.29.49-.76,0-1.05l-1.87-1.08a2,2,0,0,0-1.81,0A.56.56,0,0,0,167.59,141.53Zm4.69,2.7,1.87,1.08a2,2,0,0,0,1.81,0c.5-.28.5-.75,0-1l-1.87-1.08a2,2,0,0,0-1.81,0C171.77,143.47,171.77,143.94,172.28,144.23Zm4.68,2.71,1.87,1.08a2,2,0,0,0,1.81,0,.55.55,0,0,0,0-1.05l-1.87-1.08a2,2,0,0,0-1.82,0C176.45,146.18,176.46,146.65,177,146.94Zm4.68,2.7,1.87,1.08a2,2,0,0,0,1.82,0c.5-.29.49-.75,0-1l-1.87-1.08a2,2,0,0,0-1.81,0A.56.56,0,0,0,181.64,149.64Zm4.69,2.7,1.87,1.08a2,2,0,0,0,1.81,0c.5-.29.5-.76,0-1.05l-1.87-1.08a2,2,0,0,0-1.81,0C185.82,151.58,185.82,152.05,186.33,152.34Zm4.68,2.71,1.87,1.08a2,2,0,0,0,1.81,0,.55.55,0,0,0,0-1L192.82,154a2,2,0,0,0-1.82,0C190.5,154.29,190.51,154.76,191,155.05Zm4.68,2.7,1.87,1.08a2,2,0,0,0,1.82,0c.5-.28.49-.75,0-1l-1.87-1.08a2,2,0,0,0-1.81,0A.56.56,0,0,0,195.69,157.75Zm4.69,2.71,1.87,1.08a2,2,0,0,0,1.81,0c.5-.29.5-.76,0-1l-1.87-1.08a2,2,0,0,0-1.81,0C199.87,159.7,199.87,160.17,200.38,160.46Zm4.68,2.7,1.87,1.08a2,2,0,0,0,1.81,0,.55.55,0,0,0,0-1l-1.87-1.08a2,2,0,0,0-1.82,0C204.55,162.4,204.56,162.87,205.06,163.16Zm4.68,2.7,1.87,1.08a2,2,0,0,0,1.82,0c.5-.29.49-.76,0-1l-1.87-1.08a2,2,0,0,0-1.81,0C209.24,165.1,209.24,165.57,209.74,165.86Zm4.78,2.76,1.87,1.08a2,2,0,0,0,1.82,0c.5-.29.49-.76,0-1.05l-1.87-1.08a2,2,0,0,0-1.81,0C214,167.86,214,168.33,214.52,168.62ZM151.93,137.5l1.62.93a2.29,2.29,0,0,0,2.07,0l1.61-.92a.64.64,0,0,0,0-1.2l-1.62-.93a2.27,2.27,0,0,0-2.06,0l-1.61.92A.63.63,0,0,0,151.93,137.5Zm8.37,3.64,1.61-.93c.57-.33.57-.86,0-1.19l-1.62-.94a2.27,2.27,0,0,0-2.06,0l-1.61.93c-.57.33-.56.86,0,1.19l1.62.94A2.27,2.27,0,0,0,160.3,141.14Zm1,1.76,1.62.94a2.27,2.27,0,0,0,2.06,0l1.61-.93a.63.63,0,0,0,0-1.19l-1.62-.93a2.32,2.32,0,0,0-2.07,0l-1.61.93A.63.63,0,0,0,161.3,142.9Zm4.68,2.71,1.62.93a2.32,2.32,0,0,0,2.07,0l1.61-.93c.57-.33.56-.86,0-1.19l-1.62-.94a2.27,2.27,0,0,0-2.06,0l-1.61.93A.63.63,0,0,0,166,145.61Zm10,1.52-1.62-.93a2.27,2.27,0,0,0-2.06,0l-1.61.93c-.57.33-.56.86,0,1.19l1.62.94a2.27,2.27,0,0,0,2.06,0l1.61-.93C176.53,148,176.53,147.46,176,147.13Zm4.69,2.7L179,148.9a2.29,2.29,0,0,0-2.07,0l-1.61.92a.64.64,0,0,0,0,1.2L177,152a2.27,2.27,0,0,0,2.06,0l1.61-.92A.63.63,0,0,0,180.64,149.83Zm4.68,2.71-1.62-.94a2.27,2.27,0,0,0-2.06,0l-1.61.93a.63.63,0,0,0,0,1.19l1.62.94a2.29,2.29,0,0,0,2.07,0l1.61-.93C185.9,153.4,185.89,152.87,185.32,152.54Zm4.68,2.7-1.62-.93a2.3,2.3,0,0,0-2.06,0l-1.61.93c-.57.33-.56.86,0,1.19l1.62.94a2.27,2.27,0,0,0,2.06,0l1.61-.93C190.58,156.11,190.58,155.57,190,155.24Zm4.69,2.71-1.62-.94a2.29,2.29,0,0,0-2.07,0l-1.6.93a.63.63,0,0,0,0,1.19l1.62.93a2.3,2.3,0,0,0,2.06,0l1.61-.93A.63.63,0,0,0,194.69,158Zm4.68,2.7-1.62-.93a2.27,2.27,0,0,0-2.06,0l-1.61.93c-.57.33-.57.86,0,1.19l1.61.94a2.29,2.29,0,0,0,2.07,0l1.61-.93C200,161.51,199.94,161,199.37,160.65Zm-.6,3.89,1.62.93a2.27,2.27,0,0,0,2.06,0l1.61-.92a.63.63,0,0,0,0-1.2l-1.61-.93a2.29,2.29,0,0,0-2.07,0l-1.61.92A.63.63,0,0,0,198.77,164.54Zm10,1.52-1.62-.94a2.27,2.27,0,0,0-2.06,0l-1.61.93a.63.63,0,0,0,0,1.19l1.62.94a2.29,2.29,0,0,0,2.07,0l1.6-.93A.63.63,0,0,0,208.74,166.06Zm6.86,4-3.7-2.14a2.27,2.27,0,0,0-2.06,0l-1.61.93a.63.63,0,0,0,0,1.19l3.7,2.14a2.27,2.27,0,0,0,2.06,0l1.61-.93A.63.63,0,0,0,215.6,170Zm-68-30,3.69,2.14a2.29,2.29,0,0,0,2.07,0l1.61-.93c.57-.33.56-.86,0-1.19l-3.7-2.14a2.27,2.27,0,0,0-2.06,0l-1.61.93C147,139.14,147,139.67,147.6,140Zm6.76,3.9,1.62.94a2.27,2.27,0,0,0,2.06,0l1.61-.93c.57-.32.57-.86,0-1.19l-1.62-.93a2.3,2.3,0,0,0-2.06,0l-1.61.93C153.78,143,153.79,143.57,154.36,143.9Zm6.3,3.64a2.27,2.27,0,0,0,2.06,0l1.61-.93a.63.63,0,0,0,0-1.19l-1.62-.94a2.29,2.29,0,0,0-2.07,0l-1.6.93a.63.63,0,0,0,0,1.19Zm4.68,2.71a2.29,2.29,0,0,0,2.07,0l1.61-.93c.57-.33.56-.86,0-1.19l-1.62-.93a2.27,2.27,0,0,0-2.06,0l-1.61.93c-.57.33-.57.86,0,1.19Zm4.67-.35-1.61.93c-.57.32-.56.86,0,1.19L170,153a2.3,2.3,0,0,0,2.06,0l1.61-.93a.63.63,0,0,0,0-1.2l-1.61-.93A2.29,2.29,0,0,0,170,149.9Zm4.78,2.64-1.8,1.05c-.52.29-.51.77,0,1.07l1.82,1.05a2.09,2.09,0,0,0,1.87,0l1.8-1.05a.56.56,0,0,0,0-1.07l-1.82-1A2.09,2.09,0,0,0,174.79,152.54Zm4.69,2.71-1.81,1a.57.57,0,0,0,0,1.08l1.81,1a2.06,2.06,0,0,0,1.87,0l1.81-1a.57.57,0,0,0,0-1.08l-1.82-1.05A2,2,0,0,0,179.48,155.25Zm4.68,2.7-1.81,1a.57.57,0,0,0,0,1.08l1.82,1.05a2,2,0,0,0,1.86,0l1.81-1a.57.57,0,0,0,0-1.08L186,158A2.09,2.09,0,0,0,184.16,158Zm4.68,2.7-1.8,1c-.52.29-.51.78,0,1.08l1.82,1.05a2.12,2.12,0,0,0,1.87,0l1.8-1.05c.52-.29.51-.77,0-1.07l-1.82-1.05A2.09,2.09,0,0,0,188.84,160.65Zm4.69,2.71-1.81,1a.57.57,0,0,0,0,1.08l1.82,1.05a2,2,0,0,0,1.86,0l1.81-1a.57.57,0,0,0,0-1.08l-1.82-1A2,2,0,0,0,193.53,163.36Zm6.56,5.88,1.81-1.05a.57.57,0,0,0,0-1.07l-1.82-1.05a2.09,2.09,0,0,0-1.87,0l-1.81,1.05c-.51.29-.51.77,0,1.07l1.82,1A2.07,2.07,0,0,0,200.09,169.24Zm4.69,2.7,1.8-1a.57.57,0,0,0,0-1.08l-1.82-1a2.06,2.06,0,0,0-1.87,0l-1.8,1a.57.57,0,0,0,0,1.08l1.82,1.05A2.06,2.06,0,0,0,204.78,171.94Zm6.58.64-1.82-1.05a2,2,0,0,0-1.86,0l-1.81,1a.57.57,0,0,0,0,1.08l1.82,1a2.06,2.06,0,0,0,1.87,0l1.81-1A.57.57,0,0,0,211.36,172.58Zm-68.2-30.13,5.87,3.39a2.06,2.06,0,0,0,1.87,0l1.8-1a.57.57,0,0,0,0-1.08l-5.87-3.39a2.06,2.06,0,0,0-1.87,0l-1.81,1A.57.57,0,0,0,143.16,142.45Zm8.74,5,1.81,1a2.09,2.09,0,0,0,1.87,0l1.81-1.05c.51-.29.51-.78,0-1.08l-1.82-1a2.1,2.1,0,0,0-1.86,0l-1.81,1C151.38,146.71,151.38,147.19,151.9,147.49Zm4.68,2.71,1.82,1.05a2.07,2.07,0,0,0,1.86,0l1.81-1a.57.57,0,0,0,0-1.08l-1.81-1a2.06,2.06,0,0,0-1.87,0l-1.81,1A.57.57,0,0,0,156.58,150.2Zm4.68,2.7,1.82,1a2.06,2.06,0,0,0,1.87,0l1.8-1a.57.57,0,0,0,0-1.08l-1.82-1.05a2.06,2.06,0,0,0-1.87,0l-1.8,1A.57.57,0,0,0,161.26,152.9Zm8.37,3.76,1.81-1c.51-.29.51-.77,0-1.07l-1.82-1a2.07,2.07,0,0,0-1.86,0l-1.81,1.05a.56.56,0,0,0,0,1.07l1.81,1.05A2.09,2.09,0,0,0,169.63,156.66Zm4.68,2.7,1.81-1a.57.57,0,0,0,0-1.08l-1.81-1.05a2.06,2.06,0,0,0-1.87,0l-1.81,1a.57.57,0,0,0,0,1.08l1.82,1.05A2,2,0,0,0,174.31,159.36Zm4.69,2.71,1.8-1c.52-.29.51-.78,0-1.08L179,158.89a2.12,2.12,0,0,0-1.87,0l-1.8,1a.57.57,0,0,0,0,1.08l1.82,1.05A2.09,2.09,0,0,0,179,162.07Zm4.68,2.7,1.81-1a.57.57,0,0,0,0-1.08l-1.82-1.05a2,2,0,0,0-1.86,0l-1.81,1a.57.57,0,0,0,0,1.08l1.81,1.05A2.09,2.09,0,0,0,183.68,164.77Zm4.68,2.7,1.81-1a.57.57,0,0,0,0-1.08l-1.82-1a2.06,2.06,0,0,0-1.87,0l-1.81,1a.57.57,0,0,0,0,1.08l1.82,1.05A2,2,0,0,0,188.36,167.47Zm4.69,2.71,1.8-1.05c.52-.29.52-.77,0-1.07L193,167a2.09,2.09,0,0,0-1.87,0l-1.8,1.05a.56.56,0,0,0,0,1.07l1.82,1A2.09,2.09,0,0,0,193.05,170.18Zm1,1.65,1.82,1a2,2,0,0,0,1.86,0l1.81-1a.57.57,0,0,0,0-1.08l-1.82-1a2,2,0,0,0-1.86,0l-1.81,1A.57.57,0,0,0,194.05,171.83Zm13,3.25-4.62-2.67a2.09,2.09,0,0,0-1.87,0l-1.81,1a.57.57,0,0,0,0,1.08l4.62,2.67a2.09,2.09,0,0,0,1.87,0l1.81-1.05C207.54,175.87,207.54,175.38,207,175.08Zm-68.18-30,8.33,4.81a2.34,2.34,0,0,0,2.11,0l1.56-.91a.64.64,0,0,0,0-1.21L142.51,143a2.37,2.37,0,0,0-2.11,0l-1.57.91C138.25,144.2,138.26,144.74,138.84,145.08Zm11.44,6.61,1.57.91a2.37,2.37,0,0,0,2.11,0l1.57-.9c.58-.34.57-.88,0-1.22l-1.58-.91a2.29,2.29,0,0,0-2.1,0l-1.57.9C149.69,150.8,149.69,151.35,150.28,151.69Zm4.68,2.7,1.58.91a2.29,2.29,0,0,0,2.1,0l1.57-.9c.58-.34.58-.88,0-1.22l-1.57-.91a2.34,2.34,0,0,0-2.11,0l-1.57.9C154.37,153.51,154.38,154.05,155,154.39Zm4.68,2.7,1.58.91a2.34,2.34,0,0,0,2.11,0l1.56-.91a.64.64,0,0,0,0-1.21l-1.58-.91a2.34,2.34,0,0,0-2.11,0l-1.56.91A.64.64,0,0,0,159.64,157.09Zm4.69,2.71,1.57.91a2.34,2.34,0,0,0,2.11,0l1.57-.9c.58-.34.57-.88,0-1.22l-1.58-.91a2.29,2.29,0,0,0-2.1,0l-1.57.9C163.74,158.92,163.74,159.46,164.33,159.8Zm4.68,2.7,1.58.91a2.32,2.32,0,0,0,2.1,0l1.57-.91a.64.64,0,0,0,0-1.21l-1.57-.91a2.34,2.34,0,0,0-2.11,0l-1.56.91C168.43,161.62,168.43,162.16,169,162.5Zm4.69,2.71,1.57.91a2.37,2.37,0,0,0,2.11,0l1.56-.9a.65.65,0,0,0,0-1.22l-1.58-.91a2.31,2.31,0,0,0-2.11,0l-1.56.9C173.11,164.32,173.11,164.87,173.7,165.21Zm4.68,2.7,1.57.91a2.31,2.31,0,0,0,2.11,0l1.57-.9c.58-.34.57-.88,0-1.22l-1.57-.91a2.34,2.34,0,0,0-2.11,0l-1.57.9C177.79,167,177.79,167.57,178.38,167.91Zm4.68,2.7,1.58.91a2.32,2.32,0,0,0,2.1,0l1.57-.91a.64.64,0,0,0,0-1.21l-1.57-.91a2.34,2.34,0,0,0-2.11,0l-1.56.91A.64.64,0,0,0,183.06,170.61Zm4.69,2.71,1.57.91a2.34,2.34,0,0,0,2.11,0l1.56-.9a.65.65,0,0,0,0-1.22l-1.58-.91a2.29,2.29,0,0,0-2.1,0l-1.57.9C187.16,172.44,187.16,173,187.75,173.32Zm4.68,2.7,1.58.91a2.32,2.32,0,0,0,2.1,0l1.57-.91a.64.64,0,0,0,0-1.21l-1.57-.91a2.34,2.34,0,0,0-2.11,0l-1.57.91C191.84,175.14,191.85,175.69,192.43,176Zm10,1.56-1.58-.91a2.29,2.29,0,0,0-2.1,0l-1.57.9c-.58.33-.58.88,0,1.22l1.57.91a2.37,2.37,0,0,0,2.11,0l1.57-.9C203.05,178.46,203,177.92,202.46,177.58Zm-60.64-30-3.65-2.11a2.31,2.31,0,0,0-2.11,0l-1.57.9c-.58.33-.57.88,0,1.22l3.66,2.11a2.32,2.32,0,0,0,2.1,0l1.57-.9C142.41,148.46,142.41,147.92,141.82,147.58Zm4.69,2.7-1.58-.91a2.34,2.34,0,0,0-2.11,0l-1.56.9a.65.65,0,0,0,0,1.22l1.58.91a2.31,2.31,0,0,0,2.11,0l1.56-.9A.65.65,0,0,0,146.51,150.28Zm4.68,2.71-1.58-.91a2.32,2.32,0,0,0-2.1,0l-1.57.91a.64.64,0,0,0,0,1.21l1.57.91a2.34,2.34,0,0,0,2.11,0l1.57-.91C151.78,153.87,151.77,153.32,151.19,153ZM184,171.92,154.3,154.78a2.31,2.31,0,0,0-2.11,0l-1.57.9c-.58.34-.57.88,0,1.22L180.31,174a2.32,2.32,0,0,0,2.1,0l1.57-.91A.64.64,0,0,0,184,171.92Zm4.69,2.7-1.58-.91a2.31,2.31,0,0,0-2.11,0l-1.56.9a.65.65,0,0,0,0,1.22l1.58.91a2.37,2.37,0,0,0,2.11,0l1.56-.9A.65.65,0,0,0,188.66,174.62Zm4.68,2.7-1.58-.91a2.32,2.32,0,0,0-2.1,0l-1.57.9c-.58.34-.58.88,0,1.22l1.57.91a2.31,2.31,0,0,0,2.11,0l1.57-.9C193.93,178.2,193.92,177.66,193.34,177.32Zm4.78,2.76-1.58-.91a2.32,2.32,0,0,0-2.1,0l-1.57.9c-.58.34-.58.88,0,1.22l1.57.91a2.31,2.31,0,0,0,2.11,0l1.57-.9C198.71,181,198.7,180.42,198.12,180.08Z" transform="translate(-2.86 -40.06)"/><path class="cls-5" d="M223.71,167.26l-62-35.84c-2.4-1.39-4.35-5.11-4.35-8.31V74.44c0-3.2,2-4.68,4.35-3.29l62,35.84c2.4,1.39,4.35,5.11,4.35,8.31V164C228.06,167.18,226.11,168.65,223.71,167.26Z" transform="translate(-2.86 -40.06)"/><path class="cls-10" d="M224.27,164.76,162.89,129.3a7.39,7.39,0,0,1-3.13-6.19V74.2a.77.77,0,0,1,1.16-.66l.14.08,61.43,35.49c2.3,1.32,3.13,3.68,3.13,6.19v48.79a.84.84,0,0,1-1.25.73Z" transform="translate(-2.86 -40.06)"/><path class="cls-18" d="M222.49,109.11,161.06,73.62l-.14-.08a.77.77,0,0,0-1.16.66v48.91a7.39,7.39,0,0,0,3.13,6.19l61.38,35.46.1.06a.84.84,0,0,0,1.25-.73V115.3C225.62,112.79,224.79,110.43,222.49,109.11Zm2.64,55a.35.35,0,0,1-.35.35.37.37,0,0,1-.17-.05l-61.48-35.51a6.9,6.9,0,0,1-2.88-5.77V74.2a.29.29,0,0,1,.28-.28.28.28,0,0,1,.15,0l61.56,35.57a6.3,6.3,0,0,1,2.89,5.77Z" transform="translate(-2.86 -40.06)"/><path class="cls-11" d="M224.94,106.34l-62-35.84a3,3,0,0,0-2.54-.38c-.1,0-1.31.68-1.39.73h0a2.86,2.86,0,0,1,2.71.3l62,35.84c2.4,1.39,4.35,5.11,4.35,8.31V164c0,2-.76,3.33-1.91,3.7a.67.67,0,0,0,.38-.13c.05,0,1.37-.77,1.42-.81a4,4,0,0,0,1.34-3.41V114.65C229.29,111.44,227.34,107.72,224.94,106.34Z" transform="translate(-2.86 -40.06)"/><path class="cls-12" d="M224.94,106.34l-62-35.84a3,3,0,0,0-2.54-.38c-.1,0-1.31.68-1.39.73h0a2.86,2.86,0,0,1,2.71.3l62,35.84Z" transform="translate(-2.86 -40.06)"/><path class="cls-13" d="M223.92,106.89l-62-35.84a2.9,2.9,0,0,0-2.62-.34,3.18,3.18,0,0,1,2.09.49L223.4,107c2.4,1.39,4.35,5.11,4.35,8.31V164c0,1.89-.68,3.17-1.73,3.63,1.34-.22,2.25-1.59,2.25-3.78V115.2C228.27,112,226.32,108.27,223.92,106.89Z" transform="translate(-2.86 -40.06)"/><polygon class="cls-19" points="174.35 71.88 185.11 96.76 206.86 73.93 198.37 66.75 186.69 86.45 181.17 73.21 174.35 71.88"/><path class="cls-20" d="M192.75,140.75l-.8-.95.8-.35c1-.53,1.93-1,2.83-1.46,6.07-3.06,9.39-4.56,10.17-15.45l1.51-1.32,0,1.24c-.83,11.75-4.89,13.8-11,16.89-.88.44-1.81.91-2.79,1.44Z" transform="translate(-2.86 -40.06)"/><path class="cls-20" d="M198.27,107.91A52.19,52.19,0,0,1,192.7,101c-3.81,1.13-8.15.46-12.66-2l.24,8-1.53-.3-.3-10.43,1.36.81c4.68,2.75,9.15,3.52,12.93,2.21l.33-.11.45.26.15.18a51.23,51.23,0,0,0,5.69,7.11Z" transform="translate(-2.86 -40.06)"/></g></g></svg>