<svg xmlns="http://www.w3.org/2000/svg" viewBox="0 0 301.15 191.66"><defs><style>.cls-1{isolation:isolate;}.cls-2{fill:#d1ebff;}.cls-13,.cls-15,.cls-17,.cls-3{fill:#fff;}.cls-4{fill:#92b4d1;opacity:0.2;}.cls-5{fill:#a8cff0;}.cls-6{fill:#72b5e8;}.cls-7{fill:#084c94;}.cls-8{fill:#001a46;}.cls-9{fill:#2672ab;}.cls-10{fill:#03336e;}.cls-11,.cls-16{fill:#3f92d1;}.cls-12{fill:#4f9fdb;}.cls-13{mix-blend-mode:screen;}.cls-14,.cls-15{mix-blend-mode:color-dodge;}.cls-16{opacity:0.5;}.cls-17{opacity:0.3;}.cls-18{fill:#022652;}.cls-19{fill:#0fbab8;}.cls-20{fill:#eb4680;}</style></defs><title>header-illustration-3</title><g class="cls-1"><g id="Layer_2" data-name="Layer 2"><path class="cls-2" d="M173.11,245.14c-33.65,0-65.35-7.6-89.24-21.4-24-13.87-37.28-32.34-37.28-52,0-19.49,13-37.74,36.72-51.42s54.87-21.07,88.23-21.07c33.66,0,65.35,7.6,89.25,21.39s37.27,32.35,37.27,52c0,19.48-13,37.74-36.72,51.41S206.47,245.14,173.11,245.14ZM171.54,100.9c-33.07,0-64.12,7.4-87.41,20.85s-35.9,31.12-35.9,50c0,19,13,37,36.45,50.58s55.06,21.17,88.43,21.17c33.08,0,64.12-7.4,87.41-20.85s35.91-31.12,35.91-50c0-19-12.95-37-36.46-50.58S204.92,100.9,171.54,100.9Z" transform="translate(-22.01 -67.66)"/><polygon class="cls-3" points="202.32 60.53 211.05 41.51 243.99 36.47 268.2 50.45 259.47 69.47 226.53 74.51 202.32 60.53"/><path class="cls-2" d="M248.38,143l-25.1-14.5,9.22-20.09,33.66-5.15,25.1,14.49L282,137.87Zm-23-15.17,23.32,13.46,32.22-4.93,8.24-17.94L265.84,105l-32.22,4.93Z" transform="translate(-22.01 -67.66)"/><polygon class="cls-3" points="32.95 158.32 41.68 139.3 74.62 134.26 98.83 148.24 90.1 167.26 57.16 172.3 32.95 158.32"/><path class="cls-2" d="M79,240.81,53.9,226.32l9.23-20.1,33.66-5.15,25.1,14.5-9.22,20.09ZM56,225.65l23.32,13.46,32.22-4.93,8.24-17.94L96.47,202.78l-32.22,4.93Z" transform="translate(-22.01 -67.66)"/><polygon class="cls-3" points="241.1 94.7 270.61 84.9 300.22 94.8 300.32 114.51 270.82 124.31 241.21 114.4 241.1 94.7"/><path class="cls-2" d="M292.83,192.83l-30.42-10.17-.12-20.89,30.33-10.07L323,161.88l.12,20.88ZM264,181.48l28.79,9.63,28.69-9.53-.1-18.52-28.8-9.64L263.93,163Z" transform="translate(-22.01 -67.66)"/><polygon class="cls-3" points="0.82 94.26 30.32 84.46 59.94 94.37 60.04 114.07 30.54 123.87 0.93 113.97 0.82 94.26"/><path class="cls-2" d="M52.55,192.4,22.13,182.22,22,161.34l30.33-10.07,30.42,10.17.12,20.89ZM23.75,181l28.8,9.64,28.69-9.53-.11-18.53L52.34,153l-28.69,9.53Z" transform="translate(-22.01 -67.66)"/><polygon class="cls-3" points="74.29 74.23 41.3 69.08 32.36 50.02 56.42 36.13 89.41 41.29 98.35 60.34 74.29 74.23"/><path class="cls-2" d="M96.46,142.75l-33.71-5.27-9.44-20.12,25-14.41L112,108.22l9.44,20.12ZM63.86,136l32.29,5.05,23.15-13.37-8.43-18-32.28-5L55.43,118Z" transform="translate(-22.01 -67.66)"/><polygon class="cls-3" points="244.73 172.64 211.73 167.48 202.79 148.43 226.85 134.54 259.85 139.7 268.79 158.75 244.73 172.64"/><path class="cls-2" d="M266.9,241.15l-33.71-5.27-9.44-20.12,25-14.41,33.71,5.27,9.44,20.12Zm-32.6-6.75,32.28,5,23.16-13.37-8.43-18-32.28-5-23.16,13.37Z" transform="translate(-22.01 -67.66)"/><polygon class="cls-3" points="133.22 52.06 116.07 34.96 133.04 17.93 167.17 17.99 184.33 35.08 167.35 52.12 133.22 52.06"/><path class="cls-2" d="M189.71,120.6l-34.81-.06-18-17.91,17.79-17.86,34.81.07,18,17.91Zm-34.14-1.7L189,119l16.15-16.21L188.84,86.47l-33.45-.06-16.16,16.21Z" transform="translate(-22.01 -67.66)"/><polygon class="cls-3" points="133.98 190.78 116.82 173.69 133.79 156.65 167.92 156.71 185.08 173.81 168.11 190.84 133.98 190.78"/><path class="cls-2" d="M190.46,259.33l-34.81-.07-18-17.91,17.79-17.85,34.81.06,18,17.91Zm-34.13-1.7,33.45.06,16.16-16.21L189.6,225.2l-33.46-.06L140,241.35Z" transform="translate(-22.01 -67.66)"/><path class="cls-4" d="M305.34,177.71c-3.29,2.65-14.62,4.16-14.62,4.16s-1-7.57,2.29-10.22,6.23-1,9.63.64S308.63,175.07,305.34,177.71Z" transform="translate(-22.01 -67.66)"/><path class="cls-5" d="M306.12,151.65c-5.51-3.11-10.89-8.43-15.41-15.21l-.06,0c-4.51,1.56-9.9.66-15.41-2.59l-.21-.12.3,10.29c1,16,6.48,22.91,15.24,37.74l.22.13c8.76-4.72,14.2-5.38,15.25-20.14l.29-9.95Z" transform="translate(-22.01 -67.66)"/><path class="cls-2" d="M309.23,149.29c-5.51-3.12-10.9-8.44-15.41-15.21l-.06,0c-4.52,1.56-9.9.66-15.41-2.59l-.21-.12-3.05,2.4.15.09c5.51,3.25,10.9,4.15,15.41,2.59l.06,0c4.52,6.78,9.9,12.1,15.41,15.21l.21.12-.29,9.95c-.69,9.63-3.24,13.26-7.37,15.93,5.16-3.05,9.71-7.47,10.47-18.29l.3-10Z" transform="translate(-22.01 -67.66)"/><path class="cls-2" d="M309.44,149.4l-.21-.11c-5.51-3.12-10.9-8.44-15.41-15.21l-.06,0-3.11,2.37.06,0c4.52,6.78,9.9,12.1,15.41,15.21l.21.12Z" transform="translate(-22.01 -67.66)"/><path class="cls-6" d="M306.33,151.77l-.29,9.95c-.69,9.63-3.24,13.26-7.37,15.93,5.16-3.05,9.71-7.47,10.47-18.29l.3-10Z" transform="translate(-22.01 -67.66)"/><path class="cls-7" d="M289.67,174.13c-6.28-10.42-9.44-15.67-10.21-27.11l-.17-6a18.74,18.74,0,0,0,11.39,1.71,50.84,50.84,0,0,0,11.39,11.44L301.9,160c-.77,10.56-3.93,12.16-10.21,15.33l-1,.5Z" transform="translate(-22.01 -67.66)"/><path class="cls-8" d="M292.2,174.84l-1,.51-1-1.67C283.9,163.25,280.74,158,280,146.56l-.15-5.32-.54-.23.17,6c.77,11.44,3.93,16.69,10.21,27.11l1,1.67,1-.5a26.09,26.09,0,0,0,6.18-3.81A29.26,29.26,0,0,1,292.2,174.84Z" transform="translate(-22.01 -67.66)"/><path class="cls-3" d="M306.32,151.46c-5.51-3.12-10.9-8.44-15.41-15.21l-.06,0c-4.52,1.56-9.9.66-15.41-2.58l-.21.21c5.5,3.23,10.88,4.13,15.39,2.57l.06,0c4.51,6.78,9.9,12.1,15.41,15.21l.21.12-.3,9.95c-.56,8-2.42,11.85-5.39,14.46,3.1-2.61,5-6.46,5.62-14.65l.3-9.95Z" transform="translate(-22.01 -67.66)"/><path class="cls-4" d="M92.46,230.64l-19.07-11c-2-1.15-1.73-3.15.56-4.47h0c2.29-1.32,9.87-1.33,11.85-.18l16.9,9.75c3,1.8,0,4.26-2.51,5.55h0C97.9,231.64,94.44,231.79,92.46,230.64Z" transform="translate(-22.01 -67.66)"/><path class="cls-5" d="M99.88,207.6,72.32,197.32v20.44a1.8,1.8,0,0,0,1.08,1.78L92,230.33a7,7,0,0,0,6.29-.26h0a2.63,2.63,0,0,0,1.54-2h0Z" transform="translate(-22.01 -67.66)"/><path class="cls-2" d="M92,209.8,73.4,199c-1.62-.93-1.41-2.56.45-3.63h0a7,7,0,0,1,6.3-.26L98.79,205.9c1.61.93,1.41,2.56-.46,3.64h0A7,7,0,0,1,92,209.8Z" transform="translate(-22.01 -67.66)"/><path class="cls-3" d="M98.33,209.28a7,7,0,0,1-6.29.26L73.4,198.75a1.91,1.91,0,0,1-1.08-1.45,1.81,1.81,0,0,0,1.08,1.76L92,209.85a7,7,0,0,0,6.29-.26,2.48,2.48,0,0,0,1.54-2.19A2.75,2.75,0,0,1,98.33,209.28Z" transform="translate(-22.01 -67.66)"/><path class="cls-7" d="M87.94,182.56h0a7.81,7.81,0,0,0-11.71,6.77v8.47h0c0,.83,1.15,1.5,2.57,1.5s2.56-.67,2.56-1.5v0h0v-7.36a3.31,3.31,0,0,1,5-2.87h0a8.25,8.25,0,0,1,4.14,7.16V206h0c0,.81,1.16,1.46,2.56,1.46s2.55-.66,2.56-1.48h0V195.87A15.37,15.37,0,0,0,87.94,182.56Z" transform="translate(-22.01 -67.66)"/><path class="cls-9" d="M87.79,186.47l-.48-.24a9,9,0,0,1,4,7.45v13.25a3.1,3.1,0,0,0,1,.36v-13A9,9,0,0,0,87.79,186.47Z" transform="translate(-22.01 -67.66)"/><path class="cls-10" d="M82.58,185.11a4.2,4.2,0,0,0-4.19,4.2v8.84l0,.92a3.48,3.48,0,0,0,1.47-.18l0-.91v-8.85a4.21,4.21,0,0,1,3-4Z" transform="translate(-22.01 -67.66)"/><path class="cls-9" d="M85.1,183.3a8.13,8.13,0,0,1,3.81,1,13.2,13.2,0,0,0-1.41-.93,6.86,6.86,0,0,0-3.45-.94,7,7,0,0,0-6.93,6.94v0A8.37,8.37,0,0,1,85.1,183.3Z" transform="translate(-22.01 -67.66)"/><path class="cls-10" d="M93.65,197.42v9.91a3.17,3.17,0,0,0,1.29-.45.81.81,0,0,0,.08-.34V196.43C95,192.06,93.65,193,93.65,197.42Z" transform="translate(-22.01 -67.66)"/><path class="cls-7" d="M86.29,213.42a5.54,5.54,0,0,0-2.53-4.36c-1.39-.81-2.52-.16-2.52,1.44a5.49,5.49,0,0,0,1.27,3.25v5.08l2.5,1.44V215.2C85.77,215.14,86.29,214.49,86.29,213.42Z" transform="translate(-22.01 -67.66)"/><path class="cls-8" d="M83,218.64v-5.07a5.53,5.53,0,0,1-1.28-3.26,1.81,1.81,0,0,1,.66-1.57c-.66.14-1.09.76-1.09,1.76a5.49,5.49,0,0,0,1.27,3.25v5.08l2.5,1.44v-.44Z" transform="translate(-22.01 -67.66)"/><path class="cls-4" d="M176.31,113l-19.06-11c-2-1.15-1.74-3.15.55-4.47h0c2.29-1.32,9.87-1.33,11.85-.18l16.9,9.75c3,1.79,0,4.26-2.5,5.55h0C181.76,114,178.29,114.14,176.31,113Z" transform="translate(-22.01 -67.66)"/><path class="cls-6" d="M190.35,96.14a11.48,11.48,0,0,0-5.2-9,5,5,0,0,0-2.11-.7v-.13C183,80,178.53,72.17,173,69c-3.12-1.8-5.84-1.56-7.76-.28L162,70.51c-1.82-.94-3.44-.93-4.58-.14L153.09,73a4.9,4.9,0,0,1,4.4.63,8.8,8.8,0,0,1,1,.71c1.31-3.87,5.1-5,9.57-2.45,5.57,3.21,10.08,11,10.08,17.37,0,0,0,.09,0,.13a5,5,0,0,1,2.11.7,11.48,11.48,0,0,1,5.2,9,3.94,3.94,0,0,1-1.11,3l4.28-2.5h0C189.7,99.08,190.35,97.89,190.35,96.14Z" transform="translate(-22.01 -67.66)"/><path class="cls-3" d="M180.67,89.89a4.93,4.93,0,0,0-2.11-.71s0-.08,0-.13c0-6.38-4.51-14.16-10.08-17.37-2.66-1.54-5.08-1.75-6.88-.85,1.75-.7,4-.42,6.5,1,5.57,3.21,10.08,11,10.08,17.37,0,0,0,.09,0,.13a5,5,0,0,1,2.11.7,11.48,11.48,0,0,1,5.2,9,3.59,3.59,0,0,1-1.55,3.36c1.18-.41,1.93-1.65,1.93-3.53A11.45,11.45,0,0,0,180.67,89.89Z" transform="translate(-22.01 -67.66)"/><path class="cls-3" d="M157.49,73.59a8.8,8.8,0,0,1,1,.71,3.62,3.62,0,0,1,.13-.35,9.21,9.21,0,0,0-.8-.53c-1.78-1-3.4-1.16-4.59-.54A5,5,0,0,1,157.49,73.59Z" transform="translate(-22.01 -67.66)"/><path class="cls-2" d="M180.29,90.05a5,5,0,0,0-2.11-.7s0-.08,0-.13c0-6.38-4.51-14.16-10.08-17.37-4.47-2.59-8.26-1.42-9.57,2.45a8.8,8.8,0,0,0-1-.71c-3.67-2.12-6.64-.43-6.64,3.78a14.64,14.64,0,0,0,6.64,11.46c.49.28,21.9,12.64,22.8,13.17,2.87,1.65,5.2.33,5.2-3A11.48,11.48,0,0,0,180.29,90.05Z" transform="translate(-22.01 -67.66)"/><path class="cls-11" d="M182.63,101a3,3,0,0,1-1.5-.49L158.32,87.38a13,13,0,0,1-5.8-10c0-.91.2-3,2-3a4.48,4.48,0,0,1,2.14.69,7.47,7.47,0,0,1,.87.59L159.38,77l.75-2.2a3.55,3.55,0,0,1,3.47-2.7,7.6,7.6,0,0,1,3.68,1.16c5,2.89,9.23,10.18,9.23,15.92a.66.66,0,0,1,0,.11v1.59l1.58.11a3.17,3.17,0,0,1,1.38.48A9.76,9.76,0,0,1,183.82,99a2.68,2.68,0,0,1-.43,1.66.88.88,0,0,1-.76.34Z" transform="translate(-22.01 -67.66)"/><path class="cls-9" d="M159.94,76.62l.75-2.2a4.3,4.3,0,0,1,1.09-1.81,4,4,0,0,0-1.65,2.23l-.52,1.53Z" transform="translate(-22.01 -67.66)"/><path class="cls-9" d="M183.19,100.61a3,3,0,0,1-1.5-.49L158.88,87a13,13,0,0,1-5.8-10,4,4,0,0,1,.69-2.45c-1.11.5-1.25,2.11-1.25,2.87a13,13,0,0,0,5.8,10l22.81,13.16a3,3,0,0,0,1.5.49.88.88,0,0,0,.76-.34,1.05,1.05,0,0,0,.07-.11A1.12,1.12,0,0,1,183.19,100.61Z" transform="translate(-22.01 -67.66)"/><path class="cls-4" d="M185.91,252.09l-24.69-13.87c-1.35-.78-1.18-2.14.38-3h0c1.56-.9,6.72-.91,8.07-.13l23.22,13c2.07,1.22,0,2.9-1.71,3.78h0A5.86,5.86,0,0,1,185.91,252.09Z" transform="translate(-22.01 -67.66)"/><path class="cls-5" d="M186.62,252.77,159.41,237a6.71,6.71,0,0,1-2.81-5.37V213.88c0-2.06,1.25-3,2.81-2.12l27.21,15.74a6.73,6.73,0,0,1,2.81,5.37v17.78C189.43,252.72,188.17,253.67,186.62,252.77Z" transform="translate(-22.01 -67.66)"/><path class="cls-7" d="M187,238.74,160.2,223.25a4.76,4.76,0,0,1-2-4v-4.62a.5.5,0,0,1,.75-.43l.09.05,26.82,15.51a4.32,4.32,0,0,1,2,4v4.55a.53.53,0,0,1-.8.47Z" transform="translate(-22.01 -67.66)"/><path class="cls-7" d="M187,250.5,160.2,235a4.76,4.76,0,0,1-2-4v-4.62a.5.5,0,0,1,.75-.43l.09,0,26.82,15.51a4.32,4.32,0,0,1,2,4v4.55a.53.53,0,0,1-.8.47Z" transform="translate(-22.01 -67.66)"/><path class="cls-8" d="M187.5,238.41l-.07,0-26.79-15.49a4.81,4.81,0,0,1-2-4v-4.63a.5.5,0,0,1,0-.12.49.49,0,0,0-.47.49v4.62a4.76,4.76,0,0,0,2,4L187,238.74l.07,0a.54.54,0,0,0,.78-.3A.57.57,0,0,1,187.5,238.41Z" transform="translate(-22.01 -67.66)"/><path class="cls-8" d="M187.5,250.17l-.07,0-26.79-15.49a4.81,4.81,0,0,1-2-4V226a.5.5,0,0,1,0-.12.49.49,0,0,0-.47.49V231a4.76,4.76,0,0,0,2,4L187,250.5l.07,0a.54.54,0,0,0,.78-.3A.57.57,0,0,1,187.5,250.17Z" transform="translate(-22.01 -67.66)"/><path class="cls-11" d="M188,226.82l-27.22-15.73a1.91,1.91,0,0,0-1.64-.25l-1.43.73h0a1.85,1.85,0,0,1,1.75.19l27.21,15.74a6.73,6.73,0,0,1,2.81,5.37v17.78c0,1.29-.49,2.15-1.23,2.39a.51.51,0,0,0,.24-.08l1.45-.78a2.59,2.59,0,0,0,.86-2.2V232.19A6.73,6.73,0,0,0,188,226.82Z" transform="translate(-22.01 -67.66)"/><path class="cls-12" d="M188,226.82l-27.22-15.73a1.91,1.91,0,0,0-1.64-.25l-1.43.73h0a1.85,1.85,0,0,1,1.75.19l27.21,15.74Z" transform="translate(-22.01 -67.66)"/><path class="cls-13" d="M186.76,227.43l-27.22-15.74a1.86,1.86,0,0,0-1.69-.21,2,2,0,0,1,1.35.31l27.22,15.74a6.74,6.74,0,0,1,2.81,5.37v17.78a2.35,2.35,0,0,1-1.12,2.34c.87-.13,1.46-1,1.46-2.44V232.8A6.74,6.74,0,0,0,186.76,227.43Z" transform="translate(-22.01 -67.66)"/><path class="cls-8" d="M180.33,242.37a3.73,3.73,0,0,0,1.7,2.92c.93.54,1.69.11,1.69-1A3.75,3.75,0,0,0,182,241.4C181.09,240.86,180.33,241.3,180.33,242.37Z" transform="translate(-22.01 -67.66)"/><path class="cls-8" d="M176,239.83a3.71,3.71,0,0,0,1.7,2.92c.93.54,1.69.11,1.69-1a3.73,3.73,0,0,0-1.69-2.92C176.72,238.33,176,238.76,176,239.83Z" transform="translate(-22.01 -67.66)"/><path class="cls-8" d="M171.6,237.29a3.72,3.72,0,0,0,1.69,2.93c.93.54,1.69.1,1.69-1a3.75,3.75,0,0,0-1.69-2.92C172.35,235.79,171.6,236.22,171.6,237.29Z" transform="translate(-22.01 -67.66)"/><path class="cls-8" d="M167.23,234.76a3.75,3.75,0,0,0,1.69,2.92c.94.54,1.69.11,1.69-1a3.72,3.72,0,0,0-1.69-2.92C168,233.25,167.23,233.68,167.23,234.76Z" transform="translate(-22.01 -67.66)"/><path class="cls-8" d="M162.86,232.22a3.75,3.75,0,0,0,1.69,2.92c.94.54,1.7.11,1.7-1a3.73,3.73,0,0,0-1.7-2.92C163.62,230.71,162.86,231.15,162.86,232.22Z" transform="translate(-22.01 -67.66)"/><path class="cls-5" d="M179.81,242.4a3.75,3.75,0,0,0,1.69,2.93c.94.54,1.7.1,1.7-1a3.73,3.73,0,0,0-1.7-2.92C180.57,240.9,179.81,241.33,179.81,242.4Z" transform="translate(-22.01 -67.66)"/><path class="cls-5" d="M175.44,239.87a3.75,3.75,0,0,0,1.69,2.92c.94.54,1.7.11,1.7-1a3.73,3.73,0,0,0-1.7-2.92C176.2,238.36,175.44,238.79,175.44,239.87Z" transform="translate(-22.01 -67.66)"/><path class="cls-5" d="M171.07,237.33a3.73,3.73,0,0,0,1.7,2.92c.93.54,1.69.11,1.69-1a3.75,3.75,0,0,0-1.69-2.92C171.83,235.82,171.07,236.26,171.07,237.33Z" transform="translate(-22.01 -67.66)"/><path class="cls-5" d="M166.7,234.79a3.71,3.71,0,0,0,1.7,2.92c.93.54,1.69.11,1.69-1a3.73,3.73,0,0,0-1.69-2.92C167.46,233.29,166.7,233.72,166.7,234.79Z" transform="translate(-22.01 -67.66)"/><path class="cls-5" d="M162.33,232.25a3.73,3.73,0,0,0,1.7,2.93c.93.54,1.69.1,1.69-1a3.75,3.75,0,0,0-1.69-2.92C163.09,230.75,162.33,231.18,162.33,232.25Z" transform="translate(-22.01 -67.66)"/><path class="cls-8" d="M180.33,230.31a3.73,3.73,0,0,0,1.7,2.93c.93.54,1.69.1,1.69-1a3.75,3.75,0,0,0-1.69-2.92C181.09,228.81,180.33,229.24,180.33,230.31Z" transform="translate(-22.01 -67.66)"/><path class="cls-8" d="M176,227.78a3.73,3.73,0,0,0,1.7,2.92c.93.54,1.69.11,1.69-1a3.75,3.75,0,0,0-1.69-2.92C176.72,226.27,176,226.7,176,227.78Z" transform="translate(-22.01 -67.66)"/><path class="cls-8" d="M171.6,225.24a3.72,3.72,0,0,0,1.69,2.92c.93.54,1.69.11,1.69-1a3.75,3.75,0,0,0-1.69-2.92C172.35,223.73,171.6,224.17,171.6,225.24Z" transform="translate(-22.01 -67.66)"/><path class="cls-8" d="M167.23,222.7a3.75,3.75,0,0,0,1.69,2.92c.94.54,1.69.11,1.69-1a3.7,3.7,0,0,0-1.69-2.92C168,221.2,167.23,221.63,167.23,222.7Z" transform="translate(-22.01 -67.66)"/><path class="cls-8" d="M162.86,220.16a3.73,3.73,0,0,0,1.69,2.92c.94.54,1.7.11,1.7-1a3.73,3.73,0,0,0-1.7-2.92C163.62,218.66,162.86,219.09,162.86,220.16Z" transform="translate(-22.01 -67.66)"/><path class="cls-5" d="M179.81,230.35a3.75,3.75,0,0,0,1.69,2.92c.94.54,1.7.11,1.7-1a3.73,3.73,0,0,0-1.7-2.92C180.57,228.84,179.81,229.28,179.81,230.35Z" transform="translate(-22.01 -67.66)"/><path class="cls-5" d="M175.44,227.81a3.75,3.75,0,0,0,1.69,2.92c.94.54,1.7.11,1.7-1a3.71,3.71,0,0,0-1.7-2.92C176.2,226.31,175.44,226.74,175.44,227.81Z" transform="translate(-22.01 -67.66)"/><path class="cls-5" d="M171.07,225.27a3.71,3.71,0,0,0,1.7,2.92c.93.54,1.69.11,1.69-1a3.75,3.75,0,0,0-1.69-2.92C171.83,223.77,171.07,224.2,171.07,225.27Z" transform="translate(-22.01 -67.66)"/><path class="cls-5" d="M166.7,222.74a3.73,3.73,0,0,0,1.7,2.92c.93.54,1.69.11,1.69-1a3.75,3.75,0,0,0-1.69-2.92C167.46,221.23,166.7,221.66,166.7,222.74Z" transform="translate(-22.01 -67.66)"/><path class="cls-5" d="M162.33,220.2a3.73,3.73,0,0,0,1.7,2.92c.93.54,1.69.11,1.69-1a3.75,3.75,0,0,0-1.69-2.92C163.09,218.69,162.33,219.13,162.33,220.2Z" transform="translate(-22.01 -67.66)"/><path class="cls-4" d="M51.9,179.1,41,173.15c-1.81-1.05-1.59-2.88.51-4.09h0c2.1-1.21,9-1.22,10.85-.17l8.91,4.83c2.79,1.64,0,3.9-2.3,5.08h0A7.89,7.89,0,0,1,51.9,179.1Z" transform="translate(-22.01 -67.66)"/><path class="cls-6" d="M50.65,167.29c-5.07-2.93-9.18-10-9.18-15.83A7.32,7.32,0,0,1,43,146.53c-2.78.2-4.66,2.53-4.66,6.46,0,5.81,4.11,12.9,9.17,15.83,3.19,1.83,6,1.58,7.63-.3A7.88,7.88,0,0,1,50.65,167.29Z" transform="translate(-22.01 -67.66)"/><path class="cls-7" d="M49.9,167.7c-5.07-2.93-9.18-10-9.18-15.83s4.11-8.16,9.18-5.23,9.18,10,9.18,15.83S55,170.62,49.9,167.7Z" transform="translate(-22.01 -67.66)"/><path class="cls-5" d="M59.56,165.37a18.67,18.67,0,0,0-.15-2.22l3.71-.47a34,34,0,0,0-1.68-5.62l-4.23-1.28a30.63,30.63,0,0,0-2.63-4.54l1-4.26a34.28,34.28,0,0,0-4.05-4.27l-2.27,2.95a19.64,19.64,0,0,0-1.86-1.26,14.88,14.88,0,0,0-1.86-.89l-2.28-5.57a11.09,11.09,0,0,0-4-.41l1,5.44a5.69,5.69,0,0,0-2.63,1.5l-4.23-3.61a11.24,11.24,0,0,0-1.68,3.68l3.71,4.75a13.18,13.18,0,0,0-.16,2,17,17,0,0,0,.16,2.23L31.7,154a34.15,34.15,0,0,0,1.68,5.61l4.23,1.28a29,29,0,0,0,2.63,4.54l-1,4.26a33.56,33.56,0,0,0,4,4.27l2.28-2.94a16.8,16.8,0,0,0,1.86,1.25,13.06,13.06,0,0,0,1.86.89l2.27,5.57a11.16,11.16,0,0,0,4.05.41l-1-5.43a5.88,5.88,0,0,0,2.63-1.5l4.23,3.6a11.09,11.09,0,0,0,1.68-3.67l-3.71-4.76A14.48,14.48,0,0,0,59.56,165.37Zm-12,3.45c-5.06-2.93-9.17-10-9.17-15.83s4.11-8.16,9.17-5.23,9.18,10,9.18,15.82S52.59,171.74,47.52,168.82Z" transform="translate(-22.01 -67.66)"/><polygon class="cls-6" points="27.09 73.8 24.82 68.23 21.26 70.27 23.54 75.84 27.09 73.8"/><path class="cls-2" d="M45.55,143.51a14.88,14.88,0,0,1,1.86.89,19.64,19.64,0,0,1,1.86,1.26l2.27-2.95h0s-.38-.24-.58-.35a13.06,13.06,0,0,0-1.86-.89Z" transform="translate(-22.01 -67.66)"/><path class="cls-2" d="M46.83,135.9a11.16,11.16,0,0,0-4-.41l-3.55,2a11.09,11.09,0,0,1,4,.41Z" transform="translate(-22.01 -67.66)"/><path class="cls-2" d="M59.15,144.94a33.63,33.63,0,0,0-4-4.27l-3.56,2A34.28,34.28,0,0,1,55.59,147Z" transform="translate(-22.01 -67.66)"/><polygon class="cls-6" points="33.58 79.31 32.57 83.58 36.12 81.54 37.13 77.27 33.58 79.31"/><path class="cls-6" d="M54.58,151.24a30.63,30.63,0,0,1,2.63,4.54l3.55-2a29,29,0,0,0-2.63-4.54Z" transform="translate(-22.01 -67.66)"/><polygon class="cls-2" points="35.2 88.12 39.42 89.4 42.98 87.35 38.75 86.08 35.2 88.12"/><path class="cls-6" d="M61.44,157.06a34,34,0,0,1,1.68,5.62l3.55-2.05A34.15,34.15,0,0,0,65,155Z" transform="translate(-22.01 -67.66)"/><path class="cls-6" d="M40.24,143l-.3-1.59-3-2.56-3.56,2,4.23,3.61A5.69,5.69,0,0,1,40.24,143Z" transform="translate(-22.01 -67.66)"/><path class="cls-6" d="M63.12,172.17a11.09,11.09,0,0,1-1.68,3.67l3.55-2a11.14,11.14,0,0,0,1.68-3.68Z" transform="translate(-22.01 -67.66)"/><path class="cls-6" d="M63,165.37a13.09,13.09,0,0,0,.16-2c0-.22,0-.43,0-.65l-3.68.47a18.67,18.67,0,0,1,.15,2.22,14.48,14.48,0,0,1-.15,2Z" transform="translate(-22.01 -67.66)"/><polygon class="cls-2" points="37.4 99.75 41.1 104.5 44.66 102.46 40.95 97.71 37.4 99.75"/><path class="cls-6" d="M57.21,172.24a5.88,5.88,0,0,1-2.63,1.5l1,5.43,3.56-2-.72-3.85Z" transform="translate(-22.01 -67.66)"/><path class="cls-2" d="M35.27,151.93,31.7,154l3.71-.47C35.34,153,35.3,152.47,35.27,151.93Z" transform="translate(-22.01 -67.66)"/><path class="cls-6" d="M45.55,171.05,43.27,174l3.58-2C46.41,171.67,46,171.37,45.55,171.05Z" transform="translate(-22.01 -67.66)"/><g class="cls-14"><path class="cls-3" d="M39.81,143.21v-.05a4.46,4.46,0,0,0-.5.22C39.47,143.32,39.63,143.26,39.81,143.21Z" transform="translate(-22.01 -67.66)"/><path class="cls-3" d="M35,153.62l-3.08.39c0,.06,0,.12,0,.18L35,153.8A1.1,1.1,0,0,1,35,153.62Z" transform="translate(-22.01 -67.66)"/><path class="cls-3" d="M55.39,147.21l-1,4.27A29.2,29.2,0,0,1,57,156l4.23,1.28a33.81,33.81,0,0,1,1.64,5.44l.42-.07A33.08,33.08,0,0,0,61.61,157l-4.22-1.27a30.13,30.13,0,0,0-2.63-4.54l1-4.27a33.5,33.5,0,0,0-4.05-4.26l-.14.46A35,35,0,0,1,55.39,147.21Z" transform="translate(-22.01 -67.66)"/><path class="cls-3" d="M47.56,168.75c-5.07-2.93-9.18-10-9.18-15.83,0-2.57.81-4.45,2.14-5.51-1.54,1-2.49,3-2.49,5.76,0,5.81,4.11,12.9,9.18,15.83,2.56,1.47,4.87,1.6,6.53.63l-.38.09C51.78,170.29,49.76,170,47.56,168.75Z" transform="translate(-22.01 -67.66)"/><path class="cls-3" d="M55.26,173.55a5.82,5.82,0,0,0,1.67-.93l-.15-.14A5.51,5.51,0,0,1,55.26,173.55Z" transform="translate(-22.01 -67.66)"/><path class="cls-3" d="M37.47,144.56c-.15,0,0-.12.16-.24l-4.07-3.47c-.12.16-.22.33,0,.35Z" transform="translate(-22.01 -67.66)"/><path class="cls-15" d="M54.48,174l1,5.2.32,0-1-5.38C54.56,173.85,54.36,173.93,54.48,174Z" transform="translate(-22.01 -67.66)"/><path class="cls-3" d="M59.74,165.35a15.9,15.9,0,0,0-.14-2l-.36,0a18.82,18.82,0,0,1,.15,2.22,14.74,14.74,0,0,1-.15,2.05L63,172.36a11.44,11.44,0,0,1-1.36,3.17l0,.29a10.9,10.9,0,0,0,1.69-3.67l-3.71-4.75A14.74,14.74,0,0,0,59.74,165.35Z" transform="translate(-22.01 -67.66)"/><path class="cls-3" d="M43.12,138.09l2.27,5.57a13.06,13.06,0,0,1,1.86.89,20.15,20.15,0,0,1,1.86,1.25l.07-.35a17.57,17.57,0,0,0-1.59-1.06,15,15,0,0,0-1.86-.9l-2.28-5.57a11.59,11.59,0,0,0-4.05-.41l.05.24A13.09,13.09,0,0,1,43.12,138.09Z" transform="translate(-22.01 -67.66)"/><path class="cls-3" d="M45.12,171.29l-1.91,2.46.24.22,1.93-2.49A2.48,2.48,0,0,1,45.12,171.29Z" transform="translate(-22.01 -67.66)"/></g><path class="cls-12" d="M50.28,152.82a2.77,2.77,0,0,0-2.74-.3s-2.18,1.27-2.21,1.32a2.66,2.66,0,0,1,3,.16,8.64,8.64,0,0,1,3.94,6.78,2.68,2.68,0,0,1-1.2,2.55.71.71,0,0,0,.19-.08l1.87-1.14a2.76,2.76,0,0,0,1.11-2.5A8.66,8.66,0,0,0,50.28,152.82Z" transform="translate(-22.01 -67.66)"/><path class="cls-5" d="M48.31,154c-2.17-1.26-3.93-.25-3.93,2.24A8.69,8.69,0,0,0,48.31,163c2.18,1.25,3.94.25,3.94-2.25A8.64,8.64,0,0,0,48.31,154Z" transform="translate(-22.01 -67.66)"/><path class="cls-3" d="M48.31,154a2.75,2.75,0,0,0-2.82-.26,2.92,2.92,0,0,1,2.54.4A8.64,8.64,0,0,1,52,160.92a2.78,2.78,0,0,1-1.11,2.5,2.6,2.6,0,0,0,1.39-2.64A8.64,8.64,0,0,0,48.31,154Z" transform="translate(-22.01 -67.66)"/><path class="cls-4" d="M96.83,134.15,72.14,120.28c-1.35-.78-1.18-2.14.38-3h0c1.56-.91,6.72-.91,8.07-.13l23.22,13c2.08,1.22,0,2.9-1.7,3.78h0A5.88,5.88,0,0,1,96.83,134.15Z" transform="translate(-22.01 -67.66)"/><path class="cls-5" d="M96.4,134,74.13,121a6.72,6.72,0,0,1-2.81-5.36V86.59c0-2.07,1.26-3,2.81-2.13l22.27,13a6.71,6.71,0,0,1,2.81,5.36v29.06C99.21,133.94,98,134.89,96.4,134Z" transform="translate(-22.01 -67.66)"/><path class="cls-7" d="M96.76,132.37,74.92,119.64a4.77,4.77,0,0,1-2-4V87.33a.5.5,0,0,1,.75-.43l.08,0L95.61,99.71a4.32,4.32,0,0,1,2,4v28.23a.53.53,0,0,1-.8.47Z" transform="translate(-22.01 -67.66)"/><path class="cls-8" d="M97.28,132l-.07,0L75.37,119.27a4.78,4.78,0,0,1-2-4V87a.5.5,0,0,1,0-.12.48.48,0,0,0-.46.49v28.31a4.77,4.77,0,0,0,2,4l21.84,12.73.07,0a.53.53,0,0,0,.77-.3A.54.54,0,0,1,97.28,132Z" transform="translate(-22.01 -67.66)"/><path class="cls-11" d="M97.72,96.77l-22.27-13a1.87,1.87,0,0,0-1.64-.24c-.06,0-1.37.69-1.43.72h0a1.85,1.85,0,0,1,1.75.19l22.27,13a6.71,6.71,0,0,1,2.81,5.36v29.06c0,1.29-.49,2.15-1.24,2.39a.54.54,0,0,0,.25-.08s1.41-.75,1.44-.78a2.57,2.57,0,0,0,.87-2.2V102.14A6.74,6.74,0,0,0,97.72,96.77Z" transform="translate(-22.01 -67.66)"/><path class="cls-12" d="M97.72,96.77l-22.27-13a1.87,1.87,0,0,0-1.64-.24c-.06,0-1.37.69-1.43.72h0a1.85,1.85,0,0,1,1.75.19l22.27,13Z" transform="translate(-22.01 -67.66)"/><path class="cls-13" d="M96.53,97.38l-22.27-13a1.86,1.86,0,0,0-1.69-.22,2.05,2.05,0,0,1,1.35.32l22.28,13A6.73,6.73,0,0,1,99,102.85v29.06a2.36,2.36,0,0,1-1.12,2.34c.87-.14,1.45-1,1.45-2.45V102.74A6.72,6.72,0,0,0,96.53,97.38Z" transform="translate(-22.01 -67.66)"/><path class="cls-5" d="M85.5,116.69h-.11a.5.5,0,0,1-.37-.59,37.89,37.89,0,0,0,.86-8.27v-.2a.49.49,0,1,1,1,0v.2a39.3,39.3,0,0,1-.88,8.49A.51.51,0,0,1,85.5,116.69Z" transform="translate(-22.01 -67.66)"/><path class="cls-5" d="M82,120h-.12a.49.49,0,0,1-.36-.59A65.57,65.57,0,0,0,83,106a2.56,2.56,0,0,1,.82-2,.48.48,0,0,1,.69.08.49.49,0,0,1-.07.69A1.58,1.58,0,0,0,84,106a66.62,66.62,0,0,1-1.48,13.68A.5.5,0,0,1,82,120Z" transform="translate(-22.01 -67.66)"/><path class="cls-5" d="M89,109.64a.49.49,0,0,1-.49-.49A5.67,5.67,0,0,0,86,104.79a.5.5,0,0,1-.18-.67.48.48,0,0,1,.67-.18,6.54,6.54,0,0,1,3,5.21A.49.49,0,0,1,89,109.64Z" transform="translate(-22.01 -67.66)"/><path class="cls-5" d="M87,123.64h-.11a.49.49,0,0,1-.37-.59,97.59,97.59,0,0,0,1.73-10,.49.49,0,1,1,1,.11,97,97,0,0,1-1.74,10.08A.49.49,0,0,1,87,123.64Z" transform="translate(-22.01 -67.66)"/><path class="cls-5" d="M92.9,124.57h-.12a.49.49,0,0,1-.35-.6,45.16,45.16,0,0,0,1.4-11.56v-.19c0-4.95-3.51-11-7.83-13.5-2-1.16-3.87-1.36-5.23-.57s-2.11,2.46-2.11,4.75a47.32,47.32,0,0,1-1.06,10.29.49.49,0,0,1-.58.37.5.5,0,0,1-.38-.59,46.53,46.53,0,0,0,1-10.07c0-2.65.92-4.64,2.6-5.6s3.89-.77,6.21.57c4.59,2.65,8.32,9.08,8.32,14.35v.19a46.16,46.16,0,0,1-1.43,11.81A.49.49,0,0,1,92.9,124.57Z" transform="translate(-22.01 -67.66)"/><path class="cls-5" d="M79.4,117l-.12,0a.48.48,0,0,1-.36-.59,44,44,0,0,0,.92-4.65.5.5,0,0,1,.55-.42.49.49,0,0,1,.42.55,42.65,42.65,0,0,1-.94,4.76A.48.48,0,0,1,79.4,117Z" transform="translate(-22.01 -67.66)"/><path class="cls-5" d="M80.5,110.89h0a.5.5,0,0,1-.44-.54,51.59,51.59,0,0,0,.32-5.92,5.07,5.07,0,0,1,.82-3,.48.48,0,0,1,.68-.11A.49.49,0,0,1,82,102a4.14,4.14,0,0,0-.64,2.41,56,56,0,0,1-.32,6A.5.5,0,0,1,80.5,110.89Z" transform="translate(-22.01 -67.66)"/><path class="cls-5" d="M90.92,107.58a.51.51,0,0,1-.46-.31A11.34,11.34,0,0,0,86,101.75a3.83,3.83,0,0,0-2.82-.6.5.5,0,0,1-.6-.35.5.5,0,0,1,.36-.6,4.79,4.79,0,0,1,3.55.7,12.26,12.26,0,0,1,4.89,6,.48.48,0,0,1-.28.63A.39.39,0,0,1,90.92,107.58Z" transform="translate(-22.01 -67.66)"/><path class="cls-5" d="M89.67,124.55l-.16,0a.51.51,0,0,1-.31-.62l.11-.33a40.43,40.43,0,0,0,1.87-12.71v-.19a.49.49,0,1,1,1,0v.19a41.24,41.24,0,0,1-1.92,13l-.11.33A.49.49,0,0,1,89.67,124.55Z" transform="translate(-22.01 -67.66)"/><path class="cls-4" d="M265.63,126.54,256,121.11a2.73,2.73,0,0,0,1.33-2.12c0-2.17-3.69-3.92-8.25-3.92s-8.25,1.75-8.25,3.92,3.7,3.92,8.25,3.92a16.71,16.71,0,0,0,2.71-.22l10.41,5.84a3,3,0,0,0,2.63-.1C265.64,128,266.66,127.15,265.63,126.54Z" transform="translate(-22.01 -67.66)"/><path class="cls-10" d="M254.55,94.82a.47.47,0,0,0-.64-.17l-1.28.73a2.13,2.13,0,0,1-2.06-.26l-.41-.24c0-.39,0-.81,0-1.23l-7.48-4.32c0,.42,0,.85,0,1.28a7,7,0,0,1-2.3-2.46L239.18,86a.46.46,0,1,0-.8.47l1.27,2.2a7.85,7.85,0,0,0,2.7,2.83l.51.3c0,.39.1.78.17,1.16l-2.2-1.27a.47.47,0,0,0-.46.81l2.9,1.68.24.92a2.58,2.58,0,0,0-1.36.07,2.29,2.29,0,0,0-1.39,1.38l-.49,1.23a.46.46,0,0,0,.43.64.46.46,0,0,0,.43-.29l.5-1.23a1.36,1.36,0,0,1,.82-.85,2,2,0,0,1,1.4.13,7.54,7.54,0,0,0,2.61,3.94c1,.57,1.9.2,2.57-.86a8.07,8.07,0,0,1,2.25,3.67l.49,1.8a.47.47,0,0,0,.45.34h.13a.47.47,0,0,0,.32-.58l-.49-1.8a8.74,8.74,0,0,0-2.72-4.28c.07-.17.13-.35.19-.54l2.44,1.41a.48.48,0,0,0,.64-.17.47.47,0,0,0-.17-.64l-2.66-1.54c.06-.3.11-.63.16-1l.05,0a3.77,3.77,0,0,0,1.84.55,2.34,2.34,0,0,0,1.15-.29l1.27-.73A.47.47,0,0,0,254.55,94.82Z" transform="translate(-22.01 -67.66)"/><path class="cls-10" d="M242.92,84.18a3.78,3.78,0,0,1,1.72,2.44l.08.4c-.87.15-1.44.94-1.44,2.22l6.37,3.68a7,7,0,0,0-1.55-4l.18-.67a.58.58,0,0,1,.33-.44,1.08,1.08,0,0,1,.93.23.48.48,0,0,0,.65-.14.47.47,0,0,0-.14-.65,1.94,1.94,0,0,0-1.77-.31,1.5,1.5,0,0,0-.9,1.07l0,.11a5,5,0,0,0-.89-.66,3,3,0,0,0-.77-.33l-.14-.67a4.62,4.62,0,0,0-2.21-3.08.47.47,0,1,0-.42.83Z" transform="translate(-22.01 -67.66)"/><path class="cls-7" d="M253.85,95a.47.47,0,0,0-.64-.17l-1.27.73a2.15,2.15,0,0,1-2.07-.26l-.41-.24c0-.39,0-.81,0-1.23L242,89.54c0,.42,0,.85,0,1.28a7,7,0,0,1-2.3-2.46l-1.27-2.2a.47.47,0,0,0-.64-.17.46.46,0,0,0-.17.64l1.28,2.2a7.74,7.74,0,0,0,2.69,2.83l.51.3c.05.39.1.78.17,1.16l-2.2-1.27a.47.47,0,0,0-.46.81l2.9,1.68.24.92a2.58,2.58,0,0,0-1.36.07,2.29,2.29,0,0,0-1.39,1.38l-.49,1.23a.46.46,0,0,0,.43.64.46.46,0,0,0,.43-.29l.5-1.23a1.37,1.37,0,0,1,.83-.85,1.93,1.93,0,0,1,1.39.13,7.54,7.54,0,0,0,2.61,3.94c1,.57,1.9.2,2.57-.86a7.93,7.93,0,0,1,2.25,3.67l.49,1.8a.47.47,0,0,0,.45.34h.13a.47.47,0,0,0,.32-.58l-.49-1.8a8.74,8.74,0,0,0-2.72-4.28c.07-.17.13-.35.19-.54l2.44,1.41a.53.53,0,0,0,.23.06.47.47,0,0,0,.24-.87l-2.66-1.54c.06-.3.12-.63.16-1l0,0a3.77,3.77,0,0,0,1.84.55,2.34,2.34,0,0,0,1.15-.29l1.28-.73A.47.47,0,0,0,253.85,95Z" transform="translate(-22.01 -67.66)"/><path class="cls-7" d="M242.22,84.39a3.75,3.75,0,0,1,1.72,2.44l.08.4c-.87.15-1.44.94-1.44,2.22L249,93.13a7,7,0,0,0-1.55-4l.18-.67a.58.58,0,0,1,.33-.44,1.1,1.1,0,0,1,.93.22.47.47,0,1,0,.51-.78,1.94,1.94,0,0,0-1.77-.31,1.5,1.5,0,0,0-.9,1.07l0,.1a5.47,5.47,0,0,0-.89-.65,3.42,3.42,0,0,0-.77-.34l-.13-.66a4.67,4.67,0,0,0-2.22-3.08.47.47,0,1,0-.42.83Z" transform="translate(-22.01 -67.66)"/><path class="cls-8" d="M265.59,125.48a2.21,2.21,0,1,1-3-.9A2.2,2.2,0,0,1,265.59,125.48Z" transform="translate(-22.01 -67.66)"/><path class="cls-7" d="M258.59,111.55l-4.8,2.59,7.15,13.19h0v0c.42.77,1.83.81,3.15.1s2.06-1.92,1.65-2.69v0h0Z" transform="translate(-22.01 -67.66)"/><path class="cls-9" d="M258.59,111.56c.42.78-.32,2-1.64,2.69s-2.74.67-3.15-.1.32-2,1.64-2.69S258.18,110.79,258.59,111.56Z" transform="translate(-22.01 -67.66)"/><path class="cls-8" d="M255.45,108.06l-2.85,1.53,2,3.76h0v0c.25.45,1.09.48,1.87.06s1.23-1.14,1-1.6h0Z" transform="translate(-22.01 -67.66)"/><path class="cls-6" d="M247.4,77.82c-3.55-2-6.77-2.29-9.12-1-.07,0-3.45,1.92-3.56,2.08,2.4-1.81,5.95-1.78,9.91.51,7.22,4.17,13.07,14.26,13.07,22.54,0,4.23-1.53,7.16-4,8.47a2.22,2.22,0,0,0,.64-.28c.07,0,2.38-1.43,2.44-1.47,2.27-1.39,3.67-4.26,3.67-8.3C260.47,92.08,254.62,82,247.4,77.82Z" transform="translate(-22.01 -67.66)"/><path class="cls-2" d="M244.63,79.4c-7.22-4.17-13.07-.83-13.07,7.45s5.85,18.37,13.07,22.54,13.07.83,13.07-7.45S251.85,83.57,244.63,79.4Zm-.2,28c-6.12-3.53-11.09-12.1-11.09-19.13s5-9.86,11.09-6.32,11.09,12.1,11.09,19.13S250.56,111,244.43,107.41Z" transform="translate(-22.01 -67.66)"/><path class="cls-6" d="M246.73,106.13C240.6,102.59,235.64,94,235.64,87c0-2.87.82-5,2.22-6.36-2.74.74-4.52,3.44-4.52,7.64,0,7,5,15.6,11.09,19.13,3.63,2.1,6.85,2,8.87,0C251.46,107.94,249.19,107.55,246.73,106.13Z" transform="translate(-22.01 -67.66)"/><path class="cls-13" d="M245.26,79.08c-3.46-2-6.61-2.26-8.95-1.09a11.38,11.38,0,0,1,8.32,1.41c7.22,4.17,13.07,14.26,13.07,22.54,0,4.31-2.09,7.41-4.63,8.68,3.19-.9,5.26-4.07,5.26-9C258.33,93.34,252.47,83.25,245.26,79.08Z" transform="translate(-22.01 -67.66)"/><path class="cls-4" d="M270.59,228c-4.45,2.57-11.69,2.56-16.17,0s-4.51-6.77,0-9.34,11.69-2.56,16.17,0S275.05,225.44,270.59,228Z" transform="translate(-22.01 -67.66)"/><ellipse class="cls-7" cx="259.13" cy="210.14" rx="11.35" ry="19.67" transform="translate(-92.64 91.84) rotate(-30.31)"/><ellipse class="cls-9" cx="258.56" cy="210.45" rx="11.35" ry="19.67" transform="translate(-92.88 91.6) rotate(-30.31)"/><path class="cls-6" d="M271.06,218.54c0,4.14-1.43,7.07-3.76,8.49l-2.74,1.69c-2.42,1.35-.87-1.72-4.54-3.84-7.39-4.27-13.39-14.6-13.39-23.08,0-4.19-3.87-4.23-1.5-5.63l3.2-1.75c2.41-1.31,5.71-1.06,9.34,1C265.06,199.72,271.06,210.05,271.06,218.54Z" transform="translate(-22.01 -67.66)"/><ellipse class="cls-2" cx="254.59" cy="212.6" rx="10.89" ry="18.87" transform="matrix(0.86, -0.5, 0.5, 0.86, -94.51, 89.89)"/><path class="cls-15" d="M255.13,197c-3.54-2.05-6.76-2.33-9.15-1.13h.07c2.32-.86,5.28-.48,8.52,1.39C262,201.51,268,211.84,268,220.32c0,4.38-1.59,7.41-4.16,8.73,2.89-1.15,4.73-4.29,4.73-9C268.52,211.59,262.53,201.25,255.13,197Z" transform="translate(-22.01 -67.66)"/><path class="cls-7" d="M260.87,204.4l-1.23,1.43a6.26,6.26,0,0,1,.39.51l1.21-1.46c-.1-.14-.21-.27-.31-.4Z" transform="translate(-22.01 -67.66)"/><path class="cls-7" d="M260.1,203.43l-.3-.34-.08-.09-1,1.68.05,0,.36.41Z" transform="translate(-22.01 -67.66)"/><path class="cls-7" d="M259.88,229.15h.2l-1.05-3c-.1,0-.21,0-.32,0l1.07,3Z" transform="translate(-22.01 -67.66)"/><path class="cls-7" d="M258.89,202.09c-.11-.12-.23-.24-.35-.35l0,0-.81,1.92.07.07.34.34Z" transform="translate(-22.01 -67.66)"/><path class="cls-7" d="M262.28,228.74l-1.46-2.94-.27.1,1.48,2.93Z" transform="translate(-22.01 -67.66)"/><path class="cls-7" d="M261,229.07l.22,0-1.26-3-.3.05,1.28,3Z" transform="translate(-22.01 -67.66)"/><path class="cls-7" d="M262,205.9l-1.41,1.16.36.54,1.39-1.19c-.11-.17-.22-.34-.34-.5Z" transform="translate(-22.01 -67.66)"/><path class="cls-7" d="M258.63,229.05l.24,0-.81-3-.35,0,.84,2.95Z" transform="translate(-22.01 -67.66)"/><path class="cls-7" d="M264.56,219.24l0,.44,2.28,1.43c0-.13,0-.27,0-.41Z" transform="translate(-22.01 -67.66)"/><path class="cls-7" d="M254.64,227.65l.37.19-.11-2.67-.39-.2Z" transform="translate(-22.01 -67.66)"/><path class="cls-7" d="M254.63,198.58l-.13,2.52.41.26.1-2.53C254.89,198.74,254.76,198.66,254.63,198.58Z" transform="translate(-22.01 -67.66)"/><path class="cls-7" d="M257.61,228.85,257,226l-.36-.1.61,2.89Z" transform="translate(-22.01 -67.66)"/><path class="cls-7" d="M257.24,200.53l-.59,2.14.42.36.56-2.16Z" transform="translate(-22.01 -67.66)"/><path class="cls-7" d="M261.37,208.35l.33.57,1.56-.91-.31-.54Z" transform="translate(-22.01 -67.66)"/><path class="cls-7" d="M256.32,228.43l-.34-2.8-.38-.15.37,2.8Z" transform="translate(-22.01 -67.66)"/><path class="cls-7" d="M256,199.48l-.37,2.34.42.31.34-2.35C256.21,199.67,256.08,199.58,256,199.48Z" transform="translate(-22.01 -67.66)"/><path class="cls-7" d="M264.17,215.28c0,.18.07.36.1.54l2.17.57c0-.17-.06-.33-.1-.5Z" transform="translate(-22.01 -67.66)"/><path class="cls-7" d="M263.26,228.27l-1.64-2.86-.25.14L263,228.4Z" transform="translate(-22.01 -67.66)"/><path class="cls-7" d="M266.38,223.85c0-.11.05-.22.08-.34l-2.22-2-.09.36Z" transform="translate(-22.01 -67.66)"/><path class="cls-7" d="M266.07,224.75l-2.15-2.2c0,.1-.08.21-.13.32l2.17,2.18.09-.23Z" transform="translate(-22.01 -67.66)"/><path class="cls-7" d="M264.56,218.45l2.26,1.15c0-.14,0-.29,0-.44L264.54,218C264.55,218.13,264.56,218.29,264.56,218.45Z" transform="translate(-22.01 -67.66)"/><path class="cls-7" d="M266.64,217.55l-2.23-.9q0,.22.06.51l2.23.87Z" transform="translate(-22.01 -67.66)"/><path class="cls-7" d="M264.4,220.83l2.26,1.7c0-.12,0-.25,0-.37l-2.25-1.73C264.44,220.58,264.42,220.71,264.4,220.83Z" transform="translate(-22.01 -67.66)"/><path class="cls-7" d="M265.91,214.19l-2.09-.3c0,.17.09.34.13.52v0l2.09.27v0C266,214.52,266,214.36,265.91,214.19Z" transform="translate(-22.01 -67.66)"/><path class="cls-7" d="M264.14,227.63l-1.81-2.75a1.74,1.74,0,0,1-.22.19l1.82,2.73Z" transform="translate(-22.01 -67.66)"/><path class="cls-7" d="M263.85,209.1l-1.73.6c.1.19.19.38.29.58l1.72-.63h0C264,209.46,264,209.28,263.85,209.1Z" transform="translate(-22.01 -67.66)"/><path class="cls-7" d="M264.87,226.87l0-.05L263,224.23l-.19.23,2,2.58Z" transform="translate(-22.01 -67.66)"/><path class="cls-7" d="M264.66,210.78l-1.88.3c.09.19.17.39.25.58l1.86-.33,0-.08C264.79,211.09,264.73,210.94,264.66,210.78Z" transform="translate(-22.01 -67.66)"/><path class="cls-7" d="M265.35,212.48h-2l.18.53,0,.05,2,0,0-.12C265.44,212.77,265.4,212.62,265.35,212.48Z" transform="translate(-22.01 -67.66)"/><path class="cls-7" d="M265.41,226.12l.09-.16a.93.93,0,0,1,.05-.1l-2.06-2.41c-.05.09-.1.18-.16.27Z" transform="translate(-22.01 -67.66)"/><path class="cls-7" d="M244.15,210.39c0-.18-.07-.36-.1-.54l-2.17-.57c0,.17.06.34.1.51Z" transform="translate(-22.01 -67.66)"/><path class="cls-7" d="M243,213.19h2c-.06-.17-.11-.34-.17-.51l0-.07-2,0a.65.65,0,0,1,0,.13C242.88,212.92,242.92,213.06,243,213.19Z" transform="translate(-22.01 -67.66)"/><path class="cls-7" d="M242.77,199.82l2.06,2.41L245,202l-2.08-2.4a1.3,1.3,0,0,0-.08.17Z" transform="translate(-22.01 -67.66)"/><path class="cls-7" d="M243.46,198.8l0,.06,2,2.59.19-.24-2-2.58Z" transform="translate(-22.01 -67.66)"/><path class="cls-7" d="M244.19,198.05l1.8,2.74.22-.19-1.82-2.73Z" transform="translate(-22.01 -67.66)"/><path class="cls-7" d="M246.2,216c-.1-.19-.19-.39-.28-.58l-1.73.62c.09.19.18.37.28.55Z" transform="translate(-22.01 -67.66)"/><path class="cls-7" d="M242.41,211.48l2.09.31c0-.18-.09-.35-.13-.52v-.05l-2.09-.26v0C242.32,211.15,242.36,211.32,242.41,211.48Z" transform="translate(-22.01 -67.66)"/><path class="cls-7" d="M243.66,214.89l1.88-.29-.24-.59-1.87.33,0,.12Z" transform="translate(-22.01 -67.66)"/><path class="cls-7" d="M253.69,227.09l.13-2.52-.41-.25-.1,2.53Z" transform="translate(-22.01 -67.66)"/><path class="cls-7" d="M243.77,206.44c0-.15,0-.3,0-.44l-2.28-1.44c0,.14,0,.28,0,.41Z" transform="translate(-22.01 -67.66)"/><path class="cls-7" d="M241.52,206.52l2.26,1.18c0-.16,0-.32,0-.47l-2.26-1.16C241.5,206.22,241.51,206.37,241.52,206.52Z" transform="translate(-22.01 -67.66)"/><path class="cls-7" d="M241.68,208.13l2.23.89-.06-.5-2.23-.87Z" transform="translate(-22.01 -67.66)"/><path class="cls-7" d="M243.92,204.84l-2.26-1.7c0,.13,0,.25,0,.38l2.26,1.73C243.88,205.12,243.9,205,243.92,204.84Z" transform="translate(-22.01 -67.66)"/><path class="cls-7" d="M242.25,200.92l2.15,2.21a3.05,3.05,0,0,1,.13-.32l-2.17-2.19c0,.08-.05.16-.08.23Z" transform="translate(-22.01 -67.66)"/><path class="cls-7" d="M245.06,197.41l1.65,2.85.24-.14-1.66-2.84Z" transform="translate(-22.01 -67.66)"/><path class="cls-7" d="M242,201.82l-.09.34,2.22,2c0-.12.06-.25.09-.36Z" transform="translate(-22.01 -67.66)"/><path class="cls-7" d="M249.69,196.62l-.24,0,.82,2.95.34.06-.84-3Z" transform="translate(-22.01 -67.66)"/><path class="cls-7" d="M251.08,225.15l.59-2.14-.41-.36-.57,2.16Z" transform="translate(-22.01 -67.66)"/><path class="cls-7" d="M249.43,223.59l.35.34,0,0,.81-1.92-.06-.06-.35-.35Z" transform="translate(-22.01 -67.66)"/><path class="cls-7" d="M250.71,196.83l.58,2.89.36.1-.6-2.89Z" transform="translate(-22.01 -67.66)"/><path class="cls-7" d="M252,197.25l.34,2.79.38.15-.37-2.8Z" transform="translate(-22.01 -67.66)"/><path class="cls-7" d="M247,217.32c-.11-.18-.22-.37-.32-.56l-1.57.91.31.53Z" transform="translate(-22.01 -67.66)"/><path class="cls-7" d="M252.37,226.19l.37-2.34-.42-.31L252,225.9Z" transform="translate(-22.01 -67.66)"/><path class="cls-7" d="M253.31,197.84l.11,2.67.39.2-.13-2.68Z" transform="translate(-22.01 -67.66)"/><path class="cls-7" d="M246.37,219.78l1.41-1.16-.36-.54L246,219.27l.34.5Z" transform="translate(-22.01 -67.66)"/><path class="cls-7" d="M246,196.93l1.46,2.94.27-.09-1.48-2.93Z" transform="translate(-22.01 -67.66)"/><path class="cls-7" d="M247.31,196.61l-.21,0,1.26,3,.3-.05-1.28-3Z" transform="translate(-22.01 -67.66)"/><path class="cls-7" d="M248.22,222.25c.1.11.2.23.31.34l.08.09,1-1.69,0,0c-.13-.14-.25-.28-.37-.43Z" transform="translate(-22.01 -67.66)"/><path class="cls-7" d="M248.44,196.52h-.2l1,3h.32l-1.07-3Z" transform="translate(-22.01 -67.66)"/><path class="cls-7" d="M247.45,221.27l1.23-1.43-.39-.5-1.2,1.46c.09.13.19.26.29.38Z" transform="translate(-22.01 -67.66)"/><path class="cls-5" d="M261,218.21c0,2.47-.86,4.22-2.24,5.07l-5.08,1.32c-1.29.7-.46-.88-2.44-2-4-2.19-7.18-7.49-7.18-11.85,0-2.15-2.08-2.17-.81-2.88,0,0,4.15-4.05,4.15-4.05,1.48-.81,3.45-.66,5.61.59C257.46,207,261,213.15,261,218.21Z" transform="translate(-22.01 -67.66)"/><ellipse class="cls-2" cx="248.37" cy="216.33" rx="5.78" ry="9.8" transform="translate(-99.46 100.4) rotate(-32.63)"/><path class="cls-15" d="M248.69,208.26c-1.91-1-3.64-1.2-4.94-.58a5.93,5.93,0,0,1,4.32.81c4,2.2,7.22,7.54,7.22,11.91,0,2.28-.88,3.85-2.28,4.52,1.76-.47,2.91-2.15,2.91-4.75C255.92,215.79,252.68,210.46,248.69,208.26Z" transform="translate(-22.01 -67.66)"/><polygon class="cls-10" points="233.26 138.62 238.23 135.31 235.65 141.15 233.26 138.62"/><path class="cls-4" d="M174.37,214.63l-58.52-33.79c-2.31-1.34-2-3.67.65-5.21l33.21-19.17c2.67-1.55,6.71-1.71,9-.38l58.52,33.79c2.31,1.34,2,3.67-.64,5.21l-33.22,19.17C180.72,215.79,176.69,216,174.37,214.63Z" transform="translate(-22.01 -67.66)"/><path class="cls-9" d="M174.37,211.33l-58.52-33.79a2.69,2.69,0,0,1-1.56-2.22v-2.9c0-1,.76.74,2.21-.09l33.21-19.17c2.67-1.54,6.71-1.71,9-.38l58.52,33.79c.77.45,1.33-1.44,1.53-.84.07.2,0,2.85,0,3.06,0,1-.72,2.13-2.2,3L183.39,211C180.72,212.5,176.69,212.66,174.37,211.33Z" transform="translate(-22.01 -67.66)"/><path class="cls-2" d="M174.37,208.48l-58.52-33.79c-2.31-1.33-2-3.66.65-5.2l33.21-19.18c2.67-1.54,6.71-1.71,9-.37l58.52,33.79c2.31,1.33,2,3.66-.64,5.2l-33.22,19.18C180.72,209.65,176.69,209.82,174.37,208.48Z" transform="translate(-22.01 -67.66)"/><path class="cls-16" d="M174.37,211.33c2.32,1.33,6.35,1.17,9-.38v-2.84c-2.67,1.54-6.7,1.71-9,.37Z" transform="translate(-22.01 -67.66)"/><path class="cls-11" d="M174.37,208.48l-58.52-33.79a2.6,2.6,0,0,1-1.55-2.43.76.76,0,0,0,0,.16v2.9a2.69,2.69,0,0,0,1.56,2.22l58.52,33.79Z" transform="translate(-22.01 -67.66)"/><path class="cls-3" d="M216.61,188.45l-33.22,19.18c-2.67,1.54-6.7,1.7-9,.37l-58.52-33.79a2.73,2.73,0,0,1-1.54-2.05,2.57,2.57,0,0,0,1.54,2.53l58.52,33.79c2.32,1.34,6.35,1.17,9-.37l33.22-19.18c1.56-.9,2.3-2.07,2.19-3.15A3.94,3.94,0,0,1,216.61,188.45Z" transform="translate(-22.01 -67.66)"/><path class="cls-17" d="M161.05,196.68l-20.83-12c-.41-.24-.36-.66.12-.94l7.82-4.51a1.81,1.81,0,0,1,1.63-.07l20.83,12c.41.24.36.66-.12.94l-7.82,4.51A1.81,1.81,0,0,1,161.05,196.68Z" transform="translate(-22.01 -67.66)"/><path class="cls-5" d="M140.34,184.21l7.82-4.52a1.78,1.78,0,0,1,1.63-.06l20.83,12a.79.79,0,0,1,.19.17.43.43,0,0,0-.19-.66l-20.83-12a1.81,1.81,0,0,0-1.63.07l-7.82,4.51c-.38.22-.49.53-.31.77A1.06,1.06,0,0,1,140.34,184.21Z" transform="translate(-22.01 -67.66)"/><path class="cls-6" d="M154.92,154.28l3.59,2.07a1.76,1.76,0,0,0,1.64,0c.46-.26.46-.68,0-.95l-3.59-2.07a1.84,1.84,0,0,0-1.65,0A.5.5,0,0,0,154.92,154.28Zm6.14,3.55,1.7,1a1.84,1.84,0,0,0,1.65,0,.5.5,0,0,0,0-.95l-1.7-1a1.81,1.81,0,0,0-1.65,0C160.6,157.14,160.61,157.56,161.06,157.83Zm4.26,2.46,1.7,1a1.84,1.84,0,0,0,1.65,0,.5.5,0,0,0,0-1l-1.7-1a1.81,1.81,0,0,0-1.65,0C164.86,159.6,164.86,160,165.32,160.29Zm4.26,2.45,1.7,1a1.81,1.81,0,0,0,1.65,0,.5.5,0,0,0,0-.95l-1.7-1a1.84,1.84,0,0,0-1.65,0A.5.5,0,0,0,169.58,162.74Zm4.25,2.46,1.7,1a1.81,1.81,0,0,0,1.65,0c.46-.27.45-.69,0-1l-1.7-1a1.84,1.84,0,0,0-1.65,0A.5.5,0,0,0,173.83,165.2Zm4.26,2.46,1.7,1a1.84,1.84,0,0,0,1.65,0,.5.5,0,0,0,0-.95l-1.7-1a1.79,1.79,0,0,0-1.64,0C177.63,167,177.63,167.39,178.09,167.66Zm4.26,2.46,1.7,1a1.84,1.84,0,0,0,1.65,0,.5.5,0,0,0,0-.95l-1.7-1a1.81,1.81,0,0,0-1.65,0C181.89,169.43,181.89,169.85,182.35,170.12Zm4.25,2.45,1.7,1a1.84,1.84,0,0,0,1.65,0,.5.5,0,0,0,0-.95l-1.7-1a1.81,1.81,0,0,0-1.65,0A.5.5,0,0,0,186.6,172.57Zm4.26,2.46,1.7,1a1.81,1.81,0,0,0,1.65,0c.45-.27.45-.69,0-1l-1.7-1a1.82,1.82,0,0,0-1.64,0A.5.5,0,0,0,190.86,175Zm4.26,2.46,1.7,1a1.81,1.81,0,0,0,1.65,0c.45-.26.45-.68,0-.95l-1.7-1a1.84,1.84,0,0,0-1.65,0A.5.5,0,0,0,195.12,177.49Zm4.25,2.46,1.71,1a1.82,1.82,0,0,0,1.64,0,.5.5,0,0,0,0-1l-1.7-1a1.78,1.78,0,0,0-1.65,0C198.92,179.26,198.92,179.68,199.37,180Zm4.26,2.45,1.7,1a1.84,1.84,0,0,0,1.65,0,.5.5,0,0,0,0-.95l-1.7-1a1.79,1.79,0,0,0-1.64,0A.5.5,0,0,0,203.63,182.4Zm4.35,2.51,1.7,1a1.81,1.81,0,0,0,1.65,0,.5.5,0,0,0,0-1l-1.7-1a1.84,1.84,0,0,0-1.65,0A.5.5,0,0,0,208,184.91Zm-56.89-28.29,1.47.85a2.08,2.08,0,0,0,1.88,0l1.46-.84c.52-.3.51-.78,0-1.08l-1.47-.85a2.09,2.09,0,0,0-1.87,0l-1.47.85A.57.57,0,0,0,151.09,156.62Zm7.6,3.31,1.47-.84a.58.58,0,0,0,0-1.09l-1.47-.85a2.08,2.08,0,0,0-1.88,0l-1.46.85c-.52.29-.51.78,0,1.08l1.47.85A2.06,2.06,0,0,0,158.69,159.93Zm.91,1.61,1.47.85a2.08,2.08,0,0,0,1.88,0l1.46-.84a.58.58,0,0,0,0-1.09l-1.48-.85a2.06,2.06,0,0,0-1.87,0l-1.46.84A.58.58,0,0,0,159.6,161.54Zm4.26,2.45,1.47.85a2.08,2.08,0,0,0,1.88,0l1.46-.85c.52-.3.51-.78,0-1.08l-1.47-.85a2.06,2.06,0,0,0-1.87,0l-1.47.84A.57.57,0,0,0,163.86,164Zm9.06,1.39-1.47-.85a2.11,2.11,0,0,0-1.88,0l-1.46.85c-.52.3-.51.78,0,1.08l1.47.85a2.09,2.09,0,0,0,1.87,0l1.47-.85A.57.57,0,0,0,172.92,165.38Zm4.26,2.46-1.47-.85a2.08,2.08,0,0,0-1.88,0l-1.46.85c-.52.29-.52.78,0,1.08l1.47.85a2.08,2.08,0,0,0,1.88,0l1.46-.84A.57.57,0,0,0,177.18,167.84Zm4.25,2.45-1.47-.85a2.06,2.06,0,0,0-1.87,0l-1.47.84a.58.58,0,0,0,0,1.09l1.47.85a2.08,2.08,0,0,0,1.88,0l1.46-.84C182,171.08,182,170.59,181.43,170.29Zm4.26,2.46-1.47-.85a2.08,2.08,0,0,0-1.88,0l-1.46.84c-.52.3-.51.79,0,1.09l1.47.84a2.06,2.06,0,0,0,1.87,0l1.47-.85C186.21,173.54,186.21,173.05,185.69,172.75Zm4.26,2.46-1.47-.85a2.08,2.08,0,0,0-1.88,0l-1.46.84a.57.57,0,0,0,0,1.08l1.48.85a2.09,2.09,0,0,0,1.87,0l1.46-.85A.57.57,0,0,0,190,175.21Zm4.25,2.46-1.47-.85a2.06,2.06,0,0,0-1.87,0l-1.47.85a.57.57,0,0,0,0,1.08l1.47.85a2.08,2.08,0,0,0,1.88,0l1.46-.84C194.73,178.45,194.72,178,194.2,177.67Zm-.54,3.53,1.47.85a2.06,2.06,0,0,0,1.87,0l1.47-.84a.58.58,0,0,0,0-1.09l-1.47-.85a2.08,2.08,0,0,0-1.88,0l-1.46.85C193.13,180.41,193.14,180.9,193.66,181.2Zm9.06,1.38-1.47-.85a2.08,2.08,0,0,0-1.88,0l-1.46.84a.58.58,0,0,0,0,1.09l1.48.85a2.06,2.06,0,0,0,1.87,0l1.46-.85C203.24,183.37,203.24,182.88,202.72,182.58Zm6.23,3.6-3.36-1.94a2.06,2.06,0,0,0-1.87,0l-1.47.84a.57.57,0,0,0,0,1.08l3.36,2a2.08,2.08,0,0,0,1.88,0l1.46-.85C209.48,187,209.47,186.48,209,186.18Zm-61.8-27.28,3.36,1.94a2.06,2.06,0,0,0,1.87,0l1.47-.84a.58.58,0,0,0,0-1.09L150.48,157a2.08,2.08,0,0,0-1.88,0l-1.46.84C146.62,158.11,146.63,158.6,147.15,158.9Zm6.14,3.55,1.47.85a2.08,2.08,0,0,0,1.88,0l1.46-.85c.52-.29.52-.78,0-1.08l-1.48-.85a2.06,2.06,0,0,0-1.87,0l-1.46.84A.58.58,0,0,0,153.29,162.45Zm5.73,3.3a2.08,2.08,0,0,0,1.88,0l1.46-.85c.52-.3.51-.78,0-1.08l-1.47-.85a2.06,2.06,0,0,0-1.87,0l-1.47.84a.57.57,0,0,0,0,1.08Zm4.26,2.46a2.06,2.06,0,0,0,1.87,0l1.47-.84a.57.57,0,0,0,0-1.08l-1.47-.85a2.11,2.11,0,0,0-1.88,0l-1.46.85c-.52.3-.51.78,0,1.08Zm4.24-.32-1.46.85c-.52.29-.52.78,0,1.08l1.47.85a2.08,2.08,0,0,0,1.88,0l1.46-.84c.52-.3.52-.79,0-1.08l-1.48-.85A2.06,2.06,0,0,0,167.52,167.89Zm4.35,2.41-1.65.95c-.46.27-.46.7,0,1l1.65,1a1.89,1.89,0,0,0,1.7,0l1.64-1c.47-.27.46-.7,0-1l-1.65-.95A1.86,1.86,0,0,0,171.87,170.3Zm4.25,2.46-1.64.94c-.47.27-.46.71,0,1l1.65,1a1.86,1.86,0,0,0,1.69,0l1.65-.95a.52.52,0,0,0,0-1l-1.65-1A1.89,1.89,0,0,0,176.12,172.76Zm4.26,2.45-1.64.95a.52.52,0,0,0,0,1l1.66,1a1.83,1.83,0,0,0,1.69,0l1.64-.95a.52.52,0,0,0,0-1l-1.66-.95A1.83,1.83,0,0,0,180.38,175.21Zm4.26,2.46-1.65,1a.52.52,0,0,0,0,1l1.65,1a1.92,1.92,0,0,0,1.7,0l1.64-.95c.47-.27.46-.71,0-1l-1.65-1A1.86,1.86,0,0,0,184.64,177.67Zm4.25,2.46-1.64,1c-.47.27-.46.7,0,1l1.65.95a1.86,1.86,0,0,0,1.69,0l1.65-.95c.46-.27.46-.7,0-1l-1.65-1A1.89,1.89,0,0,0,188.89,180.13Zm6,5.34,1.64-.95a.52.52,0,0,0,0-1l-1.65-.95a1.89,1.89,0,0,0-1.7,0l-1.64.94a.52.52,0,0,0,0,1l1.66,1A1.86,1.86,0,0,0,194.86,185.47Zm4.26,2.46,1.64-1a.52.52,0,0,0,0-1l-1.66-.95a1.86,1.86,0,0,0-1.69,0l-1.65,1a.52.52,0,0,0,0,1l1.65,1A1.89,1.89,0,0,0,199.12,187.93Zm6,.58-1.65-.95a1.85,1.85,0,0,0-1.7,0l-1.64.95c-.47.27-.46.71,0,1l1.65,1a1.86,1.86,0,0,0,1.69,0l1.65-.95A.52.52,0,0,0,205.1,188.51Zm-62-27.39,5.34,3.08a1.86,1.86,0,0,0,1.69,0l1.65-1a.52.52,0,0,0,0-1l-5.33-3.08a1.92,1.92,0,0,0-1.7,0l-1.64.95A.52.52,0,0,0,143.11,161.12Zm7.94,4.59,1.66.95a1.86,1.86,0,0,0,1.69,0l1.64-.94a.52.52,0,0,0,0-1l-1.65-1a1.89,1.89,0,0,0-1.7,0l-1.64.95A.52.52,0,0,0,151.05,165.71Zm4.26,2.45,1.65,1a1.89,1.89,0,0,0,1.7,0l1.64-1c.47-.27.47-.7,0-1l-1.66-.95a1.86,1.86,0,0,0-1.69,0l-1.65.95C154.84,167.45,154.84,167.89,155.31,168.16Zm4.26,2.46,1.65,1a1.89,1.89,0,0,0,1.7,0l1.64-1a.52.52,0,0,0,0-1l-1.65-1a1.92,1.92,0,0,0-1.7,0l-1.64.95A.52.52,0,0,0,159.57,170.62Zm7.6,3.42,1.64-.95a.52.52,0,0,0,0-1l-1.65-1a1.85,1.85,0,0,0-1.7,0l-1.64.95a.52.52,0,0,0,0,1l1.66.95A1.86,1.86,0,0,0,167.17,174Zm4.26,2.45,1.64-.94a.52.52,0,0,0,0-1l-1.66-1a1.86,1.86,0,0,0-1.69,0l-1.64.95a.52.52,0,0,0,0,1l1.65,1A1.89,1.89,0,0,0,171.43,176.49Zm4.26,2.46,1.64-.95c.47-.27.46-.7,0-1l-1.65-1a1.86,1.86,0,0,0-1.69,0l-1.65,1c-.46.27-.46.7,0,1l1.65,1A1.89,1.89,0,0,0,175.69,179Zm4.25,2.46,1.65-.95a.52.52,0,0,0,0-1l-1.65-.95a1.89,1.89,0,0,0-1.7,0l-1.64.94a.52.52,0,0,0,0,1l1.66,1A1.86,1.86,0,0,0,179.94,181.41Zm4.26,2.46,1.64-1a.52.52,0,0,0,0-1l-1.66-.95a1.86,1.86,0,0,0-1.69,0l-1.64,1a.52.52,0,0,0,0,1l1.65,1A1.85,1.85,0,0,0,184.2,183.87Zm4.26,2.46,1.64-1c.47-.27.46-.71,0-1l-1.65-1a1.86,1.86,0,0,0-1.69,0l-1.65.95a.52.52,0,0,0,0,1l1.65.95A1.92,1.92,0,0,0,188.46,186.33Zm.9,1.5,1.66.95a1.86,1.86,0,0,0,1.69,0l1.65-.95c.46-.26.46-.7,0-1l-1.65-1a1.89,1.89,0,0,0-1.7,0l-1.64.95C188.89,187.12,188.9,187.55,189.36,187.83Zm11.8,3L197,188.36a1.86,1.86,0,0,0-1.69,0l-1.64.94a.52.52,0,0,0,0,1l4.21,2.43a1.86,1.86,0,0,0,1.69,0l1.64-1C201.63,191.5,201.63,191.06,201.16,190.79Zm-62-27.27,7.57,4.37a2.11,2.11,0,0,0,1.91,0l1.43-.82a.59.59,0,0,0,0-1.11l-7.57-4.37a2.13,2.13,0,0,0-1.92,0l-1.42.82C138.65,162.71,138.66,163.21,139.19,163.52Zm10.39,6,1.44.83a2.14,2.14,0,0,0,1.91,0l1.42-.82a.59.59,0,0,0,0-1.11l-1.43-.83a2.16,2.16,0,0,0-1.92,0l-1.42.82A.59.59,0,0,0,149.58,169.52Zm4.26,2.46,1.43.82a2.13,2.13,0,0,0,1.92,0l1.42-.83c.53-.3.53-.79,0-1.1l-1.44-.83a2.11,2.11,0,0,0-1.91,0l-1.43.82A.59.59,0,0,0,153.84,172Zm4.26,2.45,1.43.83a2.08,2.08,0,0,0,1.91,0l1.43-.82c.53-.3.52-.8,0-1.1l-1.43-.83a2.1,2.1,0,0,0-1.92,0l-1.42.82C157.56,173.63,157.57,174.13,158.1,174.43Zm4.25,2.46,1.44.83a2.08,2.08,0,0,0,1.91,0l1.42-.82a.59.59,0,0,0,0-1.11l-1.43-.82a2.13,2.13,0,0,0-1.92,0l-1.42.83A.58.58,0,0,0,162.35,176.89Zm4.26,2.46,1.43.83a2.16,2.16,0,0,0,1.92,0l1.42-.82a.59.59,0,0,0,0-1.11l-1.44-.82a2.11,2.11,0,0,0-1.91,0l-1.43.82A.59.59,0,0,0,166.61,179.35Zm4.26,2.46,1.43.82a2.11,2.11,0,0,0,1.91,0l1.43-.82c.53-.31.52-.8,0-1.11l-1.43-.83a2.14,2.14,0,0,0-1.91,0l-1.43.82C170.33,181,170.34,181.5,170.87,181.81Zm4.25,2.45,1.44.83a2.11,2.11,0,0,0,1.91,0l1.43-.83a.58.58,0,0,0,0-1.1l-1.43-.83a2.1,2.1,0,0,0-1.92,0l-1.42.82A.58.58,0,0,0,175.12,184.26Zm4.26,2.46,1.43.83a2.1,2.1,0,0,0,1.92,0l1.42-.82a.58.58,0,0,0,0-1.1l-1.44-.83a2.11,2.11,0,0,0-1.91,0l-1.43.83A.58.58,0,0,0,179.38,186.72Zm4.26,2.46,1.43.83a2.13,2.13,0,0,0,1.92,0l1.42-.82c.53-.31.52-.8,0-1.11l-1.43-.82a2.11,2.11,0,0,0-1.91,0l-1.43.82C183.1,188.38,183.11,188.87,183.64,189.18Zm4.25,2.46,1.44.82a2.11,2.11,0,0,0,1.91,0l1.43-.82a.59.59,0,0,0,0-1.11l-1.43-.83a2.16,2.16,0,0,0-1.92,0l-1.42.82A.59.59,0,0,0,187.89,191.64Zm9.12,1.41-1.43-.82a2.13,2.13,0,0,0-1.92,0l-1.42.82c-.53.31-.52.8,0,1.11l1.43.83a2.14,2.14,0,0,0,1.91,0l1.43-.82A.59.59,0,0,0,197,193.05ZM141.9,165.79l-3.32-1.92a2.13,2.13,0,0,0-1.92,0l-1.42.83a.58.58,0,0,0,0,1.1l3.33,1.92a2.08,2.08,0,0,0,1.91,0l1.42-.82A.58.58,0,0,0,141.9,165.79Zm4.25,2.45-1.43-.82a2.11,2.11,0,0,0-1.91,0l-1.43.83c-.52.3-.52.79,0,1.1l1.43.83a2.13,2.13,0,0,0,1.92,0l1.42-.82C146.69,169.05,146.69,168.55,146.15,168.24Zm4.26,2.46-1.43-.83a2.16,2.16,0,0,0-1.92,0l-1.42.82c-.53.31-.52.8,0,1.11l1.43.83a2.14,2.14,0,0,0,1.91,0l1.43-.82A.59.59,0,0,0,150.41,170.7Zm29.8,17.21-27-15.58a2.13,2.13,0,0,0-1.92,0l-1.42.82a.59.59,0,0,0,0,1.11l27,15.57a2.08,2.08,0,0,0,1.91,0l1.43-.82A.58.58,0,0,0,180.21,187.91Zm4.26,2.45-1.44-.82a2.11,2.11,0,0,0-1.91,0l-1.43.82a.59.59,0,0,0,0,1.11l1.43.83a2.16,2.16,0,0,0,1.92,0l1.42-.82A.59.59,0,0,0,184.47,190.36Zm4.25,2.46-1.43-.83a2.14,2.14,0,0,0-1.91,0l-1.43.82c-.53.31-.52.8,0,1.11l1.43.82a2.13,2.13,0,0,0,1.92,0l1.42-.82C189.26,193.62,189.25,193.13,188.72,192.82Zm4.35,2.51-1.43-.83a2.13,2.13,0,0,0-1.92,0l-1.42.82a.59.59,0,0,0,0,1.11l1.44.82a2.11,2.11,0,0,0,1.91,0l1.42-.83C193.6,196.13,193.6,195.64,193.07,195.33Z" transform="translate(-22.01 -67.66)"/><path class="cls-5" d="M154.92,153.88l3.59,2.08a1.82,1.82,0,0,0,1.64,0,.5.5,0,0,0,0-1l-3.59-2.08a1.84,1.84,0,0,0-1.65,0A.5.5,0,0,0,154.92,153.88Zm6.14,3.55,1.7,1a1.81,1.81,0,0,0,1.65,0c.46-.27.45-.69,0-1l-1.7-1a1.84,1.84,0,0,0-1.65,0A.5.5,0,0,0,161.06,157.43Zm4.26,2.46,1.7,1a1.81,1.81,0,0,0,1.65,0c.45-.26.45-.68,0-1l-1.7-1a1.84,1.84,0,0,0-1.65,0A.5.5,0,0,0,165.32,159.89Zm4.26,2.46,1.7,1a1.84,1.84,0,0,0,1.65,0,.5.5,0,0,0,0-1l-1.7-1a1.81,1.81,0,0,0-1.65,0C169.12,161.66,169.12,162.08,169.58,162.35Zm4.25,2.45,1.7,1a1.84,1.84,0,0,0,1.65,0,.5.5,0,0,0,0-.95l-1.7-1a1.81,1.81,0,0,0-1.65,0A.5.5,0,0,0,173.83,164.8Zm4.26,2.46,1.7,1a1.81,1.81,0,0,0,1.65,0c.45-.27.45-.69,0-1l-1.7-1a1.82,1.82,0,0,0-1.64,0A.5.5,0,0,0,178.09,167.26Zm4.26,2.46,1.7,1a1.81,1.81,0,0,0,1.65,0c.45-.26.45-.68,0-.95l-1.7-1a1.84,1.84,0,0,0-1.65,0A.5.5,0,0,0,182.35,169.72Zm4.25,2.46,1.7,1a1.84,1.84,0,0,0,1.65,0,.5.5,0,0,0,0-.95l-1.7-1a1.81,1.81,0,0,0-1.65,0C186.15,171.49,186.15,171.91,186.6,172.18Zm4.26,2.45,1.7,1a1.84,1.84,0,0,0,1.65,0,.5.5,0,0,0,0-1l-1.7-1a1.79,1.79,0,0,0-1.64,0C190.4,174,190.4,174.37,190.86,174.63Zm4.26,2.46,1.7,1a1.81,1.81,0,0,0,1.65,0,.5.5,0,0,0,0-1l-1.7-1a1.84,1.84,0,0,0-1.65,0A.5.5,0,0,0,195.12,177.09Zm4.25,2.46,1.71,1a1.76,1.76,0,0,0,1.64,0c.46-.26.45-.68,0-.95l-1.7-1a1.84,1.84,0,0,0-1.65,0A.5.5,0,0,0,199.37,179.55Zm4.26,2.46,1.7,1a1.84,1.84,0,0,0,1.65,0,.5.5,0,0,0,0-1l-1.7-1a1.79,1.79,0,0,0-1.64,0C203.17,181.32,203.18,181.74,203.63,182Zm4.35,2.51,1.7,1a1.84,1.84,0,0,0,1.65,0,.5.5,0,0,0,0-.95l-1.7-1a1.78,1.78,0,0,0-1.65,0C207.52,183.83,207.52,184.25,208,184.52Zm-56.89-28.3,1.47.85a2.08,2.08,0,0,0,1.88,0l1.46-.85c.52-.29.51-.78,0-1.08l-1.47-.85a2.06,2.06,0,0,0-1.87,0l-1.47.84A.57.57,0,0,0,151.09,156.22Zm7.6,3.32,1.47-.85a.57.57,0,0,0,0-1.08l-1.47-.85a2.08,2.08,0,0,0-1.88,0l-1.46.84c-.52.3-.51.78,0,1.08l1.47.85A2.09,2.09,0,0,0,158.69,159.54Zm.91,1.6,1.47.85a2.08,2.08,0,0,0,1.88,0l1.46-.84a.57.57,0,0,0,0-1.08l-1.48-.85a2.06,2.06,0,0,0-1.87,0l-1.46.85A.57.57,0,0,0,159.6,161.14Zm4.26,2.46,1.47.85a2.08,2.08,0,0,0,1.88,0l1.46-.84c.52-.3.51-.79,0-1.09l-1.47-.85a2.06,2.06,0,0,0-1.87,0l-1.47.84A.58.58,0,0,0,163.86,163.6Zm9.06,1.38-1.47-.85a2.08,2.08,0,0,0-1.88,0l-1.46.84c-.52.3-.51.79,0,1.09l1.47.85a2.06,2.06,0,0,0,1.87,0l1.47-.85C173.44,165.77,173.44,165.28,172.92,165Zm4.26,2.46-1.47-.85a2.08,2.08,0,0,0-1.88,0l-1.46.84a.57.57,0,0,0,0,1.08l1.47.85a2.11,2.11,0,0,0,1.88,0l1.46-.85A.57.57,0,0,0,177.18,167.44Zm4.25,2.46-1.47-.85a2.09,2.09,0,0,0-1.87,0l-1.47.85a.57.57,0,0,0,0,1.08l1.47.85a2.08,2.08,0,0,0,1.88,0l1.46-.84C182,170.68,182,170.2,181.43,169.9Zm4.26,2.45-1.47-.85a2.08,2.08,0,0,0-1.88,0l-1.46.85c-.52.29-.51.78,0,1.08l1.47.85a2.06,2.06,0,0,0,1.87,0l1.47-.84A.58.58,0,0,0,185.69,172.35Zm4.26,2.46-1.47-.85a2.08,2.08,0,0,0-1.88,0l-1.46.84a.58.58,0,0,0,0,1.09l1.48.85a2.06,2.06,0,0,0,1.87,0l1.46-.85C190.47,175.6,190.47,175.11,190,174.81Zm4.25,2.46-1.47-.85a2.06,2.06,0,0,0-1.87,0l-1.47.84a.57.57,0,0,0,0,1.08l1.47.85a2.08,2.08,0,0,0,1.88,0l1.46-.85C194.73,178.05,194.72,177.57,194.2,177.27Zm-.54,3.53,1.47.85a2.06,2.06,0,0,0,1.87,0l1.47-.84a.57.57,0,0,0,0-1.08l-1.47-.85a2.11,2.11,0,0,0-1.88,0l-1.46.85C193.13,180,193.14,180.5,193.66,180.8Zm9.06,1.39-1.47-.85a2.08,2.08,0,0,0-1.88,0l-1.46.85c-.52.29-.52.78,0,1.08l1.48.85a2.06,2.06,0,0,0,1.87,0l1.46-.84A.57.57,0,0,0,202.72,182.19Zm6.23,3.59-3.36-1.94a2.06,2.06,0,0,0-1.87,0l-1.47.85c-.51.29-.51.78,0,1.08l3.36,1.94a2.08,2.08,0,0,0,1.88,0l1.46-.84C209.48,186.57,209.47,186.08,209,185.78Zm-61.8-27.28,3.36,1.94a2.09,2.09,0,0,0,1.87,0l1.47-.85a.57.57,0,0,0,0-1.08l-3.36-1.94a2.11,2.11,0,0,0-1.88,0l-1.46.85C146.62,157.72,146.63,158.2,147.15,158.5Zm6.14,3.55,1.47.85a2.08,2.08,0,0,0,1.88,0l1.46-.84a.57.57,0,0,0,0-1.08l-1.48-.85a2.06,2.06,0,0,0-1.87,0l-1.46.85C152.77,161.26,152.77,161.75,153.29,162.05Zm5.73,3.31a2.08,2.08,0,0,0,1.88,0l1.46-.84c.52-.3.51-.79,0-1.09l-1.47-.85a2.06,2.06,0,0,0-1.87,0l-1.47.84a.58.58,0,0,0,0,1.09Zm4.26,2.45a2.06,2.06,0,0,0,1.87,0l1.47-.85c.51-.29.51-.78,0-1.08l-1.47-.85a2.08,2.08,0,0,0-1.88,0l-1.46.84a.57.57,0,0,0,0,1.08Zm4.24-.31-1.46.84a.57.57,0,0,0,0,1.08l1.47.85a2.11,2.11,0,0,0,1.88,0l1.46-.85a.57.57,0,0,0,0-1.08l-1.48-.85A2.06,2.06,0,0,0,167.52,167.5Zm4.35,2.4-1.65.95a.52.52,0,0,0,0,1l1.65.95a1.92,1.92,0,0,0,1.7,0l1.64-.95c.47-.27.46-.71,0-1l-1.65-1A1.86,1.86,0,0,0,171.87,169.9Zm4.25,2.46-1.64.95c-.47.27-.46.7,0,1l1.65,1a1.86,1.86,0,0,0,1.69,0l1.65-1c.46-.26.46-.7,0-1l-1.65-1A1.89,1.89,0,0,0,176.12,172.36Zm4.26,2.46-1.64.94a.52.52,0,0,0,0,1l1.66,1a1.86,1.86,0,0,0,1.69,0l1.64-.95a.52.52,0,0,0,0-1l-1.66-1A1.86,1.86,0,0,0,180.38,174.82Zm4.26,2.45-1.65.95a.52.52,0,0,0,0,1l1.65,1a1.89,1.89,0,0,0,1.7,0l1.64-.95c.47-.27.46-.71,0-1l-1.65-.95A1.86,1.86,0,0,0,184.64,177.27Zm4.25,2.46-1.64,1c-.47.27-.46.71,0,1l1.65,1a1.86,1.86,0,0,0,1.69,0l1.65-1a.52.52,0,0,0,0-1l-1.65-1A1.89,1.89,0,0,0,188.89,179.73Zm6,5.34,1.64-.94a.52.52,0,0,0,0-1l-1.65-1a1.89,1.89,0,0,0-1.7,0l-1.64.95a.52.52,0,0,0,0,1l1.66.95A1.86,1.86,0,0,0,194.86,185.07Zm4.26,2.46,1.64-.95c.47-.27.46-.7,0-1l-1.66-.95a1.86,1.86,0,0,0-1.69,0l-1.65.95c-.46.26-.46.7,0,1l1.65,1A1.89,1.89,0,0,0,199.12,187.53Zm6,.58-1.65-1a1.89,1.89,0,0,0-1.7,0l-1.64.94c-.47.27-.46.71,0,1l1.65,1a1.86,1.86,0,0,0,1.69,0l1.65-.95A.52.52,0,0,0,205.1,188.11Zm-62-27.38,5.34,3.08a1.86,1.86,0,0,0,1.69,0l1.65-.95a.52.52,0,0,0,0-1l-5.33-3.08a1.89,1.89,0,0,0-1.7,0l-1.64.95C142.64,160,142.64,160.45,143.11,160.73Zm7.94,4.58,1.66.95a1.83,1.83,0,0,0,1.69,0l1.64-1a.52.52,0,0,0,0-1l-1.65-1a1.85,1.85,0,0,0-1.7,0l-1.64,1A.52.52,0,0,0,151.05,165.31Zm4.26,2.46,1.65.95a1.92,1.92,0,0,0,1.7,0l1.64-.95a.52.52,0,0,0,0-1l-1.66-1a1.86,1.86,0,0,0-1.69,0l-1.65.95A.52.52,0,0,0,155.31,167.77Zm4.26,2.46,1.65,1a1.89,1.89,0,0,0,1.7,0l1.64-1c.46-.27.46-.7,0-1l-1.65-1a1.89,1.89,0,0,0-1.7,0l-1.64.95C159.1,169.52,159.1,170,159.57,170.23Zm7.6,3.41,1.64-.95a.52.52,0,0,0,0-1l-1.65-1a1.89,1.89,0,0,0-1.7,0l-1.64.94a.52.52,0,0,0,0,1l1.66,1A1.86,1.86,0,0,0,167.17,173.64Zm4.26,2.46,1.64-.95a.52.52,0,0,0,0-1l-1.66-.95a1.86,1.86,0,0,0-1.69,0l-1.64.95a.52.52,0,0,0,0,1l1.65,1A1.89,1.89,0,0,0,171.43,176.1Zm4.26,2.46,1.64-.95c.47-.27.46-.71,0-1l-1.65-1a1.86,1.86,0,0,0-1.69,0l-1.65,1a.52.52,0,0,0,0,1l1.65,1A1.89,1.89,0,0,0,175.69,178.56Zm4.25,2.45,1.65-.94a.52.52,0,0,0,0-1l-1.65-1a1.89,1.89,0,0,0-1.7,0l-1.64,1c-.47.27-.47.7,0,1l1.66.95A1.86,1.86,0,0,0,179.94,181Zm4.26,2.46,1.64-.95c.47-.27.47-.7,0-1l-1.66-.95a1.86,1.86,0,0,0-1.69,0l-1.64.95c-.47.26-.47.7,0,1l1.65,1A1.89,1.89,0,0,0,184.2,183.47Zm4.26,2.46,1.64-1c.47-.27.46-.71,0-1l-1.65-.95a1.86,1.86,0,0,0-1.69,0l-1.65,1a.52.52,0,0,0,0,1l1.65,1A1.89,1.89,0,0,0,188.46,185.93Zm.9,1.5,1.66.95a1.86,1.86,0,0,0,1.69,0l1.65-.95a.52.52,0,0,0,0-1l-1.65-1a1.89,1.89,0,0,0-1.7,0l-1.64.95A.52.52,0,0,0,189.36,187.43Zm11.8,3L197,188a1.86,1.86,0,0,0-1.69,0l-1.64.95a.52.52,0,0,0,0,1l4.21,2.42a1.86,1.86,0,0,0,1.69,0l1.64-.95A.52.52,0,0,0,201.16,190.39Zm-62-27.27,7.57,4.37a2.11,2.11,0,0,0,1.91,0l1.43-.83a.58.58,0,0,0,0-1.1l-7.57-4.37a2.13,2.13,0,0,0-1.92,0l-1.42.82C138.65,162.32,138.66,162.81,139.19,163.12Zm10.39,6L151,170a2.08,2.08,0,0,0,1.91,0l1.42-.82a.58.58,0,0,0,0-1.1l-1.43-.83a2.13,2.13,0,0,0-1.92,0l-1.42.83A.58.58,0,0,0,149.58,169.12Zm4.26,2.46,1.43.83a2.16,2.16,0,0,0,1.92,0l1.42-.82a.59.59,0,0,0,0-1.11l-1.44-.82a2.11,2.11,0,0,0-1.91,0l-1.43.82A.59.59,0,0,0,153.84,171.58ZM158.1,174l1.43.82a2.11,2.11,0,0,0,1.91,0l1.43-.82c.53-.31.52-.8,0-1.11l-1.43-.83a2.16,2.16,0,0,0-1.92,0l-1.42.82C157.56,173.24,157.57,173.73,158.1,174Zm4.25,2.46,1.44.82a2.11,2.11,0,0,0,1.91,0l1.42-.83a.58.58,0,0,0,0-1.1l-1.43-.83a2.1,2.1,0,0,0-1.92,0l-1.42.82A.59.59,0,0,0,162.35,176.5Zm4.26,2.45,1.43.83a2.1,2.1,0,0,0,1.92,0l1.42-.82a.58.58,0,0,0,0-1.1l-1.44-.83a2.08,2.08,0,0,0-1.91,0l-1.43.82A.58.58,0,0,0,166.61,179Zm4.26,2.46,1.43.83a2.11,2.11,0,0,0,1.91,0l1.43-.82c.53-.31.52-.8,0-1.11l-1.43-.82a2.11,2.11,0,0,0-1.91,0l-1.43.82C170.33,180.61,170.34,181.1,170.87,181.41Zm4.25,2.46,1.44.83a2.14,2.14,0,0,0,1.91,0l1.43-.82a.59.59,0,0,0,0-1.11l-1.43-.83a2.16,2.16,0,0,0-1.92,0l-1.42.82A.59.59,0,0,0,175.12,183.87Zm4.26,2.46,1.43.82a2.13,2.13,0,0,0,1.92,0l1.42-.83c.53-.3.53-.79,0-1.1l-1.44-.83a2.11,2.11,0,0,0-1.91,0l-1.43.82A.59.59,0,0,0,179.38,186.33Zm4.26,2.45,1.43.83a2.1,2.1,0,0,0,1.92,0l1.42-.82c.53-.3.52-.8,0-1.1l-1.43-.83a2.08,2.08,0,0,0-1.91,0l-1.43.82C183.1,188,183.11,188.48,183.64,188.78Zm4.25,2.46,1.44.83a2.11,2.11,0,0,0,1.91,0l1.43-.82a.59.59,0,0,0,0-1.11l-1.43-.82a2.13,2.13,0,0,0-1.92,0l-1.42.83A.58.58,0,0,0,187.89,191.24Zm9.12,1.42-1.43-.83a2.1,2.1,0,0,0-1.92,0l-1.42.82c-.53.3-.52.8,0,1.1l1.43.83a2.08,2.08,0,0,0,1.91,0l1.43-.82A.58.58,0,0,0,197,192.66ZM141.9,165.39l-3.32-1.92a2.13,2.13,0,0,0-1.92,0l-1.42.82a.59.59,0,0,0,0,1.11l3.33,1.91a2.11,2.11,0,0,0,1.91,0l1.42-.82A.59.59,0,0,0,141.9,165.39Zm4.25,2.46-1.43-.83a2.08,2.08,0,0,0-1.91,0l-1.43.82a.58.58,0,0,0,0,1.1l1.43.83a2.1,2.1,0,0,0,1.92,0l1.42-.82C146.69,168.65,146.69,168.15,146.15,167.85Zm4.26,2.46-1.43-.83a2.13,2.13,0,0,0-1.92,0l-1.42.83c-.53.3-.52.8,0,1.1l1.43.83a2.08,2.08,0,0,0,1.91,0l1.43-.82A.58.58,0,0,0,150.41,170.31Zm29.8,17.2-27-15.57a2.13,2.13,0,0,0-1.92,0l-1.42.82a.59.59,0,0,0,0,1.11l27,15.57a2.11,2.11,0,0,0,1.91,0l1.43-.83C180.74,188.31,180.74,187.82,180.21,187.51Zm4.26,2.46-1.44-.83a2.08,2.08,0,0,0-1.91,0l-1.43.82a.58.58,0,0,0,0,1.1l1.43.83a2.1,2.1,0,0,0,1.92,0l1.42-.82A.58.58,0,0,0,184.47,190Zm4.25,2.45-1.43-.82a2.11,2.11,0,0,0-1.91,0l-1.43.83c-.53.3-.52.79,0,1.1l1.43.83a2.13,2.13,0,0,0,1.92,0l1.42-.82C189.26,193.23,189.25,192.73,188.72,192.42Zm4.35,2.51-1.43-.82a2.13,2.13,0,0,0-1.92,0l-1.42.82a.59.59,0,0,0,0,1.11l1.44.83a2.14,2.14,0,0,0,1.91,0l1.42-.82A.59.59,0,0,0,193.07,194.93Z" transform="translate(-22.01 -67.66)"/><path class="cls-5" d="M216.33,183.28,159.94,150.7c-2.19-1.26-4-4.64-4-7.55V98.91c0-2.91,1.77-4.25,4-3l56.39,32.58c2.18,1.26,3.95,4.64,3.95,7.55v44.24C220.28,183.2,218.51,184.54,216.33,183.28Z" transform="translate(-22.01 -67.66)"/><path class="cls-10" d="M216.84,181l-55.79-32.22a6.73,6.73,0,0,1-2.85-5.63V98.7a.71.71,0,0,1,1.06-.61l.12.08,55.84,32.25a6.09,6.09,0,0,1,2.84,5.63V180.4a.76.76,0,0,1-1.13.66Z" transform="translate(-22.01 -67.66)"/><path class="cls-18" d="M215.22,130.42,159.38,98.17l-.12-.08a.71.71,0,0,0-1.06.61v44.45a6.73,6.73,0,0,0,2.85,5.63L216.84,181l.09.06a.76.76,0,0,0,1.13-.66V136.05A6.09,6.09,0,0,0,215.22,130.42Zm2.39,50a.31.31,0,0,1-.31.31.28.28,0,0,1-.15,0l-55.88-32.28a6.24,6.24,0,0,1-2.62-5.24V98.7a.26.26,0,0,1,.26-.26.19.19,0,0,1,.12,0l56,32.33a5.72,5.72,0,0,1,2.62,5.24Z" transform="translate(-22.01 -67.66)"/><path class="cls-11" d="M217.45,127.9,161.06,95.33a2.69,2.69,0,0,0-2.32-.34c-.08,0-1.18.62-1.26.66h0a2.6,2.6,0,0,1,2.46.27l56.39,32.58c2.18,1.26,3.95,4.64,3.95,7.55v44.24c0,1.82-.69,3-1.74,3.36a.62.62,0,0,0,.35-.12l1.29-.73a3.67,3.67,0,0,0,1.22-3.11V135.46C221.4,132.55,219.63,129.16,217.45,127.9Z" transform="translate(-22.01 -67.66)"/><path class="cls-12" d="M217.45,127.9,161.06,95.33a2.69,2.69,0,0,0-2.32-.34c-.08,0-1.18.62-1.26.66h0a2.6,2.6,0,0,1,2.46.27l56.39,32.58Z" transform="translate(-22.01 -67.66)"/><path class="cls-13" d="M216.52,128.4,160.13,95.83a2.65,2.65,0,0,0-2.39-.31,2.92,2.92,0,0,1,1.91.45L216,128.55c2.18,1.26,4,4.64,4,7.55v44.24c0,1.71-.61,2.88-1.57,3.29,1.22-.19,2.05-1.45,2.05-3.44V136C220.47,133.05,218.7,129.67,216.52,128.4Z" transform="translate(-22.01 -67.66)"/><polygon class="cls-19" points="152.05 65.33 161.83 87.95 181.59 67.2 173.88 60.67 163.26 78.58 158.25 66.54 152.05 65.33"/><path class="cls-20" d="M188.19,159.18l-.73-.86.73-.32c.9-.48,1.75-.91,2.56-1.32,5.53-2.78,8.55-4.15,9.25-14l1.38-1.21v1.13c-.75,10.68-4.44,12.54-10,15.35-.8.4-1.64.83-2.53,1.31Z" transform="translate(-22.01 -67.66)"/><path class="cls-20" d="M193.21,129.34a46.89,46.89,0,0,1-5.07-6.26c-3.46,1-7.41.42-11.5-1.77l.22,7.32-1.4-.27-.27-9.48,1.24.73c4.25,2.5,8.31,3.2,11.75,2l.29-.1.42.23.14.17a45.59,45.59,0,0,0,5.17,6.46Z" transform="translate(-22.01 -67.66)"/></g></g></svg>