<svg id="Layer_2" data-name="Layer 2" xmlns="http://www.w3.org/2000/svg" viewBox="0 0 240.643 44.009"><defs><style>.cls-1{fill:#403ba3;}.cls-2{fill:#fff;}.cls-3{fill:#1d1d3f;}</style></defs><title>logo</title><path class="cls-1" d="M70.162,25.049a11.988,11.988,0,0,0,.209-2.2,11.66,11.66,0,0,0-16.9-10.416,19.359,19.359,0,0,0-37.14,3.538h-0.19a9.268,9.268,0,0,0-9.268,9.1A8.4,8.4,0,0,0-.321,33.386V35.6a8.4,8.4,0,0,0,8.4,8.4h61.08a8.4,8.4,0,0,0,8.4-8.4h0V33.386A8.4,8.4,0,0,0,70.162,25.049Z" transform="translate(0.321 0.009)"/><polygon class="cls-2" points="33.447 25.151 33.447 14.346 42.802 19.752 52.16 25.151 42.802 30.553 33.447 35.956 33.447 25.151"/><path class="cls-3" d="M98.035,39.183a14.074,14.074,0,0,1-5.255-2.9,2.2,2.2,0,0,1-.72-1.68,1.887,1.887,0,0,1,.384-1.177,1.123,1.123,0,0,1,.912-0.5,2.325,2.325,0,0,1,1.344.528A16.178,16.178,0,0,0,104.875,36.9a10.775,10.775,0,0,0,6.336-1.584,5.222,5.222,0,0,0,2.207-4.512,3.624,3.624,0,0,0-1.055-2.712,7.653,7.653,0,0,0-2.785-1.656,42.242,42.242,0,0,0-4.656-1.3,45.312,45.312,0,0,1-6.455-1.92,10.03,10.03,0,0,1-4.08-2.879,7.392,7.392,0,0,1-1.56-4.9,8.7,8.7,0,0,1,1.56-5.111,10.093,10.093,0,0,1,4.368-3.456,15.9,15.9,0,0,1,6.407-1.224,18.582,18.582,0,0,1,6.264,1.032A13.209,13.209,0,0,1,116.3,9.641a2.349,2.349,0,0,1,.768,1.68,1.886,1.886,0,0,1-.385,1.176,1.124,1.124,0,0,1-.912.5,2.917,2.917,0,0,1-1.391-.528,16.354,16.354,0,0,0-4.369-2.688,13.651,13.651,0,0,0-4.848-.768,10.138,10.138,0,0,0-6.191,1.656A5.458,5.458,0,0,0,96.763,15.3a4.254,4.254,0,0,0,1.944,3.815,19.6,19.6,0,0,0,5.977,2.232q4.365,1.056,6.863,1.944a10.293,10.293,0,0,1,4.15,2.664,6.681,6.681,0,0,1,1.656,4.752,8.307,8.307,0,0,1-1.559,4.991,10.138,10.138,0,0,1-4.393,3.359,16.472,16.472,0,0,1-6.48,1.2A21.909,21.909,0,0,1,98.035,39.183Z" transform="translate(0.321 0.009)"/><path class="cls-3" d="M135.5,38.583a1.38,1.38,0,0,1-.6,1.224,2.821,2.821,0,0,1-1.8.313l-1.3-.1q-3.839-.287-5.663-2.3t-1.824-6.1V19.576H121.1a1.839,1.839,0,0,1-1.271-.408,1.376,1.376,0,0,1-.456-1.08,1.509,1.509,0,0,1,.456-1.152A1.774,1.774,0,0,1,121.1,16.5h3.216V11.081a1.862,1.862,0,0,1,.528-1.416,2,2,0,0,1,1.439-.5,1.935,1.935,0,0,1,1.393.5,1.865,1.865,0,0,1,.527,1.416V16.5h5.328a1.707,1.707,0,0,1,1.224.432,1.512,1.512,0,0,1,.456,1.152,1.379,1.379,0,0,1-.456,1.08,1.768,1.768,0,0,1-1.224.408H128.2V31.815a5.547,5.547,0,0,0,1.08,3.815,4.621,4.621,0,0,0,3.24,1.32l1.3,0.1Q135.5,37.192,135.5,38.583Z" transform="translate(0.321 0.009)"/><path class="cls-3" d="M152.919,17.656a1.706,1.706,0,0,1-.432,1.224,2.293,2.293,0,0,1-1.488.552l-1.439.144a6.471,6.471,0,0,0-4.775,2.28,7.364,7.364,0,0,0-1.561,4.68V38.2a1.848,1.848,0,0,1-.527,1.439,2,2,0,0,1-1.393.48,2.019,2.019,0,0,1-1.416-.5,1.819,1.819,0,0,1-.552-1.416V17.944a1.783,1.783,0,0,1,.576-1.416,2.04,2.04,0,0,1,1.392-.5,1.769,1.769,0,0,1,1.824,1.872v2.688a7.3,7.3,0,0,1,2.855-3.216,9.674,9.674,0,0,1,4.248-1.3l0.672-.048Q152.919,15.88,152.919,17.656Z" transform="translate(0.321 0.009)"/><path class="cls-3" d="M174.806,34.888a1.6,1.6,0,0,1,.384,1.1,2.774,2.774,0,0,1-1.68,2.208,14.529,14.529,0,0,1-3.647,1.512,14.722,14.722,0,0,1-3.744.5A11.427,11.427,0,0,1,157.551,37q-3.144-3.215-3.144-8.879a13.928,13.928,0,0,1,1.392-6.36,10.389,10.389,0,0,1,3.912-4.3,10.8,10.8,0,0,1,5.735-1.536,9.284,9.284,0,0,1,7.248,2.976,11.585,11.585,0,0,1,2.688,8.063A2.066,2.066,0,0,1,175,28.359a1.6,1.6,0,0,1-1.248.433H158.295q0.432,8.256,7.823,8.255a9.173,9.173,0,0,0,3.216-.5,20.933,20.933,0,0,0,2.88-1.368,4.571,4.571,0,0,1,1.68-.72A1.185,1.185,0,0,1,174.806,34.888ZM160.574,20.872a8.774,8.774,0,0,0-2.184,5.424h13.583a8.321,8.321,0,0,0-1.775-5.448,5.959,5.959,0,0,0-4.7-1.9A6.515,6.515,0,0,0,160.574,20.872Z" transform="translate(0.321 0.009)"/><path class="cls-3" d="M199.429,25.144V38.2a1.93,1.93,0,0,1-.5,1.392,1.8,1.8,0,0,1-1.368.528,1.815,1.815,0,0,1-1.92-1.92V35.9a6.861,6.861,0,0,1-2.783,3.191,8.208,8.208,0,0,1-4.32,1.128,9.457,9.457,0,0,1-4.151-.912,7.4,7.4,0,0,1-3-2.544,6.28,6.28,0,0,1-1.1-3.6,5.845,5.845,0,0,1,1.344-4.1,8.156,8.156,0,0,1,4.415-2.112,43.67,43.67,0,0,1,8.544-.647h1.056V24.712a6.31,6.31,0,0,0-1.176-4.224,4.831,4.831,0,0,0-3.815-1.344,14.105,14.105,0,0,0-6.624,1.776,4.371,4.371,0,0,1-1.823.816,1.228,1.228,0,0,1-.96-0.432,1.6,1.6,0,0,1-.385-1.1,1.811,1.811,0,0,1,.408-1.176,4.78,4.78,0,0,1,1.32-1.032A15.449,15.449,0,0,1,186.4,16.48a16.936,16.936,0,0,1,4.248-.552Q199.429,15.928,199.429,25.144ZM193.789,35.2a6.984,6.984,0,0,0,1.848-5.016V28.792h-0.863a42.928,42.928,0,0,0-6.432.359,6.258,6.258,0,0,0-3.145,1.2,3.152,3.152,0,0,0-.936,2.472,3.973,3.973,0,0,0,1.368,3.1,4.953,4.953,0,0,0,3.432,1.225A6.237,6.237,0,0,0,193.789,35.2Z" transform="translate(0.321 0.009)"/><path class="cls-3" d="M240.321,25.191V38.2a1.866,1.866,0,0,1-.528,1.416,1.932,1.932,0,0,1-1.392.5,2.017,2.017,0,0,1-1.416-.5,1.819,1.819,0,0,1-.552-1.416V25.288a7.474,7.474,0,0,0-1.152-4.656,4.333,4.333,0,0,0-3.6-1.44,5.737,5.737,0,0,0-4.607,1.968,7.935,7.935,0,0,0-1.68,5.327V38.2a1.82,1.82,0,0,1-.553,1.416,2.018,2.018,0,0,1-1.415.5,1.933,1.933,0,0,1-1.393-.5,1.862,1.862,0,0,1-.527-1.416V25.288a7.481,7.481,0,0,0-1.152-4.656,4.393,4.393,0,0,0-3.647-1.44,5.756,5.756,0,0,0-4.584,1.968,7.863,7.863,0,0,0-1.7,5.327V38.2a1.865,1.865,0,0,1-.527,1.416,1.934,1.934,0,0,1-1.393.5,2.019,2.019,0,0,1-1.416-.5,1.819,1.819,0,0,1-.552-1.416V17.944a1.838,1.838,0,0,1,.552-1.392,1.966,1.966,0,0,1,1.416-.528,1.868,1.868,0,0,1,1.344.5,1.8,1.8,0,0,1,.528,1.368v2.3a7.594,7.594,0,0,1,2.928-3.168,8.349,8.349,0,0,1,4.32-1.1q5.471,0,7.151,4.608a7.779,7.779,0,0,1,3.071-3.36,8.913,8.913,0,0,1,4.7-1.248Q240.321,15.928,240.321,25.191Z" transform="translate(0.321 0.009)"/></svg>