<svg id="Capa_1" data-name="Capa 1" xmlns="http://www.w3.org/2000/svg" viewBox="0 0 352.464 259.764"><defs><style>.cls-1{fill:#d6dced;}</style></defs><title>newsletter-envelope</title><path class="cls-1" d="M310.786,0H41.682A41.73,41.73,0,0,0,0,41.682v176.4a41.731,41.731,0,0,0,41.682,41.682h269.1a41.731,41.731,0,0,0,41.682-41.682V41.682A41.731,41.731,0,0,0,310.786,0Zm30.427,218.081a30.461,30.461,0,0,1-30.427,30.427H41.682a30.465,30.465,0,0,1-30.427-30.427V41.682A30.461,30.461,0,0,1,41.682,11.255h269.1a30.461,30.461,0,0,1,30.427,30.427v176.4h0ZM317.921,39.819a5.621,5.621,0,0,1,.008,7.949l-0.008.008-114.8,114.8a38.067,38.067,0,0,1-53.775,0l-114.8-114.8A5.627,5.627,0,1,1,42.384,39.7q0.059,0.057.116,0.116l114.8,114.8a26.806,26.806,0,0,0,37.861,0l114.8-114.8A5.614,5.614,0,0,1,317.9,39.8Z"/></svg>