<svg id="Layer_1" data-name="Layer 1" xmlns="http://www.w3.org/2000/svg" viewBox="0 0 199.47 137.8"><defs><style>.cls-1{fill:#e9eefb;}.cls-2{fill:#4038a6;}.cls-3{font-size:24px;fill:#ff5a75;font-family:MyriadPro-Bold, Myriad Pro;font-weight:700;}</style></defs><title>pdf-report-new</title><circle class="cls-1" cx="60.17" cy="72.32" r="60.17"/><circle class="cls-1" cx="147.11" cy="73.64" r="52.36"/><rect class="cls-1" x="74.15" y="57.26" width="12.08" height="4.63"/><rect class="cls-1" x="74.15" y="65.88" width="23.33" height="21.94"/><rect class="cls-1" x="86.99" y="57.26" width="12.08" height="4.63"/><rect class="cls-1" x="99.83" y="57.26" width="12.09" height="4.63"/><rect class="cls-1" x="112.67" y="57.26" width="12.08" height="4.63"/><polygon class="cls-2" points="117.05 0 117.05 34.45 151.5 34.45 117.05 0"/><path class="cls-2" d="M117.05,44.37a8.62,8.62,0,0,1-8.61-8.61V1.31H56.76a8.63,8.63,0,0,0-8.61,8.61V130.5a8.62,8.62,0,0,0,8.61,8.61h86.13a8.62,8.62,0,0,0,8.61-8.61V44.37ZM82.6,121.88H65.38V96.05H82.6Zm25.84,0H91.21V78.82h17.23Zm25.84,0H117.05V61.6h17.23Z" transform="translate(0 -1.31)"/><text class="cls-3" transform="translate(56.5 34.44)">PDF</text></svg>