<?xml version="1.0"?>
<svg xmlns="http://www.w3.org/2000/svg" xmlns:xlink="http://www.w3.org/1999/xlink" xmlns:svgjs="http://svgjs.com/svgjs" version="1.1" width="512" height="512" x="0" y="0" viewBox="0 0 507.433 507.433" style="enable-background:new 0 0 512 512" xml:space="preserve" class=""><g><g xmlns="http://www.w3.org/2000/svg"><path d="m349.467 282.213-23.011 23.011-20.533-20.534c25.363-30.145 40.669-69.018 40.669-111.404 0-95.551-77.737-173.286-173.287-173.286-95.551 0-173.286 77.735-173.286 173.286s77.736 173.287 173.287 173.287c42.387 0 81.26-15.306 111.404-40.67l20.533 20.534-23.049 23.049 157.947 157.947 67.272-67.272zm-319.448-108.927c0-79.008 64.278-143.286 143.286-143.286s143.287 64.278 143.287 143.286c0 79.009-64.278 143.287-143.287 143.287s-143.286-64.278-143.286-143.287zm319.448 151.353 72.758 72.758-24.847 24.846-72.757-72.757zm69.123 118.817 24.847-24.846 21.551 21.551-24.847 24.847z" fill="#ffb93f" data-original="#000000" style="" class=""/><path d="m260.197 169.829-7.381-29.078-31.997 8.122c-3.878-9.975-10.803-18.433-19.635-24.228l18.67-18.67-21.213-21.213-25.337 25.337-25.313-25.313-21.213 21.213 18.646 18.646c-8.831 5.795-15.757 14.253-19.635 24.228l-31.996-8.122-7.381 29.078 35.924 9.119v24.62l-35.924 9.119 7.381 29.078 31.996-8.122c7.398 19.031 25.9 32.562 47.515 32.562 21.614 0 40.116-13.531 47.515-32.562l31.997 8.122 7.381-29.078-35.924-9.119v-24.62zm-65.924 45.407c0 11.563-9.406 20.969-20.968 20.969s-20.968-9.406-20.968-20.969v-47.957c0-11.562 9.406-20.968 20.968-20.968s20.968 9.406 20.968 20.968z" fill="#ffb93f" data-original="#000000" style="" class=""/></g></g></svg>
