<?xml version="1.0"?>
<svg xmlns="http://www.w3.org/2000/svg" xmlns:xlink="http://www.w3.org/1999/xlink" xmlns:svgjs="http://svgjs.com/svgjs" version="1.1" width="512" height="512" x="0" y="0" viewBox="0 0 64 64" style="enable-background:new 0 0 512 512" xml:space="preserve" class=""><g><path xmlns="http://www.w3.org/2000/svg" d="m.999 51.003h47.001c.553 0 1-.447 1-1v-5.622c.029-.018.059-.035.088-.053l1.694 1.694-.001.001c-.391.391-.391 1.023 0 1.414l6.392 6.392c.779.78 1.804 1.17 2.828 1.17s2.049-.39 2.828-1.17c1.56-1.56 1.56-4.098 0-5.657l-6.392-6.392c-.391-.391-1.023-.391-1.414 0l-.001.001-1.698-1.698c2.709-4.601 2.104-10.628-1.841-14.575-.75-.75-1.588-1.377-2.481-1.896v-9.614-2c0-1.654-1.346-3-3-3h-43.003c-1.654 0-3 1.346-3 3v2 36.004c0 .554.447 1.001 1 1.001zm1-36.004h1v34.004h-1zm59.416 37.416c-.779.779-2.049.779-2.828 0l-5.685-5.685v-.001h.001s0 0 0-.001l2.827-2.827 5.685 5.685c.78.78.78 2.049 0 2.829zm-7.807-9.22-1.412 1.413-1.453-1.453c.253-.215.503-.435.74-.672.238-.238.456-.489.671-.742zm-3.539-2.126c-1.889 1.889-4.399 2.93-7.07 2.93s-5.183-1.041-7.071-2.93c-3.898-3.9-3.898-10.247 0-14.147 1.889-1.888 4.4-2.928 7.071-2.928s5.182 1.04 7.07 2.928c3.899 3.9 3.899 10.247 0 14.147zm-7.07-19.075c-3.205 0-6.219 1.248-8.485 3.514-4.679 4.68-4.679 12.294 0 16.975 2.267 2.267 5.28 3.516 8.485 3.516 1.386 0 2.731-.247 4.001-.695v3.699h-42.001v-34.004h42.003v7.691c-1.27-.449-2.616-.696-4.003-.696zm-40-10.995h1.02c-.552 0-.994.448-.994 1s.452 1 1.005 1c.552 0 1-.448 1-1s-.448-1-1-1h2.989c-.552 0-.994.448-.994 1s.452 1 1.005 1c.552 0 1-.448 1-1s-.448-1-1-1h2.989c-.552 0-.994.448-.994 1s.452 1 1.005 1c.552 0 1-.448 1-1s-.448-1-1-1h35.973c.552 0 1 .449 1 1v1h-36.974-3-3-2.03v-1c0-.552.448-1 1-1z" fill="#ffb93f" data-original="#000000" style=""/><path xmlns="http://www.w3.org/2000/svg" d="m7.999 18.999h17c.553 0 1-.448 1-1s-.447-1-1-1h-17c-.553 0-1 .448-1 1s.447 1 1 1z" fill="#ffb93f" data-original="#000000" style=""/><path xmlns="http://www.w3.org/2000/svg" d="m21.999 21.999c0-.552-.447-1-1-1h-11c-.553 0-1 .448-1 1s.447 1 1 1h11c.553 0 1-.448 1-1z" fill="#ffb93f" data-original="#000000" style=""/><path xmlns="http://www.w3.org/2000/svg" d="m19.999 41.015h-10c-.553 0-1 .447-1 1s.447 1 1 1h10c.553 0 1-.447 1-1s-.447-1-1-1z" fill="#ffb93f" data-original="#000000" style=""/><path xmlns="http://www.w3.org/2000/svg" d="m23.999 21.999c0 .552.447 1 1 1h2c.553 0 1-.448 1-1s-.447-1-1-1h-2c-.553 0-1 .447-1 1z" fill="#ffb93f" data-original="#000000" style=""/><path xmlns="http://www.w3.org/2000/svg" d="m13.999 45.003h-6c-.553 0-1 .447-1 1s.447 1 1 1h6c.553 0 1-.447 1-1s-.447-1-1-1z" fill="#ffb93f" data-original="#000000" style=""/><path xmlns="http://www.w3.org/2000/svg" d="m11.999 24.999c-.553 0-1 .448-1 1s.447 1 1 1h4c.553 0 1-.448 1-1s-.447-1-1-1z" fill="#ffb93f" data-original="#000000" style=""/><path xmlns="http://www.w3.org/2000/svg" d="m29.999 24.999h-10c-.553 0-1 .448-1 1s.447 1 1 1h10c.553 0 1-.448 1-1s-.447-1-1-1z" fill="#ffb93f" data-original="#000000" style=""/><path xmlns="http://www.w3.org/2000/svg" d="m28.999 28.999h-17c-.553 0-1 .448-1 1s.447 1 1 1h17c.553 0 1-.448 1-1s-.447-1-1-1z" fill="#ffb93f" data-original="#000000" style=""/><path xmlns="http://www.w3.org/2000/svg" d="m23.999 33.999c0-.553-.447-1-1-1h-11c-.553 0-1 .447-1 1s.447 1 1 1h11c.553 0 1-.447 1-1z" fill="#ffb93f" data-original="#000000" style=""/><path xmlns="http://www.w3.org/2000/svg" d="m27.999 37.001h-10c-.553 0-1 .447-1 1s.447 1 1 1h10c.553 0 1-.447 1-1s-.447-1-1-1z" fill="#ffb93f" data-original="#000000" style=""/><path xmlns="http://www.w3.org/2000/svg" d="m11.999 37.001c-.553 0-1 .447-1 1s.447 1 1 1h2c.553 0 1-.447 1-1s-.447-1-1-1z" fill="#ffb93f" data-original="#000000" style=""/><path xmlns="http://www.w3.org/2000/svg" d="m36.635 27.629c-3.509 3.51-3.509 9.222 0 12.732 1.699 1.7 3.96 2.637 6.364 2.637s4.664-.937 6.363-2.637c3.509-3.51 3.509-9.222 0-12.732-1.699-1.699-3.959-2.635-6.363-2.635s-4.664.936-6.364 2.635zm11.313 11.318c-1.322 1.322-3.079 2.051-4.949 2.051s-3.628-.729-4.95-2.051c-2.729-2.73-2.729-7.173 0-9.904 1.322-1.321 3.08-2.049 4.95-2.049s3.628.728 4.949 2.049c2.73 2.731 2.73 7.174 0 9.904z" fill="#ffb93f" data-original="#000000" style=""/><path xmlns="http://www.w3.org/2000/svg" d="m42.999 29.999c-1.302 0-2.401.838-2.815 2h-.184v-1c0-.552-.447-1-1-1s-1 .448-1 1v1c0 1.103.896 1.999 1.999 2v.001c-1.103 0-1.999.896-1.999 2v1c0 .553.447 1 1 1s1-.447 1-1v-1c0-.001 0-.001 0-.001h.184c.414 1.162 1.513 2.001 2.815 2.001s2.401-.839 2.815-2.001h.185v.001 1c0 .553.447 1 1 1s1-.447 1-1v-1c0-1.104-.897-2.001-2-2.001v-.001c1.103 0 2-.896 2-2v-1c0-.552-.447-1-1-1s-1 .448-1 1v1h-.185c-.414-1.161-1.513-1.999-2.815-1.999zm0 2c.552 0 1 .449 1 1h-1.999c0-.001 0-.001 0-.002.001-.551.448-.998.999-.998zm0 4.001c-.551 0-.998-.448-.999-.998 0-.001 0-.002 0-.003h1.999c0 .552-.448 1.001-1 1.001z" fill="#ffb93f" data-original="#000000" style=""/></g></svg>
