<svg id="Background_Complete" data-name="Background Complete" xmlns="http://www.w3.org/2000/svg" viewBox="0 0 236.91 345.784"><defs><style>.cls-1{fill:#f9b134;}.cls-1,.cls-2{fill-rule:evenodd;}.cls-11,.cls-2{fill:#ff5a73;}.cls-3,.cls-5{fill:#fff;}.cls-3{stroke:#fff;stroke-miterlimit:10;}.cls-4{fill:#d0d3f8;}.cls-6{fill:#a9aed3;}.cls-7{fill:#e3e6fc;}.cls-8{fill:#aeb2d3;}.cls-9{fill:#263238;}.cls-10{fill:#e0e0e0;}.cls-12{fill:#8094ff;}.cls-13{fill:#5369f9;}.cls-14{fill:#ff6a4d;}.cls-15{fill:#e8505b;}.cls-16{opacity:0.6;}.cls-17{fill:#6079e2;}.cls-18{fill:#ffbe9d;}.cls-19{fill:#eb996e;}.cls-20{fill:#201d71;}.cls-21{fill:#455a64;}.cls-22{fill:#95a6d1;}.cls-23{opacity:0.3;}.cls-24{fill:#a9afd7;}</style></defs><title>summary</title><path class="cls-1" d="M565.306,297.051a20.289,20.289,0,0,1-5.388.132l-2.783,4.151-7.715-2.974,0.722-4.945a20.261,20.261,0,0,1-3.907-3.715l-4.9.967-3.352-7.559,4.006-2.985a20.228,20.228,0,0,1-.131-5.389l-4.151-2.783,2.973-7.715,4.946,0.722a20.258,20.258,0,0,1,3.715-3.906l-0.968-4.9,7.559-3.354,2.985,4.007a20.225,20.225,0,0,1,5.389-.132l2.784-4.152,7.715,2.974-0.723,4.946a20.3,20.3,0,0,1,3.906,3.714l4.9-.967,3.353,7.558-4.006,2.984a20.213,20.213,0,0,1,.132,5.389l4.151,2.783-2.973,7.715L578.6,288.9a20.261,20.261,0,0,1-3.715,3.907l0.967,4.9-7.558,3.353-2.986-4.006h0Zm0.058-11.863a8.87,8.87,0,1,0-11.705-4.511A8.87,8.87,0,0,0,565.363,285.188Z" transform="translate(-388.494 -113.878)"/><path class="cls-2" d="M563.094,333.261a12.507,12.507,0,0,1-3.164,1.015l-0.924,2.939-5.08-.418-0.432-3.05a12.49,12.49,0,0,1-2.957-1.518l-2.731,1.424-3.3-3.888,1.85-2.462a12.47,12.47,0,0,1-1.015-3.165l-2.939-.924,0.417-5.08,3.051-.433a12.488,12.488,0,0,1,1.518-2.956l-1.424-2.731,3.888-3.3,2.462,1.851a12.468,12.468,0,0,1,3.164-1.015l0.925-2.939,5.08,0.418,0.432,3.051a12.515,12.515,0,0,1,2.956,1.518l2.731-1.424,3.3,3.887-1.851,2.462a12.461,12.461,0,0,1,1.015,3.165l2.939,0.925-0.417,5.08-3.051.433a12.49,12.49,0,0,1-1.518,2.956l1.424,2.73-3.887,3.3-2.462-1.85h0Zm-2.028-7.026a5.468,5.468,0,1,0-7.707-.633A5.468,5.468,0,0,0,561.066,326.234Z" transform="translate(-388.494 -113.878)"/><path class="cls-3" d="M586.477,140.077a2.6,2.6,0,0,1,.025.392c0.007,0.288.015,0.647,0.026,1.092,0.014,1,.034,2.367.059,4.087,0.028,3.534.068,8.492,0.115,14.422l-0.225-.225,19.991-.035c0.059-.056-0.491.491-0.258,0.257V158.7q0-.681,0-1.356,0-1.35,0-2.673c0-1.763,0-3.489.007-5.168,0.009-3.354.018-6.521,0.026-9.431l0.225,0.225-14.422-.115-4.087-.059-1.092-.026a2.6,2.6,0,0,1-.392-0.025,1.583,1.583,0,0,1,.342-0.025l1.048-.026,4.036-.059,14.566-.115,0.225,0v0.227c0.008,2.91.017,6.077,0.026,9.431,0,1.679,0,3.4.007,5.168q0,1.323,0,2.673,0,0.675,0,1.356v1.362c0.233-.231-0.316.321-0.262,0.264l-19.991-.035H586.25l0-.225c0.047-5.989.087-11,.115-14.565,0.025-1.7.045-3.054,0.059-4.036,0.011-.427.019-0.773,0.026-1.049A1.589,1.589,0,0,1,586.477,140.077Z" transform="translate(-388.494 -113.878)"/><path class="cls-3" d="M610.639,135.612c0.333,0.274-3.963,6.058-9.594,12.917l-3.377,4.045-0.493.59-0.56-.5c-4.7-4.2-7.918-7.361-7.695-7.62s3.819,2.464,8.659,6.5l-1.052.09,3.31-4.1C605.469,140.678,610.306,135.338,610.639,135.612Z" transform="translate(-388.494 -113.878)"/><path class="cls-3" d="M595.87,119.753a2.8,2.8,0,0,1,.5-0.008l1.464,0.041c0.322,0.015.683,0.015,1.079,0.048l1.291,0.181,1.507,0.217,1.683,0.417a27.266,27.266,0,0,1,8.159,3.557,28.8,28.8,0,0,1,13.226,21.643,29.869,29.869,0,0,1,.08,3.945c-0.047.667-.033,1.345-0.131,2.018l-0.306,2.032a28.941,28.941,0,0,1-2.742,8.029,30.917,30.917,0,0,1-5.244,7.216,30.308,30.308,0,0,1-7.555,5.428,27.453,27.453,0,0,1-9.21,2.827,18.242,18.242,0,0,1-2.456.209,22.145,22.145,0,0,1-2.483.045,29.5,29.5,0,0,1-4.974-.628,29.067,29.067,0,0,1-9.9-4.167l0.3,0.03-10.086,4.048-0.6.24,0.17-.62,2.965-10.782,0.051,0.266a28.939,28.939,0,0,1-5.382-12.321,26.2,26.2,0,0,1-.392-6.312,20.245,20.245,0,0,1,.286-3.032l0.229-1.475c0.09-.485.238-0.955,0.353-1.428A28.844,28.844,0,0,1,579,125.013a27.585,27.585,0,0,1,6.7-3.533l1.508-.54,1.432-.364,1.31-.325c0.42-.081.826-0.124,1.206-0.182,0.763-.1,1.432-0.228,2.02-0.257l1.482-.05,0.905-.02a1.36,1.36,0,0,1,.306.011,1.389,1.389,0,0,1-.306.042l-0.9.071-1.472.1c-0.582.045-1.246,0.192-2,.3a28.684,28.684,0,0,0-22.934,21.275c-0.11.465-.254,0.927-0.34,1.4L567.7,144.4a19.82,19.82,0,0,0-.267,2.977,25.7,25.7,0,0,0,.409,6.188,28.414,28.414,0,0,0,5.308,12.053l0.091,0.12-0.04.146-2.943,10.788-0.427-.38,10.081-4.059,0.158-.064,0.143,0.094a28.474,28.474,0,0,0,9.68,4.069,28.889,28.889,0,0,0,4.862.615,21.567,21.567,0,0,0,2.428-.044,17.728,17.728,0,0,0,2.4-.2,26.866,26.866,0,0,0,9.007-2.754,29.749,29.749,0,0,0,7.4-5.3,30.388,30.388,0,0,0,5.151-7.051,28.438,28.438,0,0,0,2.712-7.856l0.308-1.991c0.1-.659.087-1.325,0.136-1.979a28.054,28.054,0,0,0-4.692-17.088,29.106,29.106,0,0,0-8.253-8.168,27.441,27.441,0,0,0-8.027-3.619l-1.662-.443-1.491-.245L598.893,120c-0.392-.044-0.751-0.054-1.071-0.079l-1.456-.106A2.841,2.841,0,0,1,595.87,119.753Z" transform="translate(-388.494 -113.878)"/><path class="cls-4" d="M531.553,459.662l-117.483-.07A25.59,25.59,0,0,1,388.494,434l0.058-294.532a25.592,25.592,0,0,1,25.606-25.587l117.483,0.069a25.591,25.591,0,0,1,25.576,25.6l-0.058,294.532A25.591,25.591,0,0,1,531.553,459.662Z" transform="translate(-388.494 -113.878)"/><path class="cls-5" d="M531.516,124.365l-22.778-.013a5.658,5.658,0,0,0-5.532,5.779l0,4.132a5.657,5.657,0,0,1-5.531,5.779l-44.4-.026a5.664,5.664,0,0,1-5.53-5.785V130.1a5.664,5.664,0,0,0-5.53-5.785l-8.011-.005-19.936-.011a17.923,17.923,0,0,0-17.933,17.92L396.278,429.7a17.923,17.923,0,0,0,17.912,17.927L531.439,447.7a17.923,17.923,0,0,0,17.933-17.919l0.056-287.485A17.923,17.923,0,0,0,531.516,124.365Z" transform="translate(-388.494 -113.878)"/><ellipse class="cls-6" cx="528.365" cy="153.448" rx="6.617" ry="0.14" transform="translate(-389.744 -109.505) rotate(-0.474)"/><ellipse class="cls-6" cx="528.393" cy="156.834" rx="6.617" ry="0.14" transform="translate(-389.771 -109.508) rotate(-0.473)"/><ellipse class="cls-6" cx="528.421" cy="160.22" rx="6.617" ry="0.14" transform="translate(-389.8 -109.504) rotate(-0.474)"/><path class="cls-6" d="M414.623,164.03a2.125,2.125,0,0,1,.275-0.018l0.765-.025,2.825-.067-0.078.079c-0.01-.626-0.021-1.311-0.033-2.049,0-.381-0.033-0.74,0-1.18a1.086,1.086,0,0,1,.948-0.871c0.455-.009.856-0.03,1.35-0.007a1.1,1.1,0,0,1,.927,1.091c0.011,0.955.022,1.953,0.034,2.988l-0.131-.129,3.564-.036-0.136.138c-0.013-1.435-.026-2.92-0.039-4.441q0-.569-0.01-1.131a1.152,1.152,0,0,0-.5-0.842l-1.558-1.536-1.5-1.483-0.728-.72a1.689,1.689,0,0,0-.737-0.55,0.958,0.958,0,0,0-.818.156c-0.216.183-.446,0.441-0.663,0.652l-1.279,1.29c-0.8.836-1.642,1.6-2.252,2.321a2.525,2.525,0,0,0-.179,1.33q0,0.663,0,1.256-0.007,1.155-.012,2.023c-0.006.517-.011,0.944-0.015,1.294a4.549,4.549,0,0,1-.017.466,3.314,3.314,0,0,1-.024-0.429c-0.01-.344-0.022-0.765-0.036-1.274q-0.02-.874-0.046-2.04-0.011-.6-0.024-1.281-0.005-.342-0.011-0.7a1.477,1.477,0,0,1,.2-0.746c0.659-.808,1.446-1.523,2.257-2.383l1.269-1.3c0.229-.224.416-0.448,0.688-0.682a1.212,1.212,0,0,1,1.034-.2,1.919,1.919,0,0,1,.856.612l0.732,0.716,1.508,1.478,1.561,1.533a2.962,2.962,0,0,1,.4.431,1.166,1.166,0,0,1,.187.6q0.005,0.565.01,1.137c0.012,1.521.023,3.006,0.034,4.441v0.137h-0.137l-3.564.023h-0.13v-0.13c-0.005-1.035-.011-2.033-0.016-2.989a0.86,0.86,0,0,0-.72-0.865c-0.41-.022-0.894-0.008-1.293,0a0.874,0.874,0,0,0-.769.693c-0.034.358-.008,0.776-0.015,1.139,0,0.738,0,1.423,0,2.049v0.08H418.49l-2.873-.02-0.748-.013A1.38,1.38,0,0,1,414.623,164.03Z" transform="translate(-388.494 -113.878)"/><rect class="cls-7" x="20.811" y="68.046" width="124.982" height="22.734" rx="9.586" ry="9.586"/><path class="cls-8" d="M524.7,204.658s0.244-.028.717-0.06a10.3,10.3,0,0,0,2.062-.4,9.875,9.875,0,0,0,3.007-1.582,9.391,9.391,0,0,0,2.85-3.614,9.142,9.142,0,0,0,.752-2.649,24.318,24.318,0,0,0,.086-3.062,20.592,20.592,0,0,0-.148-3.331,9.46,9.46,0,0,0-7.548-7.715,26.2,26.2,0,0,0-4.345-.165l-4.618.008-98.619.068a9.371,9.371,0,0,0-9.322,8.576c-0.079,1.132-.022,2.329-0.04,3.484a10.905,10.905,0,0,0,.354,3.382,9.43,9.43,0,0,0,3.872,5.3,9.017,9.017,0,0,0,3.027,1.291,13.786,13.786,0,0,0,3.289.247l6.62,0,12.816,0.008,44.337,0.05,29.89,0.074,8.126,0.044,2.113,0.023c0.476,0.008.72,0.024,0.72,0.024s-0.244.016-.72,0.024l-2.113.023-8.126.044-29.89.074-44.337.05-12.816.008-6.62,0a14.216,14.216,0,0,1-3.39-.256,9.468,9.468,0,0,1-3.176-1.352,9.887,9.887,0,0,1-4.065-5.553,11.38,11.38,0,0,1-.373-3.506c0.018-1.172-.041-2.314.04-3.522a9.833,9.833,0,0,1,9.783-9l98.619,0.068,4.618,0.008a26.332,26.332,0,0,1,4.4.187,9.716,9.716,0,0,1,7.73,7.966,20.687,20.687,0,0,1,.131,3.37,24.321,24.321,0,0,1-.108,3.089,9.305,9.305,0,0,1-.787,2.7,9.5,9.5,0,0,1-2.931,3.649,9.839,9.839,0,0,1-3.064,1.561,9.669,9.669,0,0,1-2.086.359C524.944,204.662,524.7,204.658,524.7,204.658Z" transform="translate(-388.494 -113.878)"/><path class="cls-9" d="M526.63,192.749c-0.045,0-.04-0.367-0.217-0.983a4.11,4.11,0,0,0-1.51-2.159,3.918,3.918,0,1,0,0,6.285,4.111,4.111,0,0,0,1.509-2.159c0.176-.617.172-0.985,0.217-0.983a0.591,0.591,0,0,1,.033.265,3.078,3.078,0,0,1-.074.762,4.1,4.1,0,0,1-1.486,2.376,4.268,4.268,0,0,1-4.067.665,4.317,4.317,0,0,1,0-8.138,4.267,4.267,0,0,1,4.067.665,4.1,4.1,0,0,1,1.486,2.377,3.075,3.075,0,0,1,.075.762A0.59,0.59,0,0,1,526.63,192.749Z" transform="translate(-388.494 -113.878)"/><ellipse class="cls-9" cx="527.053" cy="197.853" rx="0.233" ry="2.718" transform="translate(-382.834 296.294) rotate(-42.733)"/><path class="cls-10" d="M426.178,191.017h-2.229v-0.58h5.13v0.58h-2.23v5.764h-0.671v-5.764Z" transform="translate(-388.494 -113.878)"/><path class="cls-10" d="M433.664,194.6h-3.988a1.765,1.765,0,0,0,1.876,1.659,1.879,1.879,0,0,0,1.459-.625l0.363,0.417a2.52,2.52,0,0,1-4.341-1.649,2.3,2.3,0,0,1,2.329-2.42,2.272,2.272,0,0,1,2.311,2.42C433.673,194.452,433.664,194.524,433.664,194.6Zm-3.988-.481h3.381A1.694,1.694,0,0,0,429.676,194.117Z" transform="translate(-388.494 -113.878)"/><path class="cls-10" d="M437.887,196.781l-1.513-1.994-1.523,1.994h-0.725l1.885-2.447-1.794-2.32h0.725l1.432,1.867,1.432-1.867h0.707l-1.795,2.32,1.9,2.447h-0.734Z" transform="translate(-388.494 -113.878)"/><path class="cls-10" d="M442.2,196.491a1.532,1.532,0,0,1-1.006.335,1.263,1.263,0,0,1-1.4-1.387v-2.882h-0.852v-0.544H439.8v-1.042h0.643v1.042h1.45v0.544h-1.45V195.4a0.763,0.763,0,0,0,.825.87,1.064,1.064,0,0,0,.707-0.245Z" transform="translate(-388.494 -113.878)"/><rect class="cls-11" x="26.082" y="109.487" width="27.357" height="27.357"/><ellipse class="cls-10" cx="85.637" cy="112.43" rx="20.43" ry="0.233"/><ellipse class="cls-10" cx="101.927" cy="120.816" rx="36.72" ry="0.233"/><ellipse class="cls-9" cx="101.495" cy="126.805" rx="36.288" ry="0.233"/><ellipse class="cls-10" cx="86.632" cy="132.517" rx="21.426" ry="0.233"/><rect class="cls-12" x="26.082" y="155.064" width="27.357" height="27.357"/><ellipse class="cls-10" cx="85.637" cy="158.007" rx="20.43" ry="0.233"/><ellipse class="cls-10" cx="101.927" cy="166.393" rx="36.72" ry="0.233"/><ellipse class="cls-10" cx="101.495" cy="172.382" rx="36.288" ry="0.233"/><ellipse class="cls-10" cx="86.632" cy="178.095" rx="21.426" ry="0.233"/><rect class="cls-13" x="26.082" y="200.642" width="27.357" height="27.357"/><ellipse class="cls-10" cx="85.637" cy="203.585" rx="20.43" ry="0.233"/><ellipse class="cls-10" cx="101.927" cy="211.971" rx="36.72" ry="0.233"/><ellipse class="cls-10" cx="101.495" cy="217.96" rx="36.288" ry="0.233"/><ellipse class="cls-10" cx="86.632" cy="223.673" rx="21.426" ry="0.233"/><rect class="cls-14" x="26.082" y="246.219" width="27.357" height="27.357"/><ellipse class="cls-10" cx="85.637" cy="249.163" rx="20.43" ry="0.233"/><ellipse class="cls-10" cx="101.927" cy="257.548" rx="36.72" ry="0.233"/><ellipse class="cls-10" cx="101.495" cy="263.537" rx="36.288" ry="0.233"/><ellipse class="cls-10" cx="86.632" cy="269.25" rx="21.426" ry="0.233"/><rect class="cls-10" x="26.082" y="291.797" width="27.357" height="27.357"/><ellipse class="cls-10" cx="85.637" cy="294.74" rx="20.43" ry="0.233"/><ellipse class="cls-10" cx="101.927" cy="303.126" rx="36.72" ry="0.233"/><ellipse class="cls-10" cx="101.495" cy="309.115" rx="36.288" ry="0.233"/><ellipse class="cls-10" cx="86.632" cy="314.828" rx="21.426" ry="0.233"/><polygon class="cls-15" points="178 325.083 183.13 344.052 166.457 345.574 162.952 327.515 178 325.083"/><path class="cls-9" d="M554.466,457.906a11.747,11.747,0,0,0,2.442-.082c1.5-.121,3.572-0.35,5.85-0.643l5.828-.782a13.732,13.732,0,0,0,2.4-.416,11.879,11.879,0,0,0-2.441.09c-1.5.124-3.571,0.355-5.85,0.648l-5.827.777A13.905,13.905,0,0,0,554.466,457.906Z" transform="translate(-388.494 -113.878)"/><g class="cls-16"><polyline class="cls-5" points="183.13 344.052 166.457 345.574 166.187 344.183 182.648 342.091 183.113 343.863"/></g><ellipse class="cls-9" cx="561.565" cy="449.865" rx="0.196" ry="7.436" transform="translate(-479.665 33.219) rotate(-13.814)"/><path class="cls-11" d="M555.388,457.783a8.01,8.01,0,0,1-.038-3.526,7.019,7.019,0,0,1,1.825-3.3,6.826,6.826,0,0,1,4.15-1.906,7.1,7.1,0,0,1,4.465,1.015,7.732,7.732,0,0,1,2.6,2.758,9.885,9.885,0,0,1,1.053,3.383,0.625,0.625,0,0,0,.024-0.252,5.1,5.1,0,0,0-.039-0.722,7.584,7.584,0,0,0-.794-2.54,7.779,7.779,0,0,0-2.647-2.932,7.342,7.342,0,0,0-4.7-1.1,6.879,6.879,0,0,0-6.206,5.537,6.58,6.58,0,0,0-.006,2.663,4.47,4.47,0,0,0,.205.695A0.626,0.626,0,0,0,555.388,457.783Z" transform="translate(-388.494 -113.878)"/><path class="cls-15" d="M497.648,433.871l1.116,16.853s-16.774,5.566-16.871,8.7l32.773,0.237-0.662-26.33Z" transform="translate(-388.494 -113.878)"/><g class="cls-16"><path class="cls-11" d="M508.85,449a1.338,1.338,0,0,1,.971,1.5,1.287,1.287,0,0,1-1.477.975,1.411,1.411,0,0,1-1.02-1.592,1.334,1.334,0,0,1,1.649-.845" transform="translate(-388.494 -113.878)"/></g><g class="cls-16"><path class="cls-5" d="M514.667,459.662l-0.067-2.654-31.653.874a2.265,2.265,0,0,0-1.22,1.78h32.94Z" transform="translate(-388.494 -113.878)"/></g><path class="cls-9" d="M498.229,450.573c0.01,0.16.812,0.208,1.614,0.7,0.816,0.47,1.242,1.15,1.387,1.082A2.342,2.342,0,0,0,498.229,450.573Z" transform="translate(-388.494 -113.878)"/><path class="cls-9" d="M494.836,452.1c-0.032.156,0.669,0.407,1.233,1.067,0.583,0.643.742,1.371,0.9,1.359A2.067,2.067,0,0,0,494.836,452.1Z" transform="translate(-388.494 -113.878)"/><path class="cls-9" d="M493.009,456.269a2.066,2.066,0,0,0-1.352-2.694A11.905,11.905,0,0,1,493.009,456.269Z" transform="translate(-388.494 -113.878)"/><path class="cls-9" d="M498.4,446.7a13.018,13.018,0,0,1,3.4.093A2.5,2.5,0,0,0,498.4,446.7Z" transform="translate(-388.494 -113.878)"/><path class="cls-9" d="M498.238,443.3a3.075,3.075,0,0,0,1.64-.058,7.379,7.379,0,0,0,1.7-.579,7.725,7.725,0,0,0,.927-0.528,2.02,2.02,0,0,0,.484-0.4,0.7,0.7,0,0,0,.048-0.853,0.879,0.879,0,0,0-.712-0.344,2.143,2.143,0,0,0-.613.1,5.888,5.888,0,0,0-1.009.381,5.786,5.786,0,0,0-1.483,1.038,2.738,2.738,0,0,0-.924,1.361c0.074,0.05.429-.461,1.185-1.066a6.543,6.543,0,0,1,1.438-.869,6.1,6.1,0,0,1,.933-0.319,0.691,0.691,0,0,1,.733.039c0.034,0.058.039,0.081-.03,0.185a1.638,1.638,0,0,1-.356.293,8.613,8.613,0,0,1-.852.522,9.088,9.088,0,0,1-1.567.656A11.327,11.327,0,0,0,498.238,443.3Z" transform="translate(-388.494 -113.878)"/><path class="cls-9" d="M498.453,443.523a2.614,2.614,0,0,0,.385-1.6,5.311,5.311,0,0,0-.726-2.773,1.356,1.356,0,0,0-1.071-.8,0.767,0.767,0,0,0-.671.478,2.218,2.218,0,0,0-.15.607,3.646,3.646,0,0,0,.032,1.1,3.774,3.774,0,0,0,.752,1.673,2.116,2.116,0,0,0,1.351.946,13.386,13.386,0,0,1-1.03-1.175,3.778,3.778,0,0,1-.566-1.526,3.381,3.381,0,0,1,0-.949,0.591,0.591,0,0,1,.294-0.6,0.939,0.939,0,0,1,.59.52,5.455,5.455,0,0,1,.433.877,5.905,5.905,0,0,1,.367,1.627C498.518,442.9,498.365,443.5,498.453,443.523Z" transform="translate(-388.494 -113.878)"/><polygon class="cls-12" points="109.154 173.581 159.089 173.205 183.219 331.69 162.495 334.32 135.935 204.008 127.986 334.783 127.965 335.172 105.553 334.781 109.154 173.581"/><path class="cls-17" d="M520.36,300.3a10.194,10.194,0,0,1-1.123.033l-3.054,0-10.658-.086,0.235-.23c0.009,3.134.019,6.635,0.029,10.351l-0.084-.191,1.881,1.727L513.114,317l-0.335,0,7.448-6.516-0.068.151c0.044-3.088.08-5.63,0.107-7.479,0.021-.854.038-1.547,0.051-2.088a5.854,5.854,0,0,1,.044-0.762,3.828,3.828,0,0,1,.044.684c0.013,0.53.03,1.208,0.051,2.044,0.026,1.879.063,4.463,0.107,7.6v0.089l-0.07.062-7.383,6.588-0.168.15-0.167-.153-5.541-5.077-1.88-1.728-0.084-.077v-0.114c0.01-3.716.02-7.217,0.029-10.351v-0.237l0.234,0.007,10.8,0.32,3,0.118A7.232,7.232,0,0,1,520.36,300.3Z" transform="translate(-388.494 -113.878)"/><path class="cls-17" d="M543.861,299.616a8.582,8.582,0,0,1-1,.153l-2.722.335-9.556,1.08,0.2-.252,1.289,10.27-0.1-.171,2.154,1.717,5.3,4.239-0.354.04,5.873-7.286-0.043.153-0.8-7.427-0.2-2.085a5.755,5.755,0,0,1-.048-0.766,3.745,3.745,0,0,1,.128.675l0.3,2.027,1.029,7.526,0.012,0.084-0.055.07-5.8,7.343-0.156.2-0.2-.157-5.311-4.226-2.153-1.719-0.083-.066-0.013-.1-1.224-10.278-0.028-.232,0.229-.021,9.721-.867,2.684-.212A5.89,5.89,0,0,1,543.861,299.616Z" transform="translate(-388.494 -113.878)"/><path class="cls-17" d="M513.31,323.671a11.239,11.239,0,0,1,2.1-1.4c1.335-.8,3.215-1.842,5.339-2.9s4.09-1.933,5.53-2.52a11.237,11.237,0,0,1,2.38-.831,13.118,13.118,0,0,1-2.231,1.167c-1.4.671-3.331,1.594-5.447,2.649s-4.015,2.044-5.392,2.758A13.132,13.132,0,0,1,513.31,323.671Z" transform="translate(-388.494 -113.878)"/><path class="cls-17" d="M513.953,327.519a20.231,20.231,0,0,0,8.562-8.434A13.31,13.31,0,0,1,513.953,327.519Z" transform="translate(-388.494 -113.878)"/><path class="cls-17" d="M499.856,373.314c0.091-.036.459,1.137,1.556,2.735a13.012,13.012,0,0,0,13.1,5.529c1.91-.328,3.007-0.883,3.045-0.793a2.44,2.44,0,0,1-.746.427,10.969,10.969,0,0,1-2.229.727,12.652,12.652,0,0,1-13.481-5.688,10.974,10.974,0,0,1-1.034-2.1A2.436,2.436,0,0,1,499.856,373.314Z" transform="translate(-388.494 -113.878)"/><path class="cls-17" d="M503.139,371.963a15.593,15.593,0,0,1,2,.51,24.194,24.194,0,0,0,4.891.664c3.872,0.144,7-.448,7.027-0.275a7.08,7.08,0,0,1-2.025.491,25.791,25.791,0,0,1-5.023.3,18.475,18.475,0,0,1-4.971-.83A5.667,5.667,0,0,1,503.139,371.963Z" transform="translate(-388.494 -113.878)"/><path class="cls-17" d="M540.266,372.906a26.389,26.389,0,0,0,14.587,5.432,7.337,7.337,0,0,1-2.345.077A19.974,19.974,0,0,1,541.99,374.5,7.337,7.337,0,0,1,540.266,372.906Z" transform="translate(-388.494 -113.878)"/><path class="cls-17" d="M544.643,372.713c0.023-.154,2.052.1,4.54-0.111,2.49-.189,4.454-0.758,4.5-0.609A13.731,13.731,0,0,1,544.643,372.713Z" transform="translate(-388.494 -113.878)"/><path class="cls-17" d="M524.726,318.979a47.855,47.855,0,0,0,16.4,2.625,9,9,0,0,1-2.45.287,30.828,30.828,0,0,1-11.709-1.875A9.006,9.006,0,0,1,524.726,318.979Z" transform="translate(-388.494 -113.878)"/><ellipse class="cls-17" cx="526.078" cy="314.618" rx="1" ry="0.26" transform="translate(-183.689 722.78) rotate(-89.272)"/><ellipse class="cls-17" cx="526.084" cy="310.618" rx="0.26" ry="1" transform="translate(-391.39 -108.92) rotate(-0.539)"/><ellipse class="cls-17" cx="526.002" cy="306.618" rx="0.26" ry="1" transform="translate(-397.874 -97.187) rotate(-1.802)"/><ellipse class="cls-17" cx="525.832" cy="302.621" rx="0.26" ry="1" transform="translate(-403.943 -85.289) rotate(-3.069)"/><ellipse class="cls-17" cx="525.574" cy="298.63" rx="0.26" ry="1" transform="translate(-409.566 -73.29) rotate(-4.336)"/><ellipse class="cls-17" cx="525.228" cy="294.645" rx="0.26" ry="1" transform="translate(-414.744 -61.208) rotate(-5.601)"/><ellipse class="cls-17" cx="553.488" cy="445.462" rx="0.26" ry="1" transform="translate(-465.12 3.345) rotate(-11.312)"/><ellipse class="cls-17" cx="552.704" cy="441.54" rx="0.26" ry="1" transform="translate(-464.366 3.115) rotate(-11.312)"/><ellipse class="cls-17" cx="551.919" cy="437.617" rx="0.26" ry="1" transform="translate(-463.612 2.885) rotate(-11.312)"/><ellipse class="cls-17" cx="551.134" cy="433.695" rx="0.26" ry="1" transform="translate(-462.858 2.655) rotate(-11.312)"/><ellipse class="cls-17" cx="550.35" cy="429.773" rx="0.26" ry="1" transform="translate(-462.119 2.455) rotate(-11.315)"/><ellipse class="cls-17" cx="549.565" cy="425.85" rx="0.26" ry="1" transform="translate(-461.35 2.195) rotate(-11.312)"/><ellipse class="cls-17" cx="548.78" cy="421.928" rx="0.26" ry="1" transform="translate(-460.593 1.959) rotate(-11.312)"/><ellipse class="cls-17" cx="547.996" cy="418.006" rx="0.26" ry="1" transform="translate(-459.855 1.762) rotate(-11.315)"/><ellipse class="cls-17" cx="547.211" cy="414.084" rx="0.26" ry="1" transform="translate(-459.086 1.501) rotate(-11.312)"/><ellipse class="cls-17" cx="546.427" cy="410.161" rx="0.26" ry="1" transform="translate(-458.333 1.274) rotate(-11.312)"/><ellipse class="cls-17" cx="545.642" cy="406.239" rx="0.26" ry="1" transform="translate(-457.578 1.042) rotate(-11.312)"/><ellipse class="cls-17" cx="544.857" cy="402.317" rx="0.26" ry="1" transform="translate(-456.825 0.814) rotate(-11.312)"/><ellipse class="cls-17" cx="544.073" cy="398.394" rx="0.26" ry="1" transform="translate(-456.085 0.614) rotate(-11.315)"/><ellipse class="cls-17" cx="543.288" cy="394.472" rx="0.26" ry="1" transform="translate(-455.317 0.354) rotate(-11.312)"/><ellipse class="cls-17" cx="542.503" cy="390.55" rx="0.26" ry="1" transform="translate(-454.573 0.148) rotate(-11.314)"/><ellipse class="cls-17" cx="541.719" cy="386.627" rx="0.26" ry="1" transform="translate(-453.806 -0.112) rotate(-11.312)"/><ellipse class="cls-17" cx="540.934" cy="382.705" rx="0.26" ry="1" transform="translate(-453.054 -0.336) rotate(-11.312)"/><ellipse class="cls-17" cx="540.149" cy="378.783" rx="0.26" ry="1" transform="translate(-452.313 -0.537) rotate(-11.315)"/><ellipse class="cls-17" cx="539.365" cy="374.861" rx="0.26" ry="1" transform="translate(-451.546 -0.797) rotate(-11.312)"/><ellipse class="cls-17" cx="538.58" cy="370.938" rx="0.26" ry="1" transform="translate(-450.788 -1.036) rotate(-11.311)"/><ellipse class="cls-17" cx="537.795" cy="367.016" rx="0.26" ry="1" transform="translate(-450.035 -1.263) rotate(-11.312)"/><ellipse class="cls-17" cx="537.011" cy="363.094" rx="0.26" ry="1" transform="translate(-449.285 -1.484) rotate(-11.313)"/><ellipse class="cls-17" cx="536.226" cy="359.171" rx="0.26" ry="1" transform="translate(-448.528 -1.721) rotate(-11.312)"/><ellipse class="cls-17" cx="535.442" cy="355.249" rx="0.26" ry="1" transform="translate(-447.773 -1.953) rotate(-11.312)"/><ellipse class="cls-17" cx="534.657" cy="351.327" rx="0.26" ry="1" transform="translate(-447.033 -2.148) rotate(-11.315)"/><ellipse class="cls-17" cx="533.872" cy="347.405" rx="0.26" ry="1" transform="translate(-446.267 -2.407) rotate(-11.312)"/><ellipse class="cls-17" cx="533.088" cy="343.482" rx="0.26" ry="1" transform="translate(-445.513 -2.638) rotate(-11.312)"/><ellipse class="cls-17" cx="532.303" cy="339.56" rx="0.26" ry="1" transform="translate(-444.77 -2.839) rotate(-11.315)"/><ellipse class="cls-17" cx="531.518" cy="335.638" rx="0.26" ry="1" transform="translate(-444.002 -3.104) rotate(-11.312)"/><ellipse class="cls-17" cx="530.734" cy="331.715" rx="0.26" ry="1" transform="translate(-443.248 -3.334) rotate(-11.312)"/><ellipse class="cls-17" cx="529.949" cy="327.793" rx="0.26" ry="1" transform="translate(-442.494 -3.564) rotate(-11.312)"/><ellipse class="cls-17" cx="529.164" cy="323.871" rx="0.26" ry="1" transform="translate(-441.74 -3.794) rotate(-11.312)"/><ellipse class="cls-17" cx="528.431" cy="320.206" rx="0.26" ry="0.737" transform="translate(-441.035 -4.01) rotate(-11.311)"/><path class="cls-18" d="M459.715,214.636s-5.843-8.76-6-8.836h0s-5.274-8.882-7.028-8.884-1.121,1.8.69,4.982a12.671,12.671,0,0,1,1.748,4.531l-4.332,2.616s-2.893-1.12-3.014,1.577a18.732,18.732,0,0,0,.5,3.663c0.176,0.96.61,1.984,1.517,1.623a1.137,1.137,0,0,0,.776-1.084c0.056-1.6-.243-2.181-0.038-2.182,0.26,0,3.117,8.37,3.117,8.37Z" transform="translate(-388.494 -113.878)"/><path class="cls-18" d="M447.918,207.76a8.466,8.466,0,0,0-1.39-.828,2.831,2.831,0,0,0-1.578-.245,1.413,1.413,0,0,0-.879.467,1.436,1.436,0,0,0-.166,1.33,4.216,4.216,0,0,0,.711,1.193" transform="translate(-388.494 -113.878)"/><path class="cls-18" d="M449.894,205.992a8.049,8.049,0,0,0-1.317-.781,2.7,2.7,0,0,0-1.494-.231,1.2,1.2,0,0,0-.989,1.692,11.227,11.227,0,0,0,1.346,1.733" transform="translate(-388.494 -113.878)"/><path class="cls-18" d="M457.679,209.692l8.443,18.057-9.307,9.512-4.85-13.457s-2.6.518-3.659-1.206c-1.183-1.924-2.736-7.486-2.736-7.486Z" transform="translate(-388.494 -113.878)"/><path class="cls-19" d="M451.647,209.193a19.646,19.646,0,0,1-1.393-2.208c-0.816-1.131-1.9-1.683-1.809-1.833a3.341,3.341,0,0,1,2.229,1.525A4.294,4.294,0,0,1,451.647,209.193Z" transform="translate(-388.494 -113.878)"/><path class="cls-19" d="M442.28,209.269a1.035,1.035,0,0,1,.732-0.517,2.718,2.718,0,0,1,2.166.188,3.666,3.666,0,0,1,1.43,1.608,1.438,1.438,0,0,1,.264.837,1.679,1.679,0,0,1-.578-0.644,4.576,4.576,0,0,0-1.367-1.344,2.879,2.879,0,0,0-1.823-.288A3.413,3.413,0,0,1,442.28,209.269Z" transform="translate(-388.494 -113.878)"/><path class="cls-19" d="M445.424,206.722a2.577,2.577,0,0,1,2.306.8,3.025,3.025,0,0,1,1.215,2.118c-0.145.07-.62-0.9-1.557-1.726A16.363,16.363,0,0,0,445.424,206.722Z" transform="translate(-388.494 -113.878)"/><path class="cls-19" d="M443.348,210.622c0.146,0.024.173,0.568,0.517,1.095,0.325,0.539.8,0.8,0.761,0.942A1.42,1.42,0,0,1,443.348,210.622Z" transform="translate(-388.494 -113.878)"/><path class="cls-18" d="M459.7,214.285s0.294-5.388-1.008-6.608-5.034.047-5.034,0.047" transform="translate(-388.494 -113.878)"/><ellipse class="cls-19" cx="455.242" cy="208.092" rx="0.26" ry="3.62" transform="translate(-424.247 191.532) rotate(-35.776)"/><path class="cls-18" d="M544.1,210.063c-0.13-.721-0.3-1.564-0.556-2.547a7.638,7.638,0,0,0-1.067-2.364,11.685,11.685,0,0,0-2.066-2.487,1,1,0,0,1,.44-1.845c0.9,0,3.15,1.583,4.693,4.394s2.45-2.153,2.814-3.956,1.748-7.329,2.391-7.656c0.942-.48,1.631.441,1.226,2.233-0.41,1.814-1.239,7.252-.277,7.4s2.67-9.06,2.67-9.06,0.05-2.027,1.167-1.9c2.014,0.237-.538,9.886-0.8,10.8-0.184.634,0.854,0.83,1.016,0.138,0.167-.712,1.5-9.22,3.558-9,1.575,0.17-2.025,7.957-1.322,9.876s2.13-6.182,3.628-5.958c0.558,0.083.962,0.223-.529,4.757-0.724,2.2-3.531,12.506-3.531,12.506l1.611,8.447-12.828,3.248Z" transform="translate(-388.494 -113.878)"/><path class="cls-18" d="M527.873,164.3L528,206.351l-18.04.861-0.522-10.228s-6.407,1.272-8.061-4.679c-1.056-3.8-.792-33.179-0.792-33.179Z" transform="translate(-388.494 -113.878)"/><path class="cls-20" d="M498.213,162.087c2.841,0.814,3.459,5.457,3.459,5.457l4.457,9.844c2.271-1.778,5.319-1.676,5.9,2.314,0.417,2.883-3.168,3.466-3.168,3.466,2.087,3.551,3.5,6.424,6.541,9.8,3.289,3.656,5.131,4.024,8.7,4.084h3.933s1.925-6.249,5.49-21.876c3.955-17.337-16.546-15.1-20.347-19.529C506.981,148.442,489.256,159.523,498.213,162.087Z" transform="translate(-388.494 -113.878)"/><path class="cls-20" d="M533.143,176.813c3.323-2.232,3.623-8.478,1.684-12.223a12.035,12.035,0,0,0-10.236-6.365,4.872,4.872,0,0,1-1.672-.187,4.633,4.633,0,0,1-1.8-1.7c-2.97-3.862-5.888-7.655-11.424-7.655a6.3,6.3,0,0,0-3.48.863,5.467,5.467,0,0,0-2.09,2.767,11.831,11.831,0,0,0-3.238-1.165,4,4,0,0,0-3.248.792,2.446,2.446,0,0,0-.51,3.112,3.935,3.935,0,0,0-3.928,3.273c-0.294,1.846,2.352,3.144,2.627,3.287,0,0-1.452,3.04,2.01,4.862,1.394,0.734,3.207-.15,3.413-0.257" transform="translate(-388.494 -113.878)"/><path class="cls-21" d="M519.972,180.856c0.153,0,.2,1.413.58,3.085s0.934,2.967.8,3.036A8.1,8.1,0,0,1,519.972,180.856Z" transform="translate(-388.494 -113.878)"/><path class="cls-21" d="M517.79,178.793a13.539,13.539,0,0,1,.648,2.984,13.536,13.536,0,0,1,.471,3.017A11.031,11.031,0,0,1,517.79,178.793Z" transform="translate(-388.494 -113.878)"/><path class="cls-21" d="M511.541,171.853a3.2,3.2,0,0,1,1.37.958,9.7,9.7,0,0,1,2.146,3.414,18.111,18.111,0,0,1,.962,3.893,5.043,5.043,0,0,1,.107,1.655,5.575,5.575,0,0,1-.469-1.586,29.324,29.324,0,0,0-1.086-3.775,11.714,11.714,0,0,0-1.931-3.352C512,172.3,511.493,171.92,511.541,171.853Z" transform="translate(-388.494 -113.878)"/><path class="cls-21" d="M509.015,167.128a17.994,17.994,0,0,0,.281,3.89,17.994,17.994,0,0,0,1.587,3.563A6.775,6.775,0,0,1,509.015,167.128Z" transform="translate(-388.494 -113.878)"/><ellipse class="cls-21" cx="531.669" cy="177.003" rx="1.286" ry="0.26" transform="translate(-407.295 167.934) rotate(-29.194)"/><path class="cls-21" d="M521.83,173.141a106.351,106.351,0,0,0,1.895,3.137A3.4,3.4,0,0,1,521.83,173.141Z" transform="translate(-388.494 -113.878)"/><path class="cls-21" d="M519.15,171.7a12.973,12.973,0,0,1,1.21,1.915,12.965,12.965,0,0,1,1.295,1.86A4.776,4.776,0,0,1,519.15,171.7Z" transform="translate(-388.494 -113.878)"/><path class="cls-21" d="M505.829,154.091a0.7,0.7,0,0,1,.2-0.235,4.589,4.589,0,0,1,.691-0.556,6.4,6.4,0,0,1,3.105-.963,8.249,8.249,0,0,1,4.683,1.151,11.173,11.173,0,0,1,3.975,4.361,18.57,18.57,0,0,1,1.555,4.055l-0.358-.156a9.182,9.182,0,0,1,4.24-1.017,9.356,9.356,0,0,1,3.38.618,8.259,8.259,0,0,1,1.978,1.072,2.5,2.5,0,0,1,.6.543,15.238,15.238,0,0,0-2.682-1.32,9.388,9.388,0,0,0-7.281.544l-0.276.145-0.083-.3a18.919,18.919,0,0,0-1.532-3.935,10.973,10.973,0,0,0-3.764-4.2,8.1,8.1,0,0,0-4.419-1.194,6.688,6.688,0,0,0-3.017.77C506.173,153.84,505.864,154.13,505.829,154.091Z" transform="translate(-388.494 -113.878)"/><path class="cls-21" d="M496.342,156.379a1.647,1.647,0,0,0-.886.587,1.627,1.627,0,0,0-.293,1.165,1.772,1.772,0,0,0,.949,1.232,2.634,2.634,0,0,0,1.929.206,6.074,6.074,0,0,0,2.09-1.068,21.119,21.119,0,0,1,2.242-1.568,9.49,9.49,0,0,1,2.805-1,11.418,11.418,0,0,1,5.669.425,14.412,14.412,0,0,1,4.085,2.192,17.119,17.119,0,0,1,2.3,2.1,4.114,4.114,0,0,1,.7.9c-0.071.071-1.116-1.19-3.223-2.7a14.937,14.937,0,0,0-4.017-2.034,11.255,11.255,0,0,0-5.424-.369,9.19,9.19,0,0,0-2.656.933,22.265,22.265,0,0,0-2.209,1.512,6.372,6.372,0,0,1-2.272,1.1,3,3,0,0,1-2.209-.308,2.065,2.065,0,0,1-1.055-1.515,1.805,1.805,0,0,1,.423-1.327A1.067,1.067,0,0,1,496.342,156.379Z" transform="translate(-388.494 -113.878)"/><path class="cls-4" d="M546.208,208.405l22.047,39.417a11.181,11.181,0,0,1-1.7,10.476l0.455-.655a9.411,9.411,0,0,1-7.319,3.494h-0.417a9.412,9.412,0,0,1-8.63-5.656l-5.176-7.855Z" transform="translate(-388.494 -113.878)"/><path class="cls-4" d="M498.464,205.585c4.325-2.209,8.6-2.708,13.255-2.844,5.426-.158,13.074-0.917,18.921-0.3,0,0,17.817-.547,17.9,13.263l-2.356,53.009L550,291.437l-53.389,1.613,0.383-26.8c-0.659-13.946.748-33.694,0.748-33.694-0.822-7.5-4.924-10.873-5.506-15.747C491.717,212.5,494.6,207.559,498.464,205.585Z" transform="translate(-388.494 -113.878)"/><path class="cls-22" d="M513.511,269.488c0.061-.078,1.212.958,3.386,2.109a20.182,20.182,0,0,0,18.43.326c2.213-1.074,3.4-2.069,3.458-1.988a3.833,3.833,0,0,1-.8.725,16.952,16.952,0,0,1-2.488,1.591,19.4,19.4,0,0,1-18.773-.332,16.942,16.942,0,0,1-2.431-1.679A3.833,3.833,0,0,1,513.511,269.488Z" transform="translate(-388.494 -113.878)"/><path class="cls-22" d="M548.538,215.709a2,2,0,0,1,.036.525c0,0.4,0,.9,0,1.5-0.025,1.38-.06,3.247-0.1,5.519-0.113,4.659-.317,11.095-0.618,18.2s-0.645,13.538-.967,18.189c-0.165,2.325-.307,4.206-0.436,5.5l-0.155,1.493a0.264,0.264,0,1,1-.1-0.008c0.015-.4.035-0.9,0.058-1.5l0.27-5.511c0.212-4.725.5-11.121,0.815-18.189l0.77-18.19,0.267-5.513,0.1-1.5A2.008,2.008,0,0,1,548.538,215.709Z" transform="translate(-388.494 -113.878)"/><path class="cls-4" d="M559.732,220.287s2.02,5.93,2.378,6.733c0,0,4.986,14.413,6.61,24.145l-15.94-28.784C552.644,222.4,559.518,220.346,559.732,220.287Z" transform="translate(-388.494 -113.878)"/><path class="cls-22" d="M551.881,218.548a11.371,11.371,0,0,1,.954,1.477l2.5,4.083c2.1,3.453,5.189,8.107,8.283,13.463,1.549,2.683,2.843,5.328,3.962,7.77a14.225,14.225,0,0,1,1.486,6.972,10.486,10.486,0,0,1-1.416,4.6,7.582,7.582,0,0,1-.765,1.067,1.517,1.517,0,0,1-.328.32c-0.041-.033.392-0.5,0.917-1.486a10.891,10.891,0,0,0,1.225-4.524,14.166,14.166,0,0,0-1.557-6.753c-1.131-2.407-2.438-5.044-3.976-7.707-3.079-5.331-6.124-10.025-8.146-13.531-1.025-1.745-1.823-3.175-2.359-4.172A11.342,11.342,0,0,1,551.881,218.548Z" transform="translate(-388.494 -113.878)"/><path class="cls-4" d="M453.677,233.268l12.354-8.081,7.8,13.507s10.81-15.025,15.72-23.828c4.52-8.1,10.366-10.284,13.187-10.872a1.253,1.253,0,0,1,1.5,1.367l-4.261,29.216c-0.537,1.521-9.454,14.448-14.437,20.953-8.317,10.857-20.57,3.909-23.936-3.69C458.928,245.809,454.771,236.647,453.677,233.268Z" transform="translate(-388.494 -113.878)"/><path class="cls-22" d="M470.276,250.885a6.9,6.9,0,0,1-.109-1.945,24.081,24.081,0,0,1,.463-4.686,12.77,12.77,0,0,1,1.76-4.389,4.3,4.3,0,0,1,1.313-1.455c0.062,0.056-.424.617-1,1.647a15.41,15.41,0,0,0-1.565,4.307,38.224,38.224,0,0,0-.6,4.6A7.68,7.68,0,0,1,470.276,250.885Z" transform="translate(-388.494 -113.878)"/><path class="cls-22" d="M466.66,244.849a3.287,3.287,0,0,1,.106-1.676,7.788,7.788,0,0,1,1.956-3.557,5.082,5.082,0,0,1,3.633-1.8,1.881,1.881,0,0,1,1.57.621,4.114,4.114,0,0,0-4.828,1.543,8.8,8.8,0,0,0-1.977,3.3A15.049,15.049,0,0,1,466.66,244.849Z" transform="translate(-388.494 -113.878)"/><path class="cls-22" d="M503.541,207.6a1.478,1.478,0,0,1,.364.271,7.106,7.106,0,0,1,.931.909,11.537,11.537,0,0,1,2.323,4.173,16.182,16.182,0,0,1,.585,7.06,15.447,15.447,0,0,1-1.066,4.076,41.727,41.727,0,0,1-2.012,4.021,154.881,154.881,0,0,1-8.533,13.181c-1.172,1.631-2.144,2.934-2.843,3.815-0.345.443-.625,0.778-0.818,1a1.5,1.5,0,0,1-.316.326,12.678,12.678,0,0,1,.971-1.45l2.7-3.9c2.247-3.318,5.357-7.916,8.38-13.224a43.2,43.2,0,0,0,2-3.963,15.245,15.245,0,0,0,1.061-3.943,16.247,16.247,0,0,0-.461-6.887,12.108,12.108,0,0,0-2.127-4.152,9.923,9.923,0,0,0-.848-0.962A1.527,1.527,0,0,1,503.541,207.6Z" transform="translate(-388.494 -113.878)"/><g class="cls-23"><path class="cls-24" d="M517.326,271.869c-3.939-1.8-7.051-5.917-7.165-10.087a4.167,4.167,0,0,1,.968-3.121c1.165-1.15,3.134-.937,4.583-0.175,2.387,1.253,3.948,3.608,5.624,5.719s3.8,4.186,6.488,4.441a16.887,16.887,0,0,0,3.451-.259,5.861,5.861,0,0,1,3.391.41,2.562,2.562,0,0,1,1.4,2.867s-4.718,2.935-9.642,2.587A27.792,27.792,0,0,1,517.326,271.869Z" transform="translate(-388.494 -113.878)"/></g><path class="cls-22" d="M503.509,285.229a9.254,9.254,0,0,1,1.542.365c0.978,0.278,2.407.631,4.181,1.014s3.905,0.752,6.285,1.048a67.091,67.091,0,0,0,15.569.044c2.382-.282,4.516-0.631,6.291-1.012s3.207-.718,4.186-0.99a9.237,9.237,0,0,1,1.543-.356,9.205,9.205,0,0,1-1.486.55c-0.965.333-2.388,0.734-4.164,1.155a60.334,60.334,0,0,1-6.315,1.129,62.052,62.052,0,0,1-15.684-.045,60.332,60.332,0,0,1-6.308-1.165c-1.774-.431-3.195-0.841-4.158-1.179A9.189,9.189,0,0,1,503.509,285.229Z" transform="translate(-388.494 -113.878)"/></svg>