<svg id="Layer_1" data-name="Layer 1" xmlns="http://www.w3.org/2000/svg" viewBox="0 0 199.469 136.378"><defs><style>.cls-1{fill:#e9eefb;}.cls-2{fill:#ff5a77;}.cls-3{fill:#4038a6;}</style></defs><title>takeaways-3</title><circle class="cls-1" cx="60.171" cy="76.207" r="60.171"/><circle class="cls-1" cx="147.113" cy="77.528" r="52.356"/><path class="cls-2" d="M147.374,109.242A15.7,15.7,0,0,0,132.086,121.4a13.454,13.454,0,1,0-3.833,26.351h35.69v0a10.551,10.551,0,0,0-.081-21.1c-0.3,0-.6.016-0.892,0.04a16.211,16.211,0,0,0,.1-1.751A15.7,15.7,0,0,0,147.374,109.242Z" transform="translate(-0.528 -26.936)"/><path class="cls-3" d="M51.017,147.75v0h65.447a17.892,17.892,0,0,1,11.789-31.369c0.282,0,.567.008,0.85,0.023a20.162,20.162,0,0,1,38.293,6.206,14.464,14.464,0,0,1,1.923.639,32.656,32.656,0,0,0-40.913-39.5A38.118,38.118,0,0,0,53.383,96.592c-0.717-.057-1.436-0.1-2.169-0.1A25.63,25.63,0,0,0,51.017,147.75Z" transform="translate(-0.528 -26.936)"/><path class="cls-2" d="M115.6,43.077l-0.441-.061a1.535,1.535,0,0,0-1.534,1.53v5.6a1.511,1.511,0,0,0,1,1.41,33.353,33.353,0,0,1,19.6,18.8,1.492,1.492,0,0,0,1.384.931h5.711a1.532,1.532,0,0,0,1.446-2.026A41.8,41.8,0,0,0,115.6,43.077Z" transform="translate(-0.528 -26.936)"/><path class="cls-3" d="M151.915,69.386h5.529a1.539,1.539,0,0,0,1.488-1.9,55.664,55.664,0,0,0-41.545-40.518l-0.332-.031a1.531,1.531,0,0,0-1.533,1.527v5.516a1.506,1.506,0,0,0,1.144,1.458,46.988,46.988,0,0,1,33.806,32.848A1.506,1.506,0,0,0,151.915,69.386Z" transform="translate(-0.528 -26.936)"/></svg>