<svg id="Layer_1" data-name="Layer 1" xmlns="http://www.w3.org/2000/svg" viewBox="0 0 199.469 131.546"><defs><style>.cls-1{fill:#e9eefb;}.cls-2{fill:#ff5a77;}.cls-3{fill:none;}.cls-4{fill:#4038a6;}</style></defs><title>takeaways-4</title><circle class="cls-1" cx="60.171" cy="71.376" r="60.171"/><circle class="cls-1" cx="147.113" cy="72.697" r="52.356"/><path class="cls-2" d="M59,161.44h82a11.523,11.523,0,0,0,11.161-8.689H47.837A11.534,11.534,0,0,0,59,161.44Z" transform="translate(-0.528 -31.767)"/><path class="cls-2" d="M47.466,149.9a11.5,11.5,0,0,0,.372,2.852H152.163a11.5,11.5,0,0,0,.371-2.852v-1.835H47.466V149.9Z" transform="translate(-0.528 -31.767)"/><path class="cls-3" d="M86.884,52.456A17.575,17.575,0,0,0,78.8,67.3V83.641h42.4V67.174C119.48,52.5,102.792,42.353,86.884,52.456Z" transform="translate(-0.528 -31.767)"/><path class="cls-1" d="M109.251,115.425c0-7.019-7.83-12.212-15.237-7.331a4.694,4.694,0,0,0-1.374,1.38c-3.633,5.585-1.614,11.255,2.531,13.81v9.1h9.661v-9.1A9.211,9.211,0,0,0,109.251,115.425Z" transform="translate(-0.528 -31.767)"/><path class="cls-3" d="M94.014,108.093a4.7,4.7,0,0,0-1.374,1.379c-3.632,5.585-1.614,11.255,2.531,13.81v9.1h9.661v-9.1a9.21,9.21,0,0,0,4.419-7.857C109.251,108.405,101.421,103.213,94.014,108.093Z" transform="translate(-0.528 -31.767)"/><path class="cls-4" d="M137.649,83.641H54.671a7.205,7.205,0,0,0-7.205,7.208v57.215H152.534V90.843a7.2,7.2,0,0,0-7.2-7.2h-7.681Zm-32.817,39.642v9.1H95.172v-9.1c-4.145-2.554-6.163-8.224-2.531-13.81a4.7,4.7,0,0,1,1.374-1.379c7.408-4.881,15.237.312,15.237,7.331A9.21,9.21,0,0,1,104.832,123.282Z" transform="translate(-0.528 -31.767)"/><path class="cls-2" d="M78.726,67.3a17.575,17.575,0,0,1,8.082-14.848c15.908-10.1,32.6.048,34.314,14.717V83.641h16.767V69.66c0-27.272-28.967-47.916-57.737-32.761A34.234,34.234,0,0,0,62.111,67.256V83.641H78.726V67.3Z" transform="translate(-0.528 -31.767)"/></svg>