<svg id="Layer_1" data-name="Layer 1" xmlns="http://www.w3.org/2000/svg" viewBox="0 0 199.469 162.099"><defs><style>.cls-1{fill:#e9eefb;}.cls-2{fill:#ff5a77;}.cls-3{fill:#4038a6;}.cls-4{fill:#fff;}</style></defs><title>takeaways-2</title><circle class="cls-1" cx="60.171" cy="84.476" r="60.171"/><circle class="cls-1" cx="147.113" cy="85.797" r="52.356"/><path class="cls-2" d="M102.891,20.717a3.165,3.165,0,0,0-5.922,0L84.55,41.5h30.74Z" transform="translate(-0.528 -18.667)"/><path class="cls-3" d="M52.2,128.884a2.1,2.1,0,0,0-.36,1.169l-0.094,47.237a2.082,2.082,0,0,0,1.551,2.017l0.533,0.07a2.086,2.086,0,0,0,1.814-1.059l19.836-34.963c0.239,0.605.453,1.245,0.7,1.833,4.89,11.612,11.386,18.976,18.645,21.315l-4.8-21.887a2.049,2.049,0,0,1,.014-0.956l8.031-31.729a2.081,2.081,0,0,1,2.02-1.571h0.011a2.084,2.084,0,0,1,2.015,1.59l7.6,31.25a2.1,2.1,0,0,1,.018.91l-4.584,22.346c7.207-2.386,13.653-9.73,18.51-21.268,0.266-.635.5-1.327,0.757-1.985l19.926,35.115a2.08,2.08,0,0,0,1.81,1.059l0.536-.07a2.088,2.088,0,0,0,1.551-2.017l-0.094-47.237a2.113,2.113,0,0,0-.36-1.169L133.471,107.8a2.08,2.08,0,0,0-1.608-.9c0.225-3.481.374-7,.374-10.585l0-4.056c0.007-6.2.013-12.06-.13-17.681,0.087-1,.126-1.87.126-2.713a32.242,32.242,0,0,0-9.979-23.325L122.1,48.38l-5.588-5.644h-33.2l-6.268,6.32-0.246.273a32.408,32.408,0,0,0-7.794,13.16c-0.183.594-.327,1.206-0.473,1.816a32.717,32.717,0,0,0-.921,7.56c0,0.322-.012.72-0.023,1.143a29.636,29.636,0,0,0,.018,3.248c-0.14,4.34-.094,8.484-0.047,12.868,0.029,2.3.052,4.679,0.052,7.19,0,3.586.149,7.116,0.38,10.6a2.065,2.065,0,0,0-1.47.88ZM99.883,62.479A21.456,21.456,0,1,1,78.422,83.937,21.456,21.456,0,0,1,99.883,62.479Z" transform="translate(-0.528 -18.667)"/><polygon class="cls-2" points="107.17 125.024 99.567 93.778 91.536 125.506 96.558 148.379 99.567 162.099 102.386 148.356 107.17 125.024"/><polygon class="cls-4" points="114.762 22.83 84.022 22.83 82.791 24.069 115.989 24.069 114.762 22.83"/><path class="cls-2" d="M99.883,101.225a17.287,17.287,0,1,0-17.29-17.288A17.308,17.308,0,0,0,99.883,101.225ZM109,78.679a1.148,1.148,0,0,1,.182,1.611l-11.847,14.9a1.146,1.146,0,0,1-1.8-1.424l11.848-14.9A1.149,1.149,0,0,1,109,78.679ZM90.577,88.8l11.847-14.9a1.147,1.147,0,0,1,1.8,1.426L92.37,90.225a1.134,1.134,0,0,1-.9.431,1.174,1.174,0,0,1-.714-0.245A1.153,1.153,0,0,1,90.577,88.8Z" transform="translate(-0.528 -18.667)"/><path class="cls-1" d="M99.883,105.391A21.456,21.456,0,1,0,78.422,83.937,21.455,21.455,0,0,0,99.883,105.391Zm0-38.741a17.287,17.287,0,1,1-17.29,17.287A17.306,17.306,0,0,1,99.883,66.65Z" transform="translate(-0.528 -18.667)"/><path class="cls-4" d="M91.473,90.656a1.134,1.134,0,0,0,.9-0.431l11.848-14.9a1.147,1.147,0,0,0-1.8-1.426L90.577,88.8a1.153,1.153,0,0,0,.182,1.614A1.174,1.174,0,0,0,91.473,90.656Z" transform="translate(-0.528 -18.667)"/><path class="cls-4" d="M95.729,95.378a1.144,1.144,0,0,0,1.61-.185l11.847-14.9a1.146,1.146,0,1,0-1.8-1.426l-11.848,14.9A1.148,1.148,0,0,0,95.729,95.378Z" transform="translate(-0.528 -18.667)"/></svg>