<svg id="Layer_1" data-name="Layer 1" xmlns="http://www.w3.org/2000/svg" viewBox="0 0 199.469 139.381"><defs><style>.cls-1{fill:#e9eefb;}.cls-2{fill:#4038a6;}.cls-3{fill:#fff;}.cls-4{fill:#ff5a75;}</style></defs><title>takeaways-1</title><circle class="cls-1" cx="60.171" cy="73.633" r="60.171"/><circle class="cls-1" cx="147.113" cy="74.954" r="52.356"/><path class="cls-2" d="M64.043,168.891h71.913a8.345,8.345,0,0,0,8.344-8.347V37.858a8.349,8.349,0,0,0-8.344-8.348H64.043A8.349,8.349,0,0,0,55.7,37.858V160.544A8.345,8.345,0,0,0,64.043,168.891ZM100,160.775a5.112,5.112,0,1,1,5.114-5.11A5.115,5.115,0,0,1,100,160.775ZM68.788,41.029H131.21V144.682H68.788V41.029Z" transform="translate(-0.528 -29.51)"/><path class="cls-3" d="M131.21,41.029H68.788V144.682H131.21V41.029ZM74.675,47.534h50.607V84.8H74.675V47.534Zm50.607,40.551V92.72H113.2V88.085h12.084Zm-50.607,0H86.76V92.72H74.675V88.085ZM98,118.634H74.675V96.7H98v21.936ZM99.6,92.72H87.518V88.085H99.6V92.72Zm0.756-4.635h12.09V92.72h-12.09V88.085Zm0.8,25.453h12.589v3.154H101.156v-3.154Zm24.168,16.391H101.156v-3.157h24.168v3.157Zm0-5.421H101.156v-3.155h24.168v3.155Zm0-13.237H101.156v-3.152h24.168v3.152Zm0-5.42H101.156v-3.157h24.168v3.157Zm0-5.422H101.156V97.274h24.168v3.154Z" transform="translate(-0.528 -29.51)"/><circle class="cls-1" cx="99.471" cy="126.154" r="5.113"/><rect class="cls-4" x="74.147" y="18.024" width="50.607" height="37.265"/><rect class="cls-1" x="74.147" y="58.575" width="12.084" height="4.635"/><rect class="cls-1" x="74.147" y="67.188" width="23.328" height="21.936"/><rect class="cls-1" x="86.99" y="58.575" width="12.08" height="4.635"/><rect class="cls-1" x="99.826" y="58.575" width="12.09" height="4.635"/><rect class="cls-4" x="100.628" y="67.764" width="24.168" height="3.154"/><rect class="cls-4" x="100.628" y="73.184" width="24.168" height="3.157"/><rect class="cls-4" x="100.628" y="78.608" width="24.168" height="3.152"/><rect class="cls-4" x="100.628" y="84.028" width="12.589" height="3.154"/><rect class="cls-4" x="100.628" y="91.842" width="24.168" height="3.155"/><rect class="cls-4" x="100.628" y="97.262" width="24.168" height="3.157"/><rect class="cls-1" x="112.67" y="58.575" width="12.084" height="4.635"/></svg>