<svg id="Layer_1" data-name="Layer 1" xmlns="http://www.w3.org/2000/svg" viewBox="0 0 199.47 134.69"><defs><style>.cls-1{fill:#e9eefb;}.cls-2{fill:#4038a6;}.cls-3{fill:#ff5a75;}</style></defs><title>unlinited-scan-new</title><circle class="cls-1" cx="60.17" cy="71.29" r="60.17"/><circle class="cls-1" cx="147.11" cy="72.61" r="52.36"/><rect class="cls-1" x="74.15" y="56.23" width="12.08" height="4.63"/><rect class="cls-1" x="74.15" y="64.84" width="23.33" height="21.94"/><rect class="cls-1" x="86.99" y="56.23" width="12.08" height="4.63"/><rect class="cls-1" x="99.83" y="56.23" width="12.09" height="4.63"/><rect class="cls-1" x="112.67" y="56.23" width="12.08" height="4.63"/><path class="cls-2" d="M65,2.35H32.48V34.86H46.41V16.28H65Z" transform="translate(0 -2.35)"/><path class="cls-2" d="M65,137H32.48V104.52H46.41V123.1H65Z" transform="translate(0 -2.35)"/><path class="cls-2" d="M134.66,2.35h32.51V34.86H153.24V16.28H134.66Z" transform="translate(0 -2.35)"/><path class="cls-2" d="M134.66,137h32.51V104.52H153.24V123.1H134.66Z" transform="translate(0 -2.35)"/><path class="cls-3" d="M137,32.53v74.32H62.67V32.53Z" transform="translate(0 -2.35)"/><path class="cls-2" d="M167.17,72H32.48a2.32,2.32,0,1,1,0-4.64H167.17a2.32,2.32,0,1,1,0,4.64Z" transform="translate(0 -2.35)"/></svg>