<?xml version="1.0"?>
<svg xmlns="http://www.w3.org/2000/svg" xmlns:xlink="http://www.w3.org/1999/xlink" xmlns:svgjs="http://svgjs.com/svgjs" version="1.1" width="512" height="512" x="0" y="0" viewBox="0 0 511.99966 511" style="enable-background:new 0 0 512 512" xml:space="preserve" class=""><g><path xmlns="http://www.w3.org/2000/svg" d="m503.898438 381.839844-191.191407-347.761719c-24.597656-44.769531-88.808593-44.773437-113.410156 0l-191.191406 347.761719c-23.742188 43.167968 7.527343 95.890625 56.703125 95.890625h382.386718c49.246094 0 80.410157-52.785157 56.703126-95.890625zm-56.703126 65.070312h-382.386718c-25.75 0-42.132813-27.621094-29.695313-50.222656l191.195313-347.765625c12.890625-23.453125 46.511718-23.429687 59.386718 0l191.195313 347.765625c12.425781 22.582031-3.925781 50.222656-29.695313 50.222656zm0 0" fill="#ffb93f" data-original="#000000" style="" class=""/><path xmlns="http://www.w3.org/2000/svg" d="m342.398438 268.980469h21.140624c8.511719 0 15.410157-6.898438 15.410157-15.410157 0-8.511718-6.898438-15.410156-15.410157-15.410156h-21.972656c0-.003906 0-.003906 0-.003906-3.304687-18.515625-16.210937-33.730469-33.359375-40.324219v-4.964843c0-10.25-2.96875-19.824219-8.101562-27.898438l10.765625-15.785156c4.796875-7.027344 2.988281-16.617188-4.042969-21.414063s-16.621094-2.988281-21.417969 4.042969l-8.90625 13.054688s0 0-.003906 0c-12.84375-5.511719-27.714844-5.699219-40.992188 0-.003906 0-.003906 0-.007812 0l-8.90625-13.054688c-4.796875-7.03125-14.382812-8.839844-21.414062-4.042969s-8.84375 14.382813-4.046876 21.414063l10.769532 15.785156c-5.136719 8.074219-8.105469 17.648438-8.105469 27.898438v4.964843c-17.148437 6.59375-30.050781 21.820313-33.359375 40.324219v.003906h-21.96875c-8.511719 0-15.414062 6.898438-15.414062 15.410156 0 8.511719 6.902343 15.410157 15.414062 15.410157h21.136719v15.871093h-21.136719c-8.511719 0-15.414062 6.898438-15.414062 15.410157s6.902343 15.410156 15.414062 15.410156h21.136719v15.871094h-21.136719c-8.511719 0-15.414062 6.902343-15.414062 15.410156 0 8.511719 6.902343 15.414063 15.414062 15.414063h24.433594c.003906 0 .003906.003906.003906.003906 10.3125 36.164062 43.652344 62.722656 83.097656 62.722656 39.441406 0 72.78125-26.558594 83.097656-62.722656v-.003906h24.4375c8.511719 0 15.410157-6.902344 15.410157-15.414063 0-8.507813-6.898438-15.410156-15.410157-15.410156h-21.140624v-15.867188h21.140624c8.511719 0 15.410157-6.902343 15.410157-15.414062 0-8.507813-6.898438-15.410157-15.410157-15.410157h-21.140624c0-5.914062 0-9.945312 0-15.871093zm-65.015626-76.113281v1.425781h-42.761718v-1.425781c0-11.796876 9.597656-21.378907 21.382812-21.378907 11.78125-.003906 21.378906 9.582031 21.378906 21.378907zm-54.503906 32.25h66.25c12.453125 0 22.449219 10.144531 22.449219 22.429687v15.605469h-111.148437c0-5.664063 0-10.125 0-15.59375 0-12.34375 10.039062-22.441406 22.449218-22.441406zm-22.449218 113.582031c0-6.070313 0-39.945313 0-44.722657h40.160156v98.128907c-23.167969-6.699219-40.160156-28.101563-40.160156-53.40625zm70.984374 53.40625v-98.128907h40.160157v44.722657c0 25.304687-16.992188 46.707031-40.160157 53.40625zm0 0" fill="#ffb93f" data-original="#000000" style="" class=""/></g></svg>
